<svg xmlns="http://www.w3.org/2000/svg" width="54" height="54" viewBox="0 0 54 54">
  <g id="Group_4003" data-name="Group 4003" transform="translate(-1726 -902)">
    <circle id="Ellipse_201" data-name="Ellipse 201" cx="27" cy="27" r="27" transform="translate(1726 902)" fill="#ff8830"/>
    <g id="phone-alt" transform="translate(1741 916.992)">
      <path id="Path_7249" data-name="Path 7249" d="M23.315,16.965l-5.25-2.25a1.125,1.125,0,0,0-1.312.323l-2.325,2.841A17.375,17.375,0,0,1,6.122,9.574L8.962,7.249a1.122,1.122,0,0,0,.323-1.312L7.036.686A1.132,1.132,0,0,0,5.747.035L.872,1.16A1.125,1.125,0,0,0,0,2.256a21.747,21.747,0,0,0,21.75,21.75,1.125,1.125,0,0,0,1.1-.872l1.125-4.875a1.139,1.139,0,0,0-.657-1.294Z" transform="translate(0 0)" fill="#fff"/>
    </g>
  </g>
</svg>
