<svg xmlns="http://www.w3.org/2000/svg" xmlns:xlink="http://www.w3.org/1999/xlink" width="64" height="64" viewBox="0 0 64 64">
  <defs>
    <clipPath id="clip-path">
      <rect id="Rectangle_191" data-name="Rectangle 191" width="64" height="64" transform="translate(193 70)" fill="#004fa3"/>
    </clipPath>
  </defs>
  <g id="Mask_Group_31" data-name="Mask Group 31" transform="translate(-193 -70)" clip-path="url(#clip-path)">
    <g id="effective" transform="translate(193 72.833)">
      <path id="Path_12837" data-name="Path 12837" d="M55.005,24.272a.937.937,0,1,0-.931,1.627c5.192,2.972,8.051,6.8,8.051,10.79,0,7.747-10.919,14.509-25.4,15.73a.937.937,0,0,0,.078,1.872c.026,0,.053,0,.08,0,7.39-.623,14.183-2.676,19.127-5.782C61.162,45.267,64,41.071,64,36.688c0-4.687-3.194-9.1-8.995-12.417Zm0,0" fill="#004fa3"/>
      <path id="Path_12838" data-name="Path 12838" d="M32.784,54.065l.015-.025c.013-.021.024-.042.036-.063s.009-.019.013-.028.02-.043.028-.065l.011-.029c.008-.023.015-.046.021-.07l.008-.029c.005-.025.009-.05.013-.075,0-.009,0-.018,0-.026a.913.913,0,0,0,0-.207c0-.009,0-.017,0-.026,0-.026-.007-.051-.013-.076l-.008-.029c-.006-.023-.013-.047-.021-.07l-.011-.029c-.008-.022-.018-.044-.028-.065l-.013-.028c-.011-.022-.023-.042-.036-.063l-.015-.024c-.016-.024-.033-.048-.051-.071l-.008-.01a.8.8,0,0,0-.067-.073l-.021-.02c-.018-.017-.036-.032-.055-.047l-.01-.009-4.924-3.783A.937.937,0,1,0,26.5,50.512l2.643,2.031a44.342,44.342,0,0,1-18.665-4.754c-5.551-3.014-8.608-6.956-8.608-11.1,0-3.986,2.859-7.818,8.051-10.79a.937.937,0,1,0-.931-1.627C3.194,27.591,0,32,0,36.688c0,4.864,3.405,9.392,9.588,12.749a46.4,46.4,0,0,0,19.733,4.991L26.5,56.592a.937.937,0,0,0,1.142,1.487L32.571,54.3l.01-.009c.019-.015.037-.031.055-.047l.021-.019a.874.874,0,0,0,.067-.074l.008-.01c.018-.023.035-.046.051-.071Zm0,0" fill="#004fa3"/>
      <path id="Path_12839" data-name="Path 12839" d="M13.146,32.394l18.429,9.389c.01.005.02.009.03.013l.044.02.071.025.043.013c.026.007.053.012.08.017l.038.007a.97.97,0,0,0,.119.008.984.984,0,0,0,.119-.008l.038-.007a.778.778,0,0,0,.08-.017l.043-.013.071-.025.044-.02.03-.013,18.429-9.389a.938.938,0,0,0,.512-.835V27.792a.938.938,0,1,0-1.875,0v3.192L32.938,39.417V20.352l16.554-8.434V24.042a.938.938,0,0,0,1.875,0V10.389a.9.9,0,0,0-.009-.126c0-.014-.005-.027-.008-.042s-.01-.054-.017-.08-.011-.032-.016-.047a.689.689,0,0,0-.025-.069c-.007-.016-.015-.032-.022-.047s-.021-.042-.033-.062-.02-.03-.029-.045-.026-.038-.04-.056-.023-.028-.035-.042-.031-.034-.047-.05l-.042-.038c-.017-.015-.035-.029-.053-.043l-.047-.033-.025-.018-.035-.019-.029-.018L32.425.165a.937.937,0,0,0-.851,0L28.923,1.515a.937.937,0,1,0,.851,1.671L32,2.052l16.364,8.337-1.025.522L32,18.726,16.661,10.911l-1.025-.522,10.786-5.5a.937.937,0,1,0-.851-1.67L13.146,9.553l-.029.018-.035.019-.025.018c-.016.01-.031.021-.047.033s-.036.028-.053.043-.028.024-.041.038-.032.033-.047.05-.024.027-.036.042-.027.037-.04.056-.02.03-.029.045-.022.042-.033.063-.016.031-.022.047-.017.046-.025.07-.011.031-.016.047-.012.054-.017.081-.006.027-.008.041a.981.981,0,0,0-.009.126v7.16a.938.938,0,0,0,1.875,0v-5.63l16.554,8.434V39.418L14.509,30.984V21.3a.938.938,0,0,0-1.875,0v10.26a.938.938,0,0,0,.512.835Zm0,0" fill="#004fa3"/>
    </g>
  </g>
</svg>
