<svg xmlns="http://www.w3.org/2000/svg" xmlns:xlink="http://www.w3.org/1999/xlink" width="64" height="64" viewBox="0 0 64 64">
  <defs>
    <linearGradient id="linear-gradient" x1="0.5" x2="0.5" y2="1" gradientUnits="objectBoundingBox">
      <stop offset="0" stop-color="#005fc5"/>
      <stop offset="1" stop-color="#004fa3"/>
    </linearGradient>
  </defs>
  <g id="statistics" transform="translate(0)">
    <path id="Path_13102" data-name="Path 13102" d="M108.405,286.684a4.123,4.123,0,0,1-5.715,5.715l-1.14,1.722a6.188,6.188,0,0,0,8.576-8.577Zm0,0" transform="translate(-88.448 -248.699)" fill="url(#linear-gradient)"/>
    <path id="Path_13103" data-name="Path 13103" d="M86.194,266.065a4.1,4.1,0,0,1,2.272.686l1.141-1.721a6.188,6.188,0,0,0-8.576,8.577l1.722-1.14a4.123,4.123,0,0,1,3.442-6.4Zm0,0" transform="translate(-69.678 -229.935)" fill="url(#linear-gradient)"/>
    <path id="Path_13104" data-name="Path 13104" d="M288,336v6.194h4.129v-2.065h-2.065V336Zm0,0" transform="translate(-250.839 -292.645)" fill="url(#linear-gradient)"/>
    <path id="Path_13105" data-name="Path 13105" d="M247.5,288a11.377,11.377,0,0,0-7.185,2.564l1.309,1.6a9.3,9.3,0,0,1,4.844-2.033v2h2.065v-2a9.3,9.3,0,0,1,8.2,8.2h-2v2.065h2a9.3,9.3,0,0,1-2.033,4.845l1.6,1.308A11.353,11.353,0,0,0,247.5,288Zm0,0" transform="translate(-209.305 -250.839)" fill="url(#linear-gradient)"/>
    <path id="Path_13106" data-name="Path 13106" d="M220.387,336.723v-2h-2.065v2a9.3,9.3,0,0,1-8.2-8.2h2v-2.065h-2a9.3,9.3,0,0,1,2.033-4.845l-1.6-1.308a11.353,11.353,0,0,0,15.975,15.976l-1.309-1.6A9.292,9.292,0,0,1,220.387,336.723Zm0,0" transform="translate(-181.161 -278.982)" fill="url(#linear-gradient)"/>
    <path id="Path_13107" data-name="Path 13107" d="M57.806,117.162H55.742v-28.9H49.548V107.7a15.567,15.567,0,0,0-2.065-1.866V93.42H41.29v9.6a15.528,15.528,0,0,0-2.065-.26v-4.18H33.032v5.032a15.4,15.4,0,0,0-2.949,1.415,14.275,14.275,0,0,0-.713-1.678L31,101.065l-5.614-5.616L23.1,97.081a14.374,14.374,0,0,0-2.151-.888l-.461-2.774H12.545l-.461,2.774a14.374,14.374,0,0,0-2.151.888L7.646,95.448l-5.615,5.616,1.632,2.286a14.187,14.187,0,0,0-.889,2.151L0,105.965v7.943l2.774.462a14.292,14.292,0,0,0,.889,2.151L2.03,118.806l5.614,5.617,2.287-1.633a14.376,14.376,0,0,0,2.151.888l.461,2.775h7.944l.461-2.774a14.374,14.374,0,0,0,2.151-.888l.413.295a15.467,15.467,0,0,0,30.112-3.859H64V80H57.806ZM51.613,90.323h2.065v26.839h-.052a15.364,15.364,0,0,0-2.012-6.659Zm-8.258,5.161h2.065v9.026a15.356,15.356,0,0,0-2.065-.9ZM35.1,100.646h2.065v2.117a15.446,15.446,0,0,0-2.065.261ZM22.663,120.68a12.283,12.283,0,0,1-2.9,1.2l-.639.173-.39,2.338H14.294l-.39-2.338-.639-.173a12.3,12.3,0,0,1-2.9-1.2l-.575-.33-1.925,1.376-3.143-3.142L6.1,116.657l-.33-.575a12.265,12.265,0,0,1-1.2-2.9l-.172-.639-2.338-.389v-4.445l2.338-.389.173-.639a12.3,12.3,0,0,1,1.2-2.9l.33-.575-1.376-1.927,3.143-3.142,1.925,1.376.575-.33a12.283,12.283,0,0,1,2.9-1.2l.639-.173.39-2.338h4.444l.39,2.338.639.173a12.3,12.3,0,0,1,2.9,1.2l.575.33,1.925-1.376,3.143,3.142-1.376,1.927.33.575a12.279,12.279,0,0,1,1.058,2.489,15.666,15.666,0,0,0-1.679,1.643,10.363,10.363,0,1,0-3.929,10.244c0,.009,0,.019,0,.028a15.451,15.451,0,0,0,.2,2.346Zm2.085-10.136a15.4,15.4,0,0,0-1.7,4.424,8.247,8.247,0,1,1,1.722-5.032c0,.206-.012.407-.026.608Zm13.445,21.07a13.419,13.419,0,1,1,13.419-13.419A13.435,13.435,0,0,1,38.193,131.614ZM59.871,82.065h2.065v35.1H59.871Zm0,0" transform="translate(0 -69.678)" fill="url(#linear-gradient)"/>
    <path id="Path_13108" data-name="Path 13108" d="M57.806,0V2.065h2.218l-7.3,5.843L49.548,4.734,44.681,9.6a3.047,3.047,0,0,0-1.327-.31,3.1,3.1,0,0,0-3.1,3.1,3.061,3.061,0,0,0,.387,1.468l-5.4,6a3.081,3.081,0,0,0-1.185-.237c-.02,0-.037.005-.057.006L29.857,8.549a3.091,3.091,0,1,0-5.012-1.706L16.383,12.05a3.062,3.062,0,0,0-4.838,1.369H6a3.1,3.1,0,1,0,0,2.065h5.542A3.089,3.089,0,0,0,17.478,13.8L25.94,8.595a3.06,3.06,0,0,0,1.93.7c.02,0,.037-.005.057-.006l4.151,11.069a3.1,3.1,0,1,0,4.7.889l5.4-6a3.093,3.093,0,0,0,4.282-2.859,3.047,3.047,0,0,0-.31-1.327l3.407-3.407,3.02,3.02L61.935,3.18V6.194H64V0ZM3.1,15.484a1.032,1.032,0,1,1,1.032-1.032A1.034,1.034,0,0,1,3.1,15.484Zm11.355,0a1.032,1.032,0,1,1,1.032-1.032A1.034,1.034,0,0,1,14.452,15.484Zm12.387-9.29a1.032,1.032,0,1,1,1.032,1.032A1.034,1.034,0,0,1,26.839,6.194Zm7.226,17.548A1.032,1.032,0,1,1,35.1,22.71,1.034,1.034,0,0,1,34.064,23.742Zm9.29-10.323a1.032,1.032,0,1,1,1.032-1.032A1.034,1.034,0,0,1,43.355,13.419Zm0,0" transform="translate(0)" fill="url(#linear-gradient)"/>
  </g>
</svg>
