<svg xmlns="http://www.w3.org/2000/svg" xmlns:xlink="http://www.w3.org/1999/xlink" width="64" height="64" viewBox="0 0 64 64">
  <defs>
    <clipPath id="clip-path">
      <rect id="Rectangle_191" data-name="Rectangle 191" width="64" height="64" transform="translate(193 70)" fill="#004fa3"/>
    </clipPath>
  </defs>
  <g id="Mask_Group_49" data-name="Mask Group 49" transform="translate(-193 -70)" clip-path="url(#clip-path)">
    <g id="support" transform="translate(193 70)">
      <path id="Path_12983" data-name="Path 12983" d="M31.888,8.133a1.259,1.259,0,0,0,1.259-1.259V1.259a1.259,1.259,0,0,0-2.518,0V6.874a1.259,1.259,0,0,0,1.259,1.259Z" fill="#004fa3"/>
      <path id="Path_12984" data-name="Path 12984" d="M62.66,43.248l-2.224-2.218a4.216,4.216,0,0,0-4.988-.712l-4.191-4.186.2-.2a4.369,4.369,0,0,0,0-6.169,4.321,4.321,0,0,0-2.191-1.185,4.4,4.4,0,0,0,.174-1.225,4.359,4.359,0,0,0-3.468-4.27,4.4,4.4,0,0,0,.174-1.225,4.355,4.355,0,0,0-3.467-4.268,4.357,4.357,0,0,0-4.656-5.56l-8.3-1.572c-1.267-.24-2.848-.4-3.847.512a2.274,2.274,0,0,0-.191.2,4.378,4.378,0,0,0-4.593,1.01,4.331,4.331,0,0,0-1.275,3.086,4.4,4.4,0,0,0,.173,1.225,4.36,4.36,0,0,0-3.467,4.265,4.389,4.389,0,0,0,.174,1.228,4.365,4.365,0,0,0-2.706,6.736,4.362,4.362,0,0,0-1.676,7.217l.2.2L8.327,40.318a4.209,4.209,0,0,0-4.762.825L1.339,43.362a4.205,4.205,0,0,0,0,5.939l2.777,2.774A1.259,1.259,0,1,0,5.9,50.293L3.118,47.519a1.688,1.688,0,0,1,0-2.375l2.225-2.219A1.685,1.685,0,0,1,7.4,42.673a1.269,1.269,0,0,0,.158.194,1.253,1.253,0,0,0,.362.252L20.678,55.862a1.24,1.24,0,0,0,.607.613,1.685,1.685,0,0,1-.07,2.3l-2.223,2.221a1.691,1.691,0,0,1-2.38,0l-2.777-2.777A1.259,1.259,0,1,0,12.054,60l2.779,2.779a4.215,4.215,0,0,0,5.937,0l2.225-2.222a4.209,4.209,0,0,0,.589-5.2L28.3,50.645l.015-.015c.54-.558,2.044-.454,3.5-.353a18.106,18.106,0,0,0,3.312.022l5.166,5.159a4.207,4.207,0,0,0,.714,4.984l2.225,2.222a4.209,4.209,0,0,0,5.938,0L62.661,49.187a4.2,4.2,0,0,0,0-5.939ZM29.253,12.929l5.461,1.034L31.445,17.23a7.936,7.936,0,0,1-1.959-1.424,5.792,5.792,0,0,1-1.853-2.862h0a1.1,1.1,0,0,1-.006-.124,4.266,4.266,0,0,1,1.625.11ZM22.87,13.956a1.857,1.857,0,0,1,2.349-.223,9,9,0,0,0,2.526,3.893,9.323,9.323,0,0,0,3.627,2.247,1.848,1.848,0,0,1-2.824,2.36h0L22.87,16.565a1.854,1.854,0,0,1,0-2.609Zm-3.29,5.493a1.857,1.857,0,0,1,2.616,0l4.572,4.562a1.85,1.85,0,0,1-2.619,2.614h0L20.681,23.16l-.017-.016L19.579,22.06a1.847,1.847,0,0,1,0-2.611Zm-3.3,5.492a1.862,1.862,0,0,1,2.607-.009l3.479,3.477a1.848,1.848,0,0,1-2.618,2.608l-1.261-1.26h0l-2.206-2.2a1.852,1.852,0,0,1,0-2.613Zm-2.193,6.6a1.861,1.861,0,0,1,2.62,0L17.975,32.8a1.848,1.848,0,0,1-2.619,2.607L15.2,35.25l-.006-.006-.007-.007-1.091-1.087a1.849,1.849,0,0,1,0-2.611ZM39.747,45.847a1.259,1.259,0,0,0-1.78,0l-1.12,1.119c-1.064,1.064-2.993.93-4.858.8-2.025-.141-4.119-.286-5.474,1.105L21.878,53.5l-11.6-11.578,4.1-4.1A4.366,4.366,0,0,0,21.031,34.1c0-.011,0-.022,0-.033h.033a4.355,4.355,0,0,0,4.364-4.359c0-.011,0-.022,0-.032h.033a4.35,4.35,0,0,0,4.364-4.392h.034a4.367,4.367,0,0,0,3.726-6.637l3.6-3.6a1.847,1.847,0,0,1,.945-.5c.037,0,.075-.01.111-.017A1.845,1.845,0,0,1,39.8,17.668l-1.1,1.091-.011.01-1.262,1.26a1.259,1.259,0,0,0,1.779,1.781l1.1-1.1h0l.166-.166a1.854,1.854,0,0,1,2.613.006,1.847,1.847,0,0,1,0,2.609l-1.1,1.1h0l-1.262,1.256A1.259,1.259,0,0,0,42.5,27.306l1.267-1.262a1.848,1.848,0,0,1,2.615,2.611l-2.2,2.2a1.259,1.259,0,1,0,1.781,1.78l1.076-1.077.019-.017a1.848,1.848,0,0,1,2.615,2.611l-1.094,1.093h0l-1.737,1.735a1.259,1.259,0,0,0,1.779,1.782l.85-.849,4.072,4.067L41.954,53.56,37.8,49.41a4.95,4.95,0,0,0,.827-.665l1.119-1.118a1.258,1.258,0,0,0,0-1.78Zm21.135,1.559L47.389,60.882a1.692,1.692,0,0,1-2.379,0L42.785,58.66a1.683,1.683,0,0,1,0-2.372L56.278,42.812a1.692,1.692,0,0,1,2.38,0l2.224,2.218a1.688,1.688,0,0,1,0,2.376Z" fill="#004fa3"/>
      <path id="Path_12985" data-name="Path 12985" d="M15.172,7.071a1.259,1.259,0,0,0,1.779-1.782L12.364.711a1.259,1.259,0,0,0-1.779,1.782Z" fill="#004fa3"/>
      <path id="Path_12986" data-name="Path 12986" d="M47.715,7.439a1.255,1.255,0,0,0,.89-.368l4.584-4.578A1.259,1.259,0,0,0,51.409.711L46.826,5.29a1.259,1.259,0,0,0,.89,2.149Z" fill="#004fa3"/>
      <path id="Path_12987" data-name="Path 12987" d="M7.852,54.151a1.259,1.259,0,0,0,.015,1.78l0,0a1.259,1.259,0,1,0-.019-1.784Z" fill="#004fa3"/>
      <path id="Path_12988" data-name="Path 12988" d="M42.826,44.033a1.259,1.259,0,1,0-.566-2.384l-.007,0a1.258,1.258,0,0,0,.573,2.38Z" fill="#004fa3"/>
    </g>
  </g>
</svg>
