<svg xmlns="http://www.w3.org/2000/svg" xmlns:xlink="http://www.w3.org/1999/xlink" width="100" height="100" viewBox="0 0 100 100"><defs><style>.a{fill:url(#a);}.b{clip-path:url(#b);}</style><linearGradient id="a" x1="0.5" x2="0.5" y2="1" gradientUnits="objectBoundingBox"><stop offset="0" stop-color="#005fc5"/><stop offset="1" stop-color="#004fa3"/></linearGradient><clipPath id="b"><rect class="a" width="100" height="100" rx="6" transform="translate(147 40)"/></clipPath></defs><g class="b" transform="translate(-147 -40)"><g transform="translate(145.387 38.387)"><path class="a" d="M70.4,63.973l.8,3.126q1.645-.421,3.2-.923L73.4,63.106C72.432,63.419,71.429,63.71,70.4,63.973Z"/><path class="a" d="M57.95,65.906l.231,3.218q1.65-.119,3.273-.3l-.35-3.206Q59.538,65.792,57.95,65.906Z"/><path class="a" d="M64.232,65.213l.485,3.19q1.652-.252,3.252-.571l-.634-3.163c-1.015.2-2.052.384-3.1.544Z"/><path class="a" d="M57.95,91.713l.231,3.218q1.65-.119,3.273-.3l-.35-3.206Q59.538,91.6,57.95,91.713Z"/><path class="a" d="M64.232,91.019l.485,3.19q1.652-.252,3.252-.571l-.634-3.163c-1.015.2-2.052.384-3.1.544Z"/><path class="a" d="M70.4,89.779l.8,3.126q1.645-.421,3.2-.923L73.4,88.913C72.432,89.226,71.429,89.516,70.4,89.779Z"/><path class="a" d="M45.356,78.81c-1.058-.076-2.111-.171-3.153-.284l-.35,3.206q1.621.177,3.273.3Z"/><path class="a" d="M39.074,78.116q-1.577-.24-3.1-.544l-.634,3.163q1.6.319,3.252.571Z"/><path class="a" d="M32.906,76.876q-1.546-.4-3-.868l-.994,3.069q1.548.5,3.2.923Z"/><path class="a" d="M51.613,56.452c2.311,0,22.581-.181,22.581-6.452s-20.269-6.452-22.581-6.452S29.032,43.729,29.032,50,49.3,56.452,51.613,56.452Zm0-9.677c11.176,0,18.11,1.989,19.266,3.226-1.156,1.237-8.09,3.226-19.266,3.226S33.5,51.237,32.347,50C33.5,48.763,40.437,46.774,51.613,46.774Z"/><path class="a" d="M83.871,50c0-5.742-7.8-9.671-17.742-11.577V1.613H47.719L37.1,12.235V38.423C27.156,40.329,19.355,44.258,19.355,50v4.839H3.226V83.871H19.355V88.71c0,8.381,16.621,12.9,32.258,12.9s32.258-4.523,32.258-12.9V83.871H100V54.839H83.871ZM22.581,68.774c5.585,4.6,17.568,7.032,29.032,7.032s23.447-2.434,29.032-7.032v7.032c0,4.577-11.923,9.677-29.032,9.677s-29.032-5.1-29.032-9.677Zm29.032,3.806c-17.11,0-29.032-5.1-29.032-9.677V55.871c5.585,4.6,17.568,7.032,29.032,7.032s23.447-2.434,29.032-7.032V62.9C80.645,67.481,68.723,72.581,51.613,72.581ZM46.774,7.119V11.29H42.6Zm-6.452,7.4H50V4.839H62.9V37.887a81.04,81.04,0,0,0-22.581,0Zm11.29,25.806c17.11,0,29.032,5.1,29.032,9.677s-11.923,9.677-29.032,9.677S22.581,54.577,22.581,50,34.5,40.323,51.613,40.323ZM6.452,80.645V58.065h12.9V80.645ZM51.613,98.387c-17.11,0-29.032-5.1-29.032-9.677V81.677c5.585,4.6,17.568,7.032,29.032,7.032s23.447-2.434,29.032-7.032V88.71C80.645,93.287,68.723,98.387,51.613,98.387ZM96.774,58.065V80.645h-12.9V58.065Z"/><path class="a" d="M30.645,1.613H12.235L1.613,12.235V37.1H30.645ZM11.29,7.119V11.29H7.119ZM27.419,33.871H4.839V14.516h9.677V4.839h12.9Z"/><path class="a" d="M17.742,8.065h6.452V11.29H17.742Z"/><path class="a" d="M17.742,14.516h6.452v3.226H17.742Z"/><path class="a" d="M8.065,20.968H24.194v3.226H8.065Z"/><path class="a" d="M8.065,27.419H24.194v3.226H8.065Z"/><path class="a" d="M53.226,8.065h6.452V11.29H53.226Z"/><path class="a" d="M53.226,14.516h6.452v3.226H53.226Z"/><path class="a" d="M43.548,20.968H59.677v3.226H43.548Z"/><path class="a" d="M43.548,27.419H59.677v3.226H43.548Z"/><path class="a" d="M83.2,1.613,72.581,12.235V37.1h29.032V1.613Zm-.945,5.506V11.29H78.087ZM98.387,33.871H75.806V14.516h9.677V4.839h12.9Z"/><path class="a" d="M88.71,8.065h6.452V11.29H88.71Z"/><path class="a" d="M88.71,14.516h6.452v3.226H88.71Z"/><path class="a" d="M79.032,20.968H95.161v3.226H79.032Z"/><path class="a" d="M79.032,27.419H95.161v3.226H79.032Z"/><path class="a" d="M87.1,61.29h6.452v3.226H87.1Z"/><path class="a" d="M87.1,67.742h6.452v3.226H87.1Z"/><path class="a" d="M87.1,74.194h6.452v3.226H87.1Z"/><path class="a" d="M9.677,61.29h6.452v3.226H9.677Z"/><path class="a" d="M9.677,67.742h6.452v3.226H9.677Z"/><path class="a" d="M9.677,74.194h6.452v3.226H9.677Z"/></g></g></svg>