<svg xmlns="http://www.w3.org/2000/svg" xmlns:xlink="http://www.w3.org/1999/xlink" width="64" height="64" viewBox="0 0 64 64">
  <defs>
    <clipPath id="clip-path">
      <rect id="Rectangle_191" data-name="Rectangle 191" width="64" height="64" transform="translate(158)" fill="#004fa3"/>
    </clipPath>
  </defs>
  <g id="Mask_Group_37" data-name="Mask Group 37" transform="translate(-158)" clip-path="url(#clip-path)">
    <g id="responsive" transform="translate(158 0)">
      <g id="Group_3803" data-name="Group 3803">
        <g id="Group_3802" data-name="Group 3802">
          <path id="Path_12868" data-name="Path 12868" d="M60.8,32H59.733V9.6A5.34,5.34,0,0,0,54.4,4.267H9.6A5.34,5.34,0,0,0,4.267,9.6v16H3.2A3.2,3.2,0,0,0,0,28.8V56.533a3.2,3.2,0,0,0,3.2,3.2H43.733A1.067,1.067,0,0,0,44.8,58.667a5.34,5.34,0,0,0-5.333-5.333h-3.2v-6.4h12.8v9.6a3.2,3.2,0,0,0,3.2,3.2H60.8a3.2,3.2,0,0,0,3.2-3.2V35.2A3.2,3.2,0,0,0,60.8,32ZM23.467,56.533A1.067,1.067,0,0,1,22.4,57.6H3.2a1.067,1.067,0,0,1-1.067-1.067V55.467H23.467Zm0-3.2H2.133V28.8A1.067,1.067,0,0,1,3.2,27.733H22.4A1.067,1.067,0,0,1,23.467,28.8Zm16,2.133A3.206,3.206,0,0,1,42.484,57.6H25.4a3.163,3.163,0,0,0,.2-1.067V55.467ZM25.6,53.333v-6.4h2.133v6.4Zm4.267,0v-6.4h4.267v6.4Zm19.2-8.533H25.6V38.4H49.067Zm0-9.6v1.067H25.6V28.8a3.162,3.162,0,0,0-.365-1.452c.016-.015.037-.019.052-.035l10.56-10.56a1.067,1.067,0,0,0-1.508-1.508L23.779,25.8c-.026.027-.036.061-.059.089A3.16,3.16,0,0,0,22.4,25.6H6.4V9.6A3.2,3.2,0,0,1,9.6,6.4H54.4a3.2,3.2,0,0,1,3.2,3.2V32H52.267A3.2,3.2,0,0,0,49.067,35.2Zm12.8,21.333A1.067,1.067,0,0,1,60.8,57.6H52.267A1.067,1.067,0,0,1,51.2,56.533V55.467H61.867Zm0-3.2H51.2V35.2a1.067,1.067,0,0,1,1.067-1.067H60.8A1.067,1.067,0,0,1,61.867,35.2Z" fill="#004fa3"/>
        </g>
      </g>
      <g id="Group_3805" data-name="Group 3805">
        <g id="Group_3804" data-name="Group 3804">
          <path id="Path_12869" data-name="Path 12869" d="M12.746,38.583a1.067,1.067,0,0,0-1.508,0L6.713,43.108a1.067,1.067,0,0,0,1.482,1.534l.026-.026,4.525-4.525C12.936,39.762,12.553,39.134,12.746,38.583Z" fill="#004fa3"/>
        </g>
      </g>
      <g id="Group_3807" data-name="Group 3807">
        <g id="Group_3806" data-name="Group 3806">
          <path id="Path_12870" data-name="Path 12870" d="M19.119,38.583a1.067,1.067,0,0,0-1.482,0l-4.525,4.525a1.067,1.067,0,0,0,1.482,1.534l.026-.026,4.525-4.525A1.067,1.067,0,0,0,19.119,38.583Z" fill="#004fa3"/>
        </g>
      </g>
      <g id="Group_3809" data-name="Group 3809">
        <g id="Group_3808" data-name="Group 3808">
          <path id="Path_12871" data-name="Path 12871" d="M42.328,15.246a1.067,1.067,0,0,0-1.482,0l-10.56,10.56a1.067,1.067,0,0,0,1.482,1.535l.026-.026,10.56-10.56A1.067,1.067,0,0,0,42.328,15.246Z" fill="#004fa3"/>
        </g>
      </g>
      <g id="Group_3811" data-name="Group 3811">
        <g id="Group_3810" data-name="Group 3810">
          <path id="Path_12872" data-name="Path 12872" d="M58.77,41.471a1.067,1.067,0,0,0-1.482,0l-3.017,3.017a1.067,1.067,0,0,0,1.482,1.534L55.779,46,58.8,42.979A1.067,1.067,0,0,0,58.77,41.471Z" fill="#004fa3"/>
        </g>
      </g>
      <g id="Group_3813" data-name="Group 3813">
        <g id="Group_3812" data-name="Group 3812">
          <path id="Path_12873" data-name="Path 12873" d="M32.021,40.533h-.011a1.072,1.072,0,1,0,.011,0Z" fill="#004fa3"/>
        </g>
      </g>
      <g id="Group_3815" data-name="Group 3815">
        <g id="Group_3814" data-name="Group 3814">
          <path id="Path_12874" data-name="Path 12874" d="M34.133,8.533H29.867a1.067,1.067,0,1,0,0,2.133h4.267a1.067,1.067,0,0,0,0-2.133Z" fill="#004fa3"/>
        </g>
      </g>
    </g>
  </g>
</svg>
