<svg xmlns="http://www.w3.org/2000/svg" xmlns:xlink="http://www.w3.org/1999/xlink" width="64" height="64" viewBox="0 0 64 64">
  <defs>
    <clipPath id="clip-path">
      <rect id="Rectangle_191" data-name="Rectangle 191" width="64" height="64" transform="translate(193 70)" fill="#004fa3"/>
    </clipPath>
  </defs>
  <g id="Mask_Group_48" data-name="Mask Group 48" transform="translate(-193 -70)" clip-path="url(#clip-path)">
    <g id="Saas" transform="translate(193 70)">
      <path id="Path_12969" data-name="Path 12969" d="M44.387,16.516H19.613a2.067,2.067,0,0,0-2.065,2.065v6.194a2.058,2.058,0,0,0,1.032,1.778V29.19a2.058,2.058,0,0,0-1.032,1.778v6.194a2.058,2.058,0,0,0,1.032,1.778v2.638a2.058,2.058,0,0,0-1.032,1.778v6.194a2.058,2.058,0,0,0,1.032,1.778v2.638a2.058,2.058,0,0,0-1.032,1.778v6.194A2.067,2.067,0,0,0,19.613,64H44.387a2.067,2.067,0,0,0,2.065-2.065V55.742a2.058,2.058,0,0,0-1.032-1.778V51.326a2.058,2.058,0,0,0,1.032-1.778V43.355a2.058,2.058,0,0,0-1.032-1.778V38.939a2.058,2.058,0,0,0,1.032-1.778V30.968a2.058,2.058,0,0,0-1.032-1.778V26.552a2.058,2.058,0,0,0,1.032-1.778V18.581a2.067,2.067,0,0,0-2.065-2.065ZM19.613,18.581H44.387v6.194H19.613Zm1.032,35.1V51.613h22.71v2.065Zm-1.032-4.129V43.355H44.387v6.194Zm1.032-8.258V39.226h22.71V41.29Zm-1.032-4.129V30.968H44.387v6.194ZM20.645,28.9V26.839h22.71V28.9ZM19.613,61.935V55.742H44.387v6.194Zm0,0" fill="#004fa3"/>
      <path id="Path_12970" data-name="Path 12970" d="M9.29,47.484h2.065v2.065H9.29Zm0,0" fill="#004fa3"/>
      <path id="Path_12971" data-name="Path 12971" d="M9.29,51.613h2.065v2.065H9.29Zm0,0" fill="#004fa3"/>
      <path id="Path_12972" data-name="Path 12972" d="M52.645,47.484H54.71v2.065H52.645Zm0,0" fill="#004fa3"/>
      <path id="Path_12973" data-name="Path 12973" d="M54.71,41.29H58a3.1,3.1,0,1,0,0-2.065H54.71V30.968h1.032A8.253,8.253,0,0,0,57.794,14.72c0-.09.013-.177.013-.268a12.38,12.38,0,0,0-21.666-8.2,15.447,15.447,0,0,0-27.83,8.2c-.017,0-.035,0-.052,0a8.258,8.258,0,0,0,0,16.516H9.29v8.258H6A3.1,3.1,0,1,0,6,41.29H9.29v4.129h2.065v-9.29h2.065V59.871H11.355V55.742H9.29v4.129H6a3.1,3.1,0,1,0,0,2.065h7.416V64h2.065V26.839H13.419v7.226H11.355V28.9h-3.1a6.194,6.194,0,1,1,4.424-10.528l1.475-1.444a8.182,8.182,0,0,0-3.8-2.2,13.411,13.411,0,0,1,26.665-1.164l2.043-.292a15.286,15.286,0,0,0-1.742-5.2,10.307,10.307,0,0,1,18.415,6.379,8.2,8.2,0,0,0-5.9,2.479l1.475,1.444A6.194,6.194,0,1,1,55.742,28.9h-3.1v5.161H50.581V26.839H48.516V64h2.065V61.935H58a3.1,3.1,0,1,0,0-2.065H54.71V55.742H52.645v4.129H50.581V36.129h2.065v9.29H54.71ZM60.9,39.226a1.032,1.032,0,1,1-1.032,1.032A1.034,1.034,0,0,1,60.9,39.226ZM3.1,41.29a1.032,1.032,0,1,1,1.032-1.032A1.034,1.034,0,0,1,3.1,41.29Zm0,20.645A1.032,1.032,0,1,1,4.129,60.9,1.034,1.034,0,0,1,3.1,61.935ZM60.9,59.871A1.032,1.032,0,1,1,59.871,60.9,1.034,1.034,0,0,1,60.9,59.871Zm0,0" fill="#004fa3"/>
      <path id="Path_12974" data-name="Path 12974" d="M52.645,51.613H54.71v2.065H52.645Zm0,0" fill="#004fa3"/>
      <path id="Path_12975" data-name="Path 12975" d="M21.677,20.645h2.065V22.71H21.677Zm0,0" fill="#004fa3"/>
      <path id="Path_12976" data-name="Path 12976" d="M25.806,20.645h2.065V22.71H25.806Zm0,0" fill="#004fa3"/>
      <path id="Path_12977" data-name="Path 12977" d="M36.129,33.032h2.065V35.1H36.129Zm0,0" fill="#004fa3"/>
      <path id="Path_12978" data-name="Path 12978" d="M40.258,33.032h2.065V35.1H40.258Zm0,0" fill="#004fa3"/>
      <path id="Path_12979" data-name="Path 12979" d="M20.645,45.419H22.71v2.065H20.645Zm0,0" fill="#004fa3"/>
      <path id="Path_12980" data-name="Path 12980" d="M24.774,45.419h2.065v2.065H24.774Zm0,0" fill="#004fa3"/>
      <path id="Path_12981" data-name="Path 12981" d="M36.129,57.806h2.065v2.065H36.129Zm0,0" fill="#004fa3"/>
      <path id="Path_12982" data-name="Path 12982" d="M40.258,57.806h2.065v2.065H40.258Zm0,0" fill="#004fa3"/>
    </g>
  </g>
</svg>
