<svg xmlns="http://www.w3.org/2000/svg" width="65.364" height="64" viewBox="0 0 65.364 64">
  <g id="reduce" transform="translate(0 -5.3)">
    <g id="Group_3818" data-name="Group 3818" transform="translate(10.847 5.3)">
      <g id="Group_3817" data-name="Group 3817" transform="translate(0 0)">
        <path id="Path_12937" data-name="Path 12937" d="M131.431,26.08v3.77L118.783,17.2,108.245,27.753,85.793,5.3,84.3,6.793l23.945,23.932,10.538-10.538,11.168,11.156h-3.783v2.11h7.373V26.08Z" transform="translate(-84.3 -5.3)" fill="#004fa3"/>
      </g>
    </g>
    <g id="Group_3820" data-name="Group 3820" transform="translate(0 20.805)">
      <g id="Group_3819" data-name="Group 3819" transform="translate(0 0)">
        <path id="Path_12938" data-name="Path 12938" d="M63.254,172.185V157.427H52.716v14.758h-2.11V140.558H40.068v31.627h-2.11v-25.3H27.407v25.3H25.3V132.131H14.758V172.2h-2.11V125.8H2.11v46.385H0v2.11H65.364v-2.11Zm-52.7,0H4.22V127.91h6.331Zm12.648,0H16.869V134.228H23.2Zm12.648.013H29.517V149h6.331Zm12.648-.013H42.165V142.669H48.5Zm12.661,0H54.826V159.537h6.331Z" transform="translate(0 -125.8)" fill="#004fa3"/>
      </g>
    </g>
  </g>
</svg>
