<svg xmlns="http://www.w3.org/2000/svg" xmlns:xlink="http://www.w3.org/1999/xlink" width="64" height="64" viewBox="0 0 64 64"><defs><style>.a{fill:#004fa3;}.b{clip-path:url(#a);}</style><clipPath id="a"><rect class="a" width="64" height="64" transform="translate(193 70)"/></clipPath></defs><g class="b" transform="translate(-193 -70)"><g transform="translate(191.968 68.968)"><path class="a" d="M59.581,11.4a7.223,7.223,0,0,0-8.82-4.96A9.284,9.284,0,0,0,33.1,11.437a6.182,6.182,0,0,0-3.641,1.982H6.194a5.167,5.167,0,0,0-5.161,5.161v28.9a5.167,5.167,0,0,0,5.161,5.161H18.975L16.91,56.774H15.484a5.167,5.167,0,0,0-5.161,5.161v3.1H47.484v-3.1a5.167,5.167,0,0,0-5.161-5.161H40.9l-2.065-4.129H51.613a5.167,5.167,0,0,0,5.161-5.161V23.742h2.065A6.191,6.191,0,0,0,59.581,11.4ZM39.2,23.742a5.148,5.148,0,1,1-7.726-.576,6.139,6.139,0,0,0,2.592.576H39.2ZM35.1,34.065a7.221,7.221,0,0,0,6.526-10.323h4.829v5.387l-2.012.5-.551.212-.481,1.176,1.338,2.229-3.239,3.24L39.278,35.15l-1.259.512-.632,2.531H32.806l-.5-2.012-.21-.552-1.179-.479-2.228,1.338-3.239-3.24,1.338-2.229L26.27,29.76l-2.528-.631V24.548l2.525-.631.519-1.259-1.338-2.229.815-.817h1.969a6.194,6.194,0,0,0,1.523,2.374,7.159,7.159,0,0,0-1.884,4.852A7.234,7.234,0,0,0,35.1,34.065ZM24.171,22.313l-2.494.622v7.806l2.494.622-1.322,2.2,5.519,5.518,2.2-1.322.622,2.493H39l.622-2.494,2.2,1.322,5.519-5.518-1.322-2.2,2.494-.621v-7h2.065v22.71H7.226V19.613H23.345l-.5.5ZM45.419,61.935v1.032H12.387V61.935a3.1,3.1,0,0,1,3.1-3.1H42.323A3.1,3.1,0,0,1,45.419,61.935Zm-6.831-5.161H19.219l2.065-4.129h15.24Zm16.122-9.29a3.1,3.1,0,0,1-3.1,3.1H6.194a3.1,3.1,0,0,1-3.1-3.1v-28.9a3.1,3.1,0,0,1,3.1-3.1H28.232a6.168,6.168,0,0,0-.361,2.065H7.226a2.067,2.067,0,0,0-2.065,2.065V46.452a2.067,2.067,0,0,0,2.065,2.065H50.581a2.067,2.067,0,0,0,2.065-2.065V23.742H54.71Zm4.129-25.806H34.065a4.129,4.129,0,1,1,4.129-4.129h2.065A6.2,6.2,0,0,0,35.2,11.463a7.219,7.219,0,0,1,13.987-3.4l.354,1.08,1.041-.455a5.147,5.147,0,0,1,6.857,2.829,6.2,6.2,0,0,0-4.791,6.027H54.71a4.129,4.129,0,1,1,4.129,4.129Z"/><path class="a" d="M32,26.839a3.1,3.1,0,1,0,3.1-3.1A3.1,3.1,0,0,0,32,26.839Zm3.1-1.032a1.032,1.032,0,1,1-1.032,1.032A1.033,1.033,0,0,1,35.1,25.806Z"/><path class="a" d="M9.29,21.677h2.065v2.065H9.29Z"/><path class="a" d="M13.419,21.677h2.065v2.065H13.419Z"/><path class="a" d="M17.548,21.677h2.065v2.065H17.548Z"/><path class="a" d="M9.29,25.806H19.613v2.065H9.29Z"/><path class="a" d="M9.29,29.935H19.613V32H9.29Z"/><path class="a" d="M9.29,34.065H19.613v2.065H9.29Z"/><path class="a" d="M9.29,38.194H19.613v2.065H9.29Z"/><path class="a" d="M9.29,42.323H27.871v2.065H9.29Z"/><path class="a" d="M29.935,42.323H32v2.065H29.935Z"/><path class="a" d="M34.065,42.323h2.065v2.065H34.065Z"/></g></g></svg>