<svg xmlns="http://www.w3.org/2000/svg" xmlns:xlink="http://www.w3.org/1999/xlink" width="64" height="64" viewBox="0 0 64 64">
  <defs>
    <linearGradient id="linear-gradient" x1="0.5" x2="0.5" y2="1" gradientUnits="objectBoundingBox">
      <stop offset="0" stop-color="#005fc5"/>
      <stop offset="1" stop-color="#004fa3"/>
    </linearGradient>
  </defs>
  <g id="Group_3801" data-name="Group 3801" transform="translate(-193 -53.49)">
    <g id="multi-cloud" transform="translate(193 53.49)">
      <path id="Path_7280" data-name="Path 7280" d="M146.351,295.565V279.2a1.021,1.021,0,0,0-1.021-1.021h-6.809a1.021,1.021,0,1,0,0,2.043h5.787v15.347a4.426,4.426,0,1,0,2.043,0Zm-1.021,6.688a2.383,2.383,0,1,1,2.383-2.383A2.386,2.386,0,0,1,145.33,302.253Z" transform="translate(-118.777 -240.296)" fill="url(#linear-gradient)"/>
      <path id="Path_7281" data-name="Path 7281" d="M226.352,295.565V279.2a1.021,1.021,0,0,0-1.021-1.021h-6.808a1.021,1.021,0,0,0,0,2.043h5.787v15.347a4.426,4.426,0,1,0,2.043,0Zm-1.021,6.688a2.383,2.383,0,1,1,2.383-2.383A2.386,2.386,0,0,1,225.331,302.253Z" transform="translate(-187.884 -240.296)" fill="url(#linear-gradient)"/>
      <path id="Path_7282" data-name="Path 7282" d="M312.819,288.636a4.432,4.432,0,0,0-4.305,3.4h-2.163V279.2a1.021,1.021,0,0,0-1.021-1.021h-6.809a1.021,1.021,0,1,0,0,2.043h5.787v12.844a1.021,1.021,0,0,0,1.021,1.021h3.184a4.425,4.425,0,1,0,4.305-5.447Zm0,6.809a2.383,2.383,0,1,1,2.383-2.383A2.386,2.386,0,0,1,312.819,295.445Z" transform="translate(-256.989 -240.296)" fill="url(#linear-gradient)"/>
      <path id="Path_7283" data-name="Path 7283" d="M61.568,22a11.086,11.086,0,0,0-5.326-3.621A19.334,19.334,0,0,0,20.447,9.231,8.829,8.829,0,0,0,9.177,15.785a12.266,12.266,0,0,0,3.089,24.137h2.373V51.745H12.476a4.426,4.426,0,1,0,0,2.043H15.66a1.021,1.021,0,0,0,1.021-1.021V38.9a1.021,1.021,0,0,0-1.021-1.021H12.265a10.223,10.223,0,0,1-2-20.249,1.021,1.021,0,0,0,.814-.869,6.782,6.782,0,0,1,9.412-5.337,1.021,1.021,0,0,0,1.3-.443,17.292,17.292,0,0,1,32.431,8.193,1.021,1.021,0,0,0,.791.986,8.976,8.976,0,0,1-2.032,17.719h-.556a1.021,1.021,0,0,0,0,2.043h.556A11.018,11.018,0,0,0,61.568,22ZM8.17,55.149a2.383,2.383,0,1,1,2.383-2.383A2.386,2.386,0,0,1,8.17,55.149Z" fill="url(#linear-gradient)"/>
      <path id="Path_7284" data-name="Path 7284" d="M353.668,106.905h.009a1.021,1.021,0,0,0,1.012-1.031,13.743,13.743,0,0,0-.944-4.893,1.021,1.021,0,0,0-1.9.743,11.7,11.7,0,0,1,.8,4.168,1.021,1.021,0,0,0,1.021,1.012Z" transform="translate(-303.872 -86.67)" fill="url(#linear-gradient)"/>
      <path id="Path_7285" data-name="Path 7285" d="M273.879,46.367a1.021,1.021,0,1,0,1.575-1.3A13.853,13.853,0,0,0,264.748,40a1.021,1.021,0,0,0,0,2.043A11.818,11.818,0,0,1,273.879,46.367Z" transform="translate(-227.815 -34.553)" fill="url(#linear-gradient)"/>
    </g>
  </g>
</svg>
