<svg id="fully-custom" xmlns="http://www.w3.org/2000/svg" xmlns:xlink="http://www.w3.org/1999/xlink" width="64" height="64" viewBox="0 0 64 64">
  <defs>
    <linearGradient id="linear-gradient" x1="0.5" x2="0.5" y2="1" gradientUnits="objectBoundingBox">
      <stop offset="0" stop-color="#005fc5"/>
      <stop offset="1" stop-color="#004fa3"/>
    </linearGradient>
  </defs>
  <path id="Path_7250" data-name="Path 7250" d="M.45,5.937,4.716,13.4a1.065,1.065,0,0,0,.666.505l3.979.995L23.008,28.547l1.508-1.507L10.655,13.179a1.063,1.063,0,0,0-.495-.281l-3.823-.959L2.706,5.581,5.819,2.468,12.18,6.1l.96,3.823a1.063,1.063,0,0,0,.28.5L27.281,24.282l1.508-1.508L15.141,9.127l-.995-3.977a1.068,1.068,0,0,0-.505-.668L6.177.219A1.066,1.066,0,0,0,4.9.39L.633,4.655A1.066,1.066,0,0,0,.45,5.937Zm0,0" transform="translate(-0.31 -0.07)" fill="url(#linear-gradient)"/>
  <path id="Path_7251" data-name="Path 7251" d="M198.946,175.227l-23.457,23.456-1.508-1.508,23.457-23.456Zm0,0" transform="translate(-154.477 -154.214)" fill="url(#linear-gradient)"/>
  <path id="Path_7252" data-name="Path 7252" d="M59.329,399.353a1.066,1.066,0,0,0-.914-.517h-6.4a1.065,1.065,0,0,0-.914.517l-3.2,5.331a1.066,1.066,0,0,0,0,1.1l3.2,5.331a1.066,1.066,0,0,0,.914.517h6.4a1.067,1.067,0,0,0,.914-.517l3.2-5.331a1.066,1.066,0,0,0,0-1.1ZM57.812,409.5H52.621l-2.559-4.264,2.559-4.265h5.191l2.559,4.265Zm0,0" transform="translate(-42.422 -354.054)" fill="url(#linear-gradient)"/>
  <path id="Path_7253" data-name="Path 7253" d="M51.452,25.59A12.75,12.75,0,0,0,63.854,9.7a1.066,1.066,0,0,0-1.788-.5L55.429,15.84l-5.266-1.755L48.407,8.821l6.637-6.638a1.066,1.066,0,0,0-.5-1.789A12.755,12.755,0,0,0,38.657,12.8a12.514,12.514,0,0,0,.259,2.5L15.566,38.643a12.579,12.579,0,0,0-2.5-.259A12.794,12.794,0,1,0,25.863,51.179a12.546,12.546,0,0,0-.259-2.5l5.59-5.59,2.445,2.445a1.067,1.067,0,0,0,1.508,0L35.679,45a1.2,1.2,0,0,1,1.693,1.689l0,0-.533.533a1.066,1.066,0,0,0,0,1.507L49.556,61.452A8.605,8.605,0,1,0,61.781,49.338l-.055-.055L49.007,36.564a1.066,1.066,0,0,0-1.508,0l-.533.533a1.2,1.2,0,0,1-1.693-1.689l0,0,.533-.533a1.066,1.066,0,0,0,0-1.507l-2.445-2.445,5.59-5.59a12.546,12.546,0,0,0,2.5.259Zm4.189,36.25a6.479,6.479,0,0,1-2.268-.414L61.7,53.1a6.466,6.466,0,0,1-6.059,8.741ZM43.562,34.13a3.327,3.327,0,0,0,4.691,4.685L60.218,50.79c.13.13.251.268.369.407l-9.116,9.116c-.14-.117-.277-.239-.407-.369L39.089,47.969A3.328,3.328,0,0,0,34.4,43.284l-1.706-1.706,9.164-9.15Zm4.305-10.723L23.68,47.589A1.068,1.068,0,0,0,23.4,48.6a10.733,10.733,0,1,1-7.753-7.754,1.076,1.076,0,0,0,1.013-.281L40.84,16.385a1.065,1.065,0,0,0,.28-1.013A10.61,10.61,0,0,1,52.058,2.152L46.433,7.778a1.065,1.065,0,0,0-.258,1.09l2.132,6.4a1.067,1.067,0,0,0,.675.674l6.4,2.132a1.066,1.066,0,0,0,1.09-.257l5.624-5.624c.013.2.019.4.019.605a10.607,10.607,0,0,1-13.239,10.33,1.067,1.067,0,0,0-1.013.28h.006Zm0,0" transform="translate(-0.274 0)" fill="url(#linear-gradient)"/>
  <path id="Path_7254" data-name="Path 7254" d="M395.06,393.286l-1.508,1.508L382.89,384.133l1.508-1.508Zm0,0" transform="translate(-339.928 -339.663)" fill="url(#linear-gradient)"/>
</svg>
