<svg xmlns="http://www.w3.org/2000/svg" width="64" height="64.004" viewBox="0 0 64 64.004">
  <g id="_013-cable" data-name="013-cable" transform="translate(0 0.002)">
    <path id="Path_8099" data-name="Path 8099" d="M40.5,22.146c-.033.02-.071.025-.1.049l-2,1.5a1,1,0,0,0,1.2,1.6l.069-.052a7.995,7.995,0,0,1-13.893,2.781,1,1,0,1,0-1.554,1.258,9.988,9.988,0,0,0,17.433-3.743l.044.059a1,1,0,0,0,1.6-1.2l-1.5-2c-.015-.02-.036-.028-.052-.046a.993.993,0,0,0-.153-.137,1.143,1.143,0,0,0-.151-.1,1.039,1.039,0,0,0-.178-.062.938.938,0,0,0-.195-.04c-.024,0-.046-.014-.07-.014a1.1,1.1,0,0,0-.117.023,1,1,0,0,0-.194.039,1.043,1.043,0,0,0-.187.091Z" fill="#004fa3"/>
    <path id="Path_8100" data-name="Path 8100" d="M22.2,23.6h0c.013.017.032.022.046.038a.945.945,0,0,0,.241.2c.026.017.045.046.072.06.008,0,.017,0,.024.006A.98.98,0,0,0,23,24h0a1.011,1.011,0,0,0,.311-.05c.01,0,.017-.01.025-.013s.011-.007.017-.009a.88.88,0,0,0,.11-.057A.927.927,0,0,0,23.6,23.8l0,0,2-1.5a1,1,0,0,0-1.2-1.6l-.067.051A7.995,7.995,0,0,1,38.219,17.97a1,1,0,1,0,1.554-1.258A9.989,9.989,0,0,0,22.341,20.45L22.3,20.4a1,1,0,1,0-1.6,1.2Z" fill="#004fa3"/>
    <path id="Path_8101" data-name="Path 8101" d="M48.99,47,49,47A15.017,15.017,0,0,0,64,32V26A15.05,15.05,0,0,0,49.88,11.053,19.978,19.978,0,0,0,12.25,17H12A12.013,12.013,0,0,0,0,29v6A12.014,12.014,0,0,0,12,47H29v5a1,1,0,0,0-1,1v3H25a1,1,0,0,0-1,1H1a1,1,0,0,0,0,2H24v2H1a1,1,0,0,0,0,2H24a1,1,0,0,0,1,1H39a1,1,0,0,0,1-1H63a1,1,0,0,0,0-2H40V59H63a1,1,0,0,0,0-2H40a1,1,0,0,0-1-1H36V53a1,1,0,0,0-1-1V47ZM12,19h.051c-.017.334-.051.662-.051,1a1,1,0,0,0,2,0,18,18,0,1,1,36,0,1,1,0,0,0,2,0,20.041,20.041,0,0,0-.448-4.228,19.648,19.648,0,0,0-.78-2.631A12.99,12.99,0,0,1,49,39H12a10,10,0,0,1,0-20ZM12,45a10.006,10.006,0,0,1-9.966-9.331A12,12,0,0,0,12,41H49a14.994,14.994,0,0,0,12.886-7.36A13.014,13.014,0,0,1,49.008,45L49,45H35V44h1a1,1,0,0,0,0-2H34.02c-.007,0-.013,0-.02,0s-.013,0-.02,0H30.02c-.007,0-.013,0-.02,0s-.013,0-.02,0H28a1,1,0,0,0,0,2h1v1ZM38,62H26V58h3a1,1,0,0,0,1-1V54h4v3a1,1,0,0,0,1,1h3ZM31,52V44h2v8Z" fill="#004fa3"/>
  </g>
</svg>
