<svg xmlns="http://www.w3.org/2000/svg" width="64" height="56.004" viewBox="0 0 64 56.004">
  <g id="_045-computer" data-name="045-computer" transform="translate(0 -3.998)">
    <path id="Path_8102" data-name="Path 8102" d="M24.03,38h-.01a1.006,1.006,0,1,0,.01,0Z" fill="#004fa3"/>
    <path id="Path_8103" data-name="Path 8103" d="M6.293,37.295l-2,2a1,1,0,0,0,1.414,1.414l2-2a1,1,0,1,0-1.414-1.414Z" fill="#004fa3"/>
    <path id="Path_8104" data-name="Path 8104" d="M11.293,37.295l-2,2a1,1,0,0,0,1.414,1.414l2-2a1,1,0,1,0-1.414-1.414Z" fill="#004fa3"/>
    <path id="Path_8105" data-name="Path 8105" d="M16.293,37.295l-2,2a1,1,0,0,0,1.414,1.414l2-2a1,1,0,0,0-1.414-1.414Z" fill="#004fa3"/>
    <path id="Path_8106" data-name="Path 8106" d="M24.03,46h-.01a1.005,1.005,0,1,0,.01,0Z" fill="#004fa3"/>
    <path id="Path_8107" data-name="Path 8107" d="M6.293,45.295l-2,2a1,1,0,0,0,1.414,1.414l2-2A1,1,0,1,0,6.293,45.3Z" fill="#004fa3"/>
    <path id="Path_8108" data-name="Path 8108" d="M11.293,45.295l-2,2a1,1,0,0,0,1.414,1.414l2-2a1,1,0,1,0-1.414-1.414Z" fill="#004fa3"/>
    <path id="Path_8109" data-name="Path 8109" d="M16.293,45.295l-2,2a1,1,0,0,0,1.414,1.414l2-2a1,1,0,0,0-1.414-1.414Z" fill="#004fa3"/>
    <path id="Path_8110" data-name="Path 8110" d="M24.03,56a1,1,0,0,0,0-2h-.01a1,1,0,0,0,.01,2Z" fill="#004fa3"/>
    <path id="Path_8111" data-name="Path 8111" d="M1,60H27a1,1,0,0,0,1-1V35c0-.04-.019-.074-.022-.112a1.032,1.032,0,0,0-.04-.2.972.972,0,0,0-.089-.187,1.058,1.058,0,0,0-.049-.1l-3-4c-.015-.019-.036-.028-.051-.046a1.1,1.1,0,0,0-.153-.137,1,1,0,0,0-.153-.1,1.081,1.081,0,0,0-.171-.06.966.966,0,0,0-.206-.042c-.022,0-.042-.013-.065-.013H4c-.024,0-.045.012-.069.014a.886.886,0,0,0-.2.04.97.97,0,0,0-.179.062.915.915,0,0,0-.148.1.982.982,0,0,0-.156.139c-.015.018-.036.026-.051.045l-3,4a1.067,1.067,0,0,0-.049.1,1.026,1.026,0,0,0-.089.186,1.058,1.058,0,0,0-.04.2A1.077,1.077,0,0,0,0,35V59a1,1,0,0,0,1,1ZM4.5,32h19L25,34H3ZM2,44H26v6H2Zm0-8H26v6H2ZM26,58H2V52H26Z" fill="#004fa3"/>
    <path id="Path_8112" data-name="Path 8112" d="M5,57a1,1,0,0,0,.707-.293l2-2a1,1,0,1,0-1.414-1.414l-2,2A1,1,0,0,0,5,57Z" fill="#004fa3"/>
    <path id="Path_8113" data-name="Path 8113" d="M10,57a1,1,0,0,0,.707-.293l2-2A1,1,0,1,0,11.293,53.3l-2,2A1,1,0,0,0,10,57Z" fill="#004fa3"/>
    <path id="Path_8114" data-name="Path 8114" d="M15,57a1,1,0,0,0,.707-.293l2-2a1,1,0,1,0-1.414-1.414l-2,2A1,1,0,0,0,15,57Z" fill="#004fa3"/>
    <path id="Path_8115" data-name="Path 8115" d="M60.03,38h-.01a1.006,1.006,0,1,0,.01,0Z" fill="#004fa3"/>
    <path id="Path_8116" data-name="Path 8116" d="M42.293,37.295l-2,2a1,1,0,0,0,1.414,1.414l2-2a1,1,0,1,0-1.414-1.414Z" fill="#004fa3"/>
    <path id="Path_8117" data-name="Path 8117" d="M47.293,37.295l-2,2a1,1,0,0,0,1.414,1.414l2-2a1,1,0,0,0-1.414-1.414Z" fill="#004fa3"/>
    <path id="Path_8118" data-name="Path 8118" d="M52.293,37.295l-2,2a1,1,0,0,0,1.414,1.414l2-2a1,1,0,0,0-1.414-1.414Z" fill="#004fa3"/>
    <path id="Path_8119" data-name="Path 8119" d="M60.03,46h-.01a1.005,1.005,0,1,0,.01,0Z" fill="#004fa3"/>
    <path id="Path_8120" data-name="Path 8120" d="M42.293,45.295l-2,2a1,1,0,0,0,1.414,1.414l2-2A1,1,0,1,0,42.293,45.3Z" fill="#004fa3"/>
    <path id="Path_8121" data-name="Path 8121" d="M47.293,45.295l-2,2a1,1,0,0,0,1.414,1.414l2-2A1,1,0,1,0,47.293,45.3Z" fill="#004fa3"/>
    <path id="Path_8122" data-name="Path 8122" d="M52.293,45.295l-2,2a1,1,0,0,0,1.414,1.414l2-2A1,1,0,1,0,52.293,45.3Z" fill="#004fa3"/>
    <path id="Path_8123" data-name="Path 8123" d="M60.03,56a1,1,0,0,0,0-2h-.01a1,1,0,0,0,.01,2Z" fill="#004fa3"/>
    <path id="Path_8124" data-name="Path 8124" d="M41,57a1,1,0,0,0,.707-.293l2-2A1,1,0,1,0,42.293,53.3l-2,2A1,1,0,0,0,41,57Z" fill="#004fa3"/>
    <path id="Path_8125" data-name="Path 8125" d="M46,57a1,1,0,0,0,.707-.293l2-2a1,1,0,0,0-1.414-1.414l-2,2A1,1,0,0,0,46,57Z" fill="#004fa3"/>
    <path id="Path_8126" data-name="Path 8126" d="M51,57a1,1,0,0,0,.707-.293l2-2A1,1,0,1,0,52.293,53.3l-2,2A1,1,0,0,0,51,57Z" fill="#004fa3"/>
    <path id="Path_8127" data-name="Path 8127" d="M63.938,34.69a.972.972,0,0,0-.089-.187,1.06,1.06,0,0,0-.049-.1l-3-4c-.015-.019-.036-.028-.051-.045a1.446,1.446,0,0,0-.306-.241,1.437,1.437,0,0,0-.377-.1c-.022,0-.042-.013-.065-.013H40c-.024,0-.045.012-.069.014a.886.886,0,0,0-.2.04.97.97,0,0,0-.179.062.915.915,0,0,0-.148.1.982.982,0,0,0-.156.139c-.015.018-.036.026-.051.045l-3,4a1.067,1.067,0,0,0-.049.1,1.026,1.026,0,0,0-.089.186,1.058,1.058,0,0,0-.04.2A1.149,1.149,0,0,0,36,35V59a1,1,0,0,0,1,1H63a1,1,0,0,0,1-1V35c0-.04-.019-.074-.022-.112a1.042,1.042,0,0,0-.04-.2ZM40.5,32h19L61,34H39ZM38,36H62v6H38Zm0,8H62v6H38ZM62,58H38V52H62Z" fill="#004fa3"/>
    <path id="Path_8128" data-name="Path 8128" d="M10.021,27a1,1,0,0,0,2,0v-8.99H15a1,1,0,0,0,0-2H11a1,1,0,0,0-1,1,1.133,1.133,0,0,0,.023.116Z" fill="#004fa3"/>
    <path id="Path_8129" data-name="Path 8129" d="M49,18.012h3V27a1,1,0,0,0,2,0v-9.99a1,1,0,0,0-1-1H49a1,1,0,0,0,0,2Z" fill="#004fa3"/>
    <path id="Path_8130" data-name="Path 8130" d="M23,23.985H40A7,7,0,0,0,41.205,10.1a9.995,9.995,0,0,0-19.01,1.961A5.99,5.99,0,0,0,23,23.985Zm-.967-9.855a.987.987,0,0,0,.973.864,1,1,0,0,0,1-1,8,8,0,0,1,15.992,0,1,1,0,0,0,2,0,9.96,9.96,0,0,0-.144-1.621A4.982,4.982,0,0,1,40,21.986H23a3.986,3.986,0,0,1-.967-7.856Z" fill="#004fa3"/>
    <path id="Path_8131" data-name="Path 8131" d="M29,16h2v1.992a1,1,0,1,0,2,0V16h2a1,1,0,0,0,0-2H33V12a1,1,0,0,0-2,0v2H29a1,1,0,1,0,0,2Z" fill="#004fa3"/>
  </g>
</svg>
