<svg xmlns="http://www.w3.org/2000/svg" width="64" height="63" viewBox="0 0 64 63">
  <g id="_047-cloud-coding" data-name="047-cloud-coding" transform="translate(0 -0.5)">
    <path id="Path_8132" data-name="Path 8132" d="M18,50.491a3,3,0,1,0,3,3A3,3,0,0,0,18,50.491Zm0,4a1,1,0,1,1,1-1A1,1,0,0,1,18,54.491Z" fill="#004fa3"/>
    <path id="Path_8133" data-name="Path 8133" d="M30,50.491a3,3,0,1,0,3,3A3,3,0,0,0,30,50.491Zm0,4a1,1,0,1,1,1-1A1,1,0,0,1,30,54.491Z" fill="#004fa3"/>
    <path id="Path_8134" data-name="Path 8134" d="M42,50.491a3,3,0,1,0,3,3A3,3,0,0,0,42,50.491Zm0,4a1,1,0,1,1,1-1A1,1,0,0,1,42,54.491Z" fill="#004fa3"/>
    <path id="Path_8135" data-name="Path 8135" d="M25,55.491v-4a1,1,0,0,0-2,0v4a1,1,0,0,0,2,0Z" fill="#004fa3"/>
    <path id="Path_8136" data-name="Path 8136" d="M37,55.491v-4a1,1,0,0,0-2,0v4a1,1,0,0,0,2,0Z" fill="#004fa3"/>
    <path id="Path_8137" data-name="Path 8137" d="M49,55.491v-4a1,1,0,0,0-2,0v4a1,1,0,0,0,2,0Z" fill="#004fa3"/>
    <path id="Path_8138" data-name="Path 8138" d="M26,63.5a3,3,0,1,0-3-3A3,3,0,0,0,26,63.5Zm0-4a1,1,0,1,1-1,1A1,1,0,0,1,26,59.5Z" fill="#004fa3"/>
    <path id="Path_8139" data-name="Path 8139" d="M38,63.5a3,3,0,1,0-3-3A3,3,0,0,0,38,63.5Zm0-4a1,1,0,1,1-1,1A1,1,0,0,1,38,59.5Z" fill="#004fa3"/>
    <path id="Path_8140" data-name="Path 8140" d="M21,62.5v-4a1,1,0,0,0-2,0v4a1,1,0,0,0,2,0Z" fill="#004fa3"/>
    <path id="Path_8141" data-name="Path 8141" d="M31,58.5v4a1,1,0,0,0,2,0v-4a1,1,0,0,0-2,0Z" fill="#004fa3"/>
    <path id="Path_8142" data-name="Path 8142" d="M43,58.5v4a1,1,0,0,0,2,0v-4a1,1,0,0,0-2,0Z" fill="#004fa3"/>
    <path id="Path_8143" data-name="Path 8143" d="M49.879,11.553A19.978,19.978,0,0,0,12.25,17.5H12a12.014,12.014,0,0,0-12,12v4a12.014,12.014,0,0,0,12,12h1v2.986a1,1,0,0,0,2,0V45.5h2.18a2.962,2.962,0,0,0-.18.986,3,3,0,0,0,6,0,2.957,2.957,0,0,0-.18-.986H25v2.986a1,1,0,0,0,2,0V45.5h2.18a2.962,2.962,0,0,0-.18.986,3,3,0,0,0,6,0,2.957,2.957,0,0,0-.18-.986H37v2.986a1,1,0,0,0,2,0V45.5h2.18a2.962,2.962,0,0,0-.18.986,3,3,0,0,0,6,0,2.957,2.957,0,0,0-.18-.986H49v2.986a1,1,0,0,0,2,0V45.355A15.013,15.013,0,0,0,64,30.5v-4A15.054,15.054,0,0,0,49.879,11.553ZM21,46.491a1,1,0,1,1-1.067-.986h.135A.994.994,0,0,1,21,46.491Zm12,0a1,1,0,1,1-1.067-.986h.135a.994.994,0,0,1,.932.986Zm12,0a1,1,0,1,1-1.067-.986h.135a.994.994,0,0,1,.932.986Zm4-2.986H44.135c-.045,0-.089-.014-.135-.014s-.09.012-.135.014h-5.8c-.023,0-.043-.014-.067-.014s-.044.012-.067.014h-5.8c-.045,0-.089-.014-.135-.014s-.09.012-.135.014h-5.8c-.023,0-.043-.014-.067-.014s-.044.012-.067.014h-5.8c-.045,0-.089-.014-.135-.014s-.09.012-.135.014h-5.8c-.023,0-.043-.014-.067-.014s-.044.012-.067.014H12a10.008,10.008,0,0,1-9.359-6.513A11.977,11.977,0,0,0,12,41.5H49a14.97,14.97,0,0,0,12.023-6.069A13.015,13.015,0,0,1,49,43.5Zm0-4H12a10,10,0,0,1,0-20h.051c-.017.333-.051.663-.051,1a1,1,0,0,0,2,0,18,18,0,1,1,36,0,1,1,0,0,0,2,0,20.048,20.048,0,0,0-.448-4.228,19.752,19.752,0,0,0-.78-2.631A12.99,12.99,0,0,1,49,39.5Z" fill="#004fa3"/>
    <path id="Path_8144" data-name="Path 8144" d="M41.8,22.9c-.015-.02-.036-.028-.052-.046a.978.978,0,0,0-.152-.135.954.954,0,0,0-.153-.1.977.977,0,0,0-.175-.061.9.9,0,0,0-.2-.04c-.024,0-.045-.014-.069-.014a1.132,1.132,0,0,0-.116.023.952.952,0,0,0-.195.04,43.612,43.612,0,0,1-.289.137l-2,1.5a1,1,0,0,0,1.2,1.6l.069-.052a7.995,7.995,0,0,1-13.893,2.781,1,1,0,1,0-1.554,1.258A9.988,9.988,0,0,0,41.658,26.04l.044.058a1,1,0,0,0,1.6-1.2Z" fill="#004fa3"/>
    <path id="Path_8145" data-name="Path 8145" d="M25.6,22.8a1,1,0,0,0-1.2-1.6l-.067.051A7.995,7.995,0,0,1,38.22,18.471a1,1,0,1,0,1.554-1.258,9.988,9.988,0,0,0-17.432,3.74L22.3,20.9a1,1,0,1,0-1.6,1.2l1.5,2h0c.013.017.032.022.046.038a.958.958,0,0,0,.24.2c.026.017.045.047.073.061.008,0,.017,0,.024.006a.984.984,0,0,0,.415.1h0a1.011,1.011,0,0,0,.311-.05c.015,0,.027-.016.042-.021A13.612,13.612,0,0,1,23.6,24.3h0Z" fill="#004fa3"/>
  </g>
</svg>
