<svg xmlns="http://www.w3.org/2000/svg" xmlns:xlink="http://www.w3.org/1999/xlink" width="68.589" height="64" viewBox="0 0 68.589 64"><defs><style>.a{fill:url(#a);}</style><linearGradient id="a" x1="0.5" x2="0.5" y2="1" gradientUnits="objectBoundingBox"><stop offset="0" stop-color="#005fc5"/><stop offset="1" stop-color="#004fa3"/></linearGradient></defs><g transform="translate(0 -2.007)"><path class="a" d="M30,28.007a4,4,0,1,0,4,4A4,4,0,0,0,30,28.007Zm0,6a2,2,0,1,1,2-2A2,2,0,0,1,30,34.007Z" transform="translate(4.294 4.342)"/><path class="a" d="M30,23.007a8.992,8.992,0,0,0-4.564,16.745,1,1,0,1,0,1.018-1.721,7,7,0,1,1,7.091,0,1,1,0,0,0,.51,1.86.989.989,0,0,0,.508-.14A8.991,8.991,0,0,0,30,23.007Z" transform="translate(4.294 4.304)"/><path class="a" d="M34.294,2.007a34.292,34.292,0,0,0-17.4,63.841,1.143,1.143,0,1,0,1.161-1.968,32.009,32.009,0,1,1,32.485,0,1.144,1.144,0,0,0,1.163,1.97,34.293,34.293,0,0,0-17.4-63.842Z"/><path class="a" d="M57.157,34.083a25.078,25.078,0,1,0-37.8,21.6,1.081,1.081,0,0,0,.554.153,1.09,1.09,0,0,0,.556-2.028,22.9,22.9,0,1,1,23.227,0A1.09,1.09,0,1,0,44.8,55.68,25.211,25.211,0,0,0,57.157,34.083Z" transform="translate(2.216 2.069)"/><path class="a" d="M47.411,32.007c0-8.822-7.495-16-16.706-16S14,23.185,14,32.007a15.961,15.961,0,0,0,8.236,13.769,1.067,1.067,0,0,0,1.43-.352.976.976,0,0,0-.368-1.369,13.97,13.97,0,0,1-7.211-12.048c0-7.72,6.557-14,14.618-14s14.618,6.28,14.618,14a13.97,13.97,0,0,1-7.212,12.048.977.977,0,0,0-.368,1.369,1.054,1.054,0,0,0,.9.491,1.07,1.07,0,0,0,.53-.14A15.96,15.96,0,0,0,47.411,32.007Z" transform="translate(3.589 4.303)"/></g></svg>