<svg xmlns="http://www.w3.org/2000/svg" width="63.969" height="63.998" viewBox="0 0 63.969 63.998"><defs><style>.a{fill:#004fa3;}</style></defs><g transform="translate(-0.115)"><g transform="translate(0.115 -0.001)"><g transform="translate(0)"><path class="a" d="M27.1,11.465l-1.865-.822c-.085-.313-.176-.61-.279-.9L25.99,7.963A1.07,1.07,0,0,0,26,6.905,14.187,14.187,0,0,0,24.18,4.364a1.061,1.061,0,0,0-1.035-.329l-1.962.449q-.343-.274-.716-.528l-.19-2.077a1.069,1.069,0,0,0-.616-.871A13.568,13.568,0,0,0,16.734.025a1.063,1.063,0,0,0-1.029.349l-1.369,1.59h-.822L12.144.373A1.061,1.061,0,0,0,11.115.025a13.582,13.582,0,0,0-2.927.983,1.069,1.069,0,0,0-.616.872l-.19,2.076c-.247.169-.487.345-.716.528L4.7,4.035a1.06,1.06,0,0,0-1.035.329A14.164,14.164,0,0,0,1.851,6.905a1.07,1.07,0,0,0,.008,1.057L2.9,9.747c-.1.286-.194.582-.279.9l-1.865.822a1.069,1.069,0,0,0-.637.978v2.9a1.068,1.068,0,0,0,.637.978l1.865.822c.085.313.176.61.279.9L1.859,19.826a1.07,1.07,0,0,0-.008,1.057,14.187,14.187,0,0,0,1.818,2.541,1.064,1.064,0,0,0,1.035.329L6.666,23.3q.343.274.716.528l.19,2.077a1.069,1.069,0,0,0,.616.871,13.568,13.568,0,0,0,2.927.983,1.065,1.065,0,0,0,1.029-.349l1.369-1.589h.822L15.7,27.416a1.067,1.067,0,0,0,.81.372,1.043,1.043,0,0,0,.219-.023,13.582,13.582,0,0,0,2.927-.983,1.069,1.069,0,0,0,.616-.872l.19-2.076c.247-.169.487-.345.716-.528l1.962.449a1.063,1.063,0,0,0,1.035-.329A14.164,14.164,0,0,0,26,20.883a1.07,1.07,0,0,0-.008-1.057l-1.036-1.785c.1-.286.194-.582.279-.9l1.865-.822a1.069,1.069,0,0,0,.637-.978v-2.9A1.068,1.068,0,0,0,27.1,11.465ZM25.6,14.65,23.89,15.4a1.07,1.07,0,0,0-.61.739,9.822,9.822,0,0,1-.495,1.585,1.07,1.07,0,0,0,.063.946l.978,1.685a12.118,12.118,0,0,1-.836,1.168L21.144,21.1a1.059,1.059,0,0,0-.947.24,9.752,9.752,0,0,1-1.311.97,1.067,1.067,0,0,0-.5.811l-.18,1.961a11.821,11.821,0,0,1-1.307.444l-1.264-1.467a1.069,1.069,0,0,0-.81-.372h-1.8a1.07,1.07,0,0,0-.81.372L10.95,25.528a11.838,11.838,0,0,1-1.308-.444l-.18-1.963a1.07,1.07,0,0,0-.5-.81,9.633,9.633,0,0,1-1.31-.968,1.06,1.06,0,0,0-.947-.24l-1.847.423a12.141,12.141,0,0,1-.836-1.168L5,18.672a1.07,1.07,0,0,0,.063-.946,9.822,9.822,0,0,1-.495-1.585,1.07,1.07,0,0,0-.61-.739L2.252,14.65V13.139l1.706-.752a1.07,1.07,0,0,0,.61-.739,9.822,9.822,0,0,1,.495-1.585A1.07,1.07,0,0,0,5,9.117L4.022,7.431a12.116,12.116,0,0,1,.836-1.168l1.847.423a1.063,1.063,0,0,0,.947-.24,9.752,9.752,0,0,1,1.311-.97,1.067,1.067,0,0,0,.5-.811L9.643,2.7a11.821,11.821,0,0,1,1.307-.444l1.264,1.467a1.069,1.069,0,0,0,.81.372h1.8a1.07,1.07,0,0,0,.81-.372L16.9,2.261a11.838,11.838,0,0,1,1.308.444l.18,1.963a1.07,1.07,0,0,0,.5.81,9.633,9.633,0,0,1,1.31.968,1.063,1.063,0,0,0,.947.24l1.847-.423a12.117,12.117,0,0,1,.836,1.168l-.978,1.685a1.07,1.07,0,0,0-.063.946,9.822,9.822,0,0,1,.495,1.585,1.07,1.07,0,0,0,.61.739l1.706.752V14.65Z" transform="translate(-0.115 -0.001)"/></g></g><g transform="translate(6.444 6.412)"><path class="a" d="M54.972,48.005a7.481,7.481,0,1,0,7.481,7.481A7.481,7.481,0,0,0,54.972,48.005Zm0,12.824a5.343,5.343,0,1,1,5.343-5.343A5.343,5.343,0,0,1,54.972,60.829Z" transform="translate(-47.491 -48.005)"/></g><g transform="translate(40.711 -0.001)"><g transform="translate(0 0)"><path class="a" d="M326.743,9.568l-1.476-.651c-.057-.207-.12-.4-.187-.6L325.9,6.9a1.072,1.072,0,0,0,.008-1.058,12.079,12.079,0,0,0-1.538-2.149,1.061,1.061,0,0,0-1.034-.329l-1.553.355q-.229-.179-.47-.347l-.15-1.647a1.067,1.067,0,0,0-.616-.872,11.57,11.57,0,0,0-2.479-.832,1.062,1.062,0,0,0-1.029.349l-1.088,1.263h-.522L314.345.371a1.06,1.06,0,0,0-1.029-.349,11.565,11.565,0,0,0-2.479.832,1.067,1.067,0,0,0-.616.872l-.15,1.647q-.241.168-.47.347l-1.553-.355a1.064,1.064,0,0,0-1.034.329,12,12,0,0,0-1.537,2.15,1.07,1.07,0,0,0,.008,1.057l.821,1.416q-.1.29-.187.6l-1.476.651a1.068,1.068,0,0,0-.638.978v2.419a1.068,1.068,0,0,0,.638.978l1.476.651c.057.207.12.4.187.6l-.822,1.417a1.072,1.072,0,0,0-.008,1.058,12.071,12.071,0,0,0,1.538,2.149,1.063,1.063,0,0,0,1.035.329l1.551-.356c.152.12.31.236.471.348l.15,1.647a1.067,1.067,0,0,0,.616.872,11.57,11.57,0,0,0,2.479.832,1.065,1.065,0,0,0,1.029-.349l1.088-1.263h.522l1.088,1.263a1.067,1.067,0,0,0,.81.372,1.044,1.044,0,0,0,.219-.023,11.562,11.562,0,0,0,2.479-.832,1.067,1.067,0,0,0,.616-.872l.15-1.647q.241-.168.47-.347l1.553.355a1.063,1.063,0,0,0,1.034-.329,12.08,12.08,0,0,0,1.538-2.149,1.072,1.072,0,0,0-.008-1.058l-.822-1.417c.067-.193.129-.391.187-.6l1.476-.651a1.068,1.068,0,0,0,.638-.978V10.546A1.068,1.068,0,0,0,326.743,9.568Zm-1.5,2.7-1.316.58a1.065,1.065,0,0,0-.61.741,7.982,7.982,0,0,1-.4,1.289,1.072,1.072,0,0,0,.063.947l.761,1.311q-.258.4-.557.781l-1.432-.328a1.058,1.058,0,0,0-.944.24,7.91,7.91,0,0,1-1.067.788,1.07,1.07,0,0,0-.5.812l-.139,1.526c-.287.113-.575.211-.862.292l-.979-1.137a1.069,1.069,0,0,0-.81-.372h-1.5a1.07,1.07,0,0,0-.81.372l-.979,1.137c-.287-.081-.575-.18-.862-.292l-.139-1.526a1.07,1.07,0,0,0-.5-.812,7.842,7.842,0,0,1-1.066-.788,1.075,1.075,0,0,0-.947-.241l-1.431.328c-.2-.252-.385-.512-.557-.78l.761-1.311a1.072,1.072,0,0,0,.063-.947,7.986,7.986,0,0,1-.4-1.289,1.065,1.065,0,0,0-.61-.741l-1.316-.58V11.242l1.316-.58a1.065,1.065,0,0,0,.61-.741,8.039,8.039,0,0,1,.4-1.291,1.07,1.07,0,0,0-.063-.946l-.76-1.311c.171-.266.357-.527.556-.78l1.432.328a1.063,1.063,0,0,0,.944-.24,7.909,7.909,0,0,1,1.067-.788,1.07,1.07,0,0,0,.5-.812l.139-1.526c.287-.113.575-.211.862-.292l.979,1.137a1.069,1.069,0,0,0,.81.372h1.5a1.07,1.07,0,0,0,.81-.372l.979-1.137c.287.081.575.18.862.292l.139,1.526a1.07,1.07,0,0,0,.5.812,7.91,7.91,0,0,1,1.067.788,1.061,1.061,0,0,0,.944.24l1.432-.328q.3.379.557.781l-.761,1.311a1.072,1.072,0,0,0-.063.947,7.986,7.986,0,0,1,.4,1.289,1.065,1.065,0,0,0,.61.741l1.316.58Z" transform="translate(-304.007 0.001)"/></g></g><g transform="translate(47.054 6.412)"><path class="a" d="M356.834,48.005a5.343,5.343,0,1,0,5.343,5.343A5.344,5.344,0,0,0,356.834,48.005Zm0,8.549a3.206,3.206,0,1,1,3.206-3.206A3.206,3.206,0,0,1,356.834,56.554Z" transform="translate(-351.491 -48.005)"/></g><g transform="translate(32.214 32.182)"><path class="a" d="M271.37,253.957l-1.549-.326c-.064-.268-.136-.536-.216-.8l1.188-1.065a1.068,1.068,0,0,0,.27-1.215,16.06,16.06,0,0,0-1.963-3.363,1.073,1.073,0,0,0-1.188-.373l-1.493.491c-.19-.2-.387-.4-.589-.589l.491-1.492a1.068,1.068,0,0,0-.371-1.187,15.994,15.994,0,0,0-3.364-1.965,1.074,1.074,0,0,0-1.215.27l-1.065,1.189c-.266-.081-.534-.153-.8-.217l-.326-1.549a1.069,1.069,0,0,0-1.046-.849h-3.644a1.069,1.069,0,0,0-1.046.849l-.326,1.549c-.268.064-.536.136-.8.216l-1.065-1.188a1.073,1.073,0,0,0-1.215-.27,16.059,16.059,0,0,0-3.363,1.963,1.069,1.069,0,0,0-.373,1.188l.491,1.493c-.2.19-.4.387-.589.589l-1.492-.491a1.075,1.075,0,0,0-1.187.372,15.993,15.993,0,0,0-1.965,3.364,1.068,1.068,0,0,0,.27,1.215l1.189,1.065c-.081.266-.153.534-.217.8l-1.549.326A1.069,1.069,0,0,0,240.4,255v3.644a1.069,1.069,0,0,0,.849,1.046l1.549.326c.064.268.136.536.216.8l-1.188,1.065a1.068,1.068,0,0,0-.27,1.215,16.06,16.06,0,0,0,1.963,3.363,1.073,1.073,0,0,0,1.188.373l1.493-.491c.19.2.387.4.589.589l-.491,1.492a1.068,1.068,0,0,0,.372,1.187,15.994,15.994,0,0,0,3.364,1.965,1.065,1.065,0,0,0,1.215-.27l1.065-1.189c.266.081.534.153.8.217l.326,1.549a1.069,1.069,0,0,0,1.046.849h3.644a1.069,1.069,0,0,0,1.046-.849l.326-1.549c.268-.064.536-.136.8-.216l1.065,1.188a1.065,1.065,0,0,0,1.215.27,16.059,16.059,0,0,0,3.363-1.963,1.069,1.069,0,0,0,.373-1.188l-.491-1.493c.2-.19.4-.387.589-.589l1.492.491a1.072,1.072,0,0,0,1.187-.371,15.992,15.992,0,0,0,1.965-3.364,1.068,1.068,0,0,0-.27-1.215l-1.189-1.065c.081-.266.153-.534.217-.8l1.549-.326a1.069,1.069,0,0,0,.849-1.046V255A1.069,1.069,0,0,0,271.37,253.957Zm-1.289,3.823-1.383.291a1.069,1.069,0,0,0-.832.856,11.626,11.626,0,0,1-.5,1.863,1.068,1.068,0,0,0,.293,1.157l1.121,1a14.037,14.037,0,0,1-.944,1.609l-1.412-.464a1.073,1.073,0,0,0-1.15.325,11.673,11.673,0,0,1-1.367,1.368,1.071,1.071,0,0,0-.324,1.149l.464,1.411a13.954,13.954,0,0,1-1.609.944l-1-1.121a1.074,1.074,0,0,0-1.158-.293,11.51,11.51,0,0,1-1.861.5,1.069,1.069,0,0,0-.856.832l-.291,1.383h-1.91l-.291-1.383a1.069,1.069,0,0,0-.856-.832,11.623,11.623,0,0,1-1.863-.5h0a1.076,1.076,0,0,0-1.157.293l-1,1.121a14.043,14.043,0,0,1-1.609-.944l.464-1.412a1.071,1.071,0,0,0-.325-1.15,11.672,11.672,0,0,1-1.368-1.367,1.074,1.074,0,0,0-1.149-.324l-1.411.464a13.949,13.949,0,0,1-.944-1.609l1.121-1a1.07,1.07,0,0,0,.293-1.158,11.51,11.51,0,0,1-.5-1.861,1.069,1.069,0,0,0-.832-.856l-1.383-.291v-1.91l1.383-.291a1.069,1.069,0,0,0,.832-.856,11.627,11.627,0,0,1,.5-1.863,1.068,1.068,0,0,0-.293-1.157l-1.121-1a14.038,14.038,0,0,1,.944-1.609l1.412.464a1.073,1.073,0,0,0,1.15-.325,11.673,11.673,0,0,1,1.367-1.368,1.071,1.071,0,0,0,.324-1.149l-.464-1.411a13.951,13.951,0,0,1,1.609-.944l1,1.121a1.072,1.072,0,0,0,1.158.293,11.509,11.509,0,0,1,1.861-.5,1.069,1.069,0,0,0,.856-.832l.291-1.383h1.91l.291,1.383a1.069,1.069,0,0,0,.856.832,11.619,11.619,0,0,1,1.863.5,1.07,1.07,0,0,0,1.157-.293l1-1.121a14.039,14.039,0,0,1,1.609.944l-.464,1.412a1.071,1.071,0,0,0,.325,1.15,11.672,11.672,0,0,1,1.368,1.367,1.078,1.078,0,0,0,1.149.324l1.411-.464a13.95,13.95,0,0,1,.944,1.609l-1.121,1a1.07,1.07,0,0,0-.293,1.158,11.506,11.506,0,0,1,.5,1.861,1.069,1.069,0,0,0,.832.856l1.383.291Z" transform="translate(-240.402 -240.916)"/></g><g transform="translate(38.504 38.473)"><path class="a" d="M297.109,288.005a9.618,9.618,0,1,0,9.618,9.618A9.618,9.618,0,0,0,297.109,288.005Zm0,17.1a7.481,7.481,0,1,1,7.481-7.481A7.49,7.49,0,0,1,297.109,305.1Z" transform="translate(-287.491 -288.005)"/></g><g transform="translate(29.955 11.755)"><rect class="a" width="8.549" height="2.137"/></g><g transform="translate(5.375 28.854)"><path class="a" d="M63.985,233.752a1.068,1.068,0,0,0-.562-.562h0l-7.481-3.206a1.068,1.068,0,0,0-1.489.982V233.1H41.628V216H39.491v18.168a1.068,1.068,0,0,0,1.067,1.069H54.453v2.137a1.068,1.068,0,0,0,1.067,1.069h0a1.053,1.053,0,0,0,.421-.087l7.481-3.206A1.068,1.068,0,0,0,63.985,233.752Zm-7.395,2.005v-3.171l3.7,1.585Z" transform="translate(-39.491 -216.004)"/></g><g transform="translate(43.092 44.2)"><path class="a" d="M330.318,330.88l-4.594,5.513-2.379-2.378-1.511,1.511,3.206,3.206a1.065,1.065,0,0,0,.756.313h.048a1.07,1.07,0,0,0,.773-.383l5.343-6.412Z" transform="translate(-321.834 -330.88)"/></g></g></svg>