<svg xmlns="http://www.w3.org/2000/svg" width="59.871" height="64" viewBox="0 0 59.871 64"><defs><style>.a{fill:#004fa3;}</style></defs><g transform="translate(-3 -1)"><path class="a" d="M31,18.393A11.215,11.215,0,0,0,20,7,11.215,11.215,0,0,0,9,18.393a11.588,11.588,0,0,0,2.3,6.951,3.171,3.171,0,0,0-.3,1.335v6.259a6.417,6.417,0,0,0-5.465-3.152A2.585,2.585,0,0,0,3,32.411a2.681,2.681,0,0,0,.426,1.456l1.029,1.6a4.732,4.732,0,0,1,.712,1.984l.709,5.871a5.266,5.266,0,0,0,.962,2.465L9,48.773V50.5H7V65H29V50.5H27V48.673l1.473-3.05A5.373,5.373,0,0,0,29,43.308V26.679a3.187,3.187,0,0,0-.3-1.335A11.583,11.583,0,0,0,31,18.393ZM20,9.071a9.175,9.175,0,0,1,9,9.321,9.175,9.175,0,0,1-9,9.321,9.175,9.175,0,0,1-9-9.321A9.175,9.175,0,0,1,20,9.071Zm7,43.5v2.071H9V52.571ZM9,62.929V56.714H27v6.214ZM26.684,44.7,25,48.184V50.5H11V48.084L8.438,44.545a3.163,3.163,0,0,1-.577-1.478L7.152,37.2A6.852,6.852,0,0,0,6.12,34.319l-1.03-1.6A.565.565,0,0,1,5,32.411a.545.545,0,0,1,.535-.554,4.5,4.5,0,0,1,4.36,3.7l1.248,6.465.614.16A4.4,4.4,0,0,1,15,46.485v1.944h2V46.485a6.487,6.487,0,0,0-4-6.051V27.175a10.983,10.983,0,0,0,2,1.354V39.107h2V29.344a10.652,10.652,0,0,0,2,.389v9.373h2V29.733a10.489,10.489,0,0,0,2-.389v9.764h2V28.528a10.983,10.983,0,0,0,2-1.354V43.308A3.214,3.214,0,0,1,26.684,44.7Z"/><path class="a" d="M20,21a1,1,0,0,1-1-1H17a3,3,0,0,0,2,2.816V25h2V23h2V20a3,3,0,0,0-3-3,1,1,0,0,1-1-1V15h1a1,1,0,0,1,1,1h2a3,3,0,0,0-2-2.816V11H19v2H17v3a3,3,0,0,0,3,3,1,1,0,0,1,1,1v1Z" transform="translate(0.504 0.417)"/><path class="a" d="M60.574,32.061l-1.029-1.594a4.714,4.714,0,0,1-.712-1.98l-.709-5.858a5.247,5.247,0,0,0-.962-2.459L55,17.189V15.467h2V1H35V15.467h2v1.823l-1.473,3.043A5.35,5.35,0,0,0,35,22.642V39.233a3.2,3.2,0,0,0,.06.606A13.6,13.6,0,0,0,31,49.567,13.237,13.237,0,0,0,44,63,13.237,13.237,0,0,0,57,49.567a13.6,13.6,0,0,0-4.06-9.728,3.2,3.2,0,0,0,.06-.606V32.989a6.42,6.42,0,0,0,5.465,3.144A2.582,2.582,0,0,0,61,33.514,2.67,2.67,0,0,0,60.574,32.061ZM55,3.067V13.4H37V9.267h8V7.2H37V3.067Zm0,46.5A11.006,11.006,0,1,1,44,38.2,11.2,11.2,0,0,1,55,49.567Zm3.465-15.5a4.5,4.5,0,0,1-4.36-3.693l-1.248-6.45-.614-.159A4.393,4.393,0,0,1,49,19.473v-1.94H47v1.94a6.471,6.471,0,0,0,4,6.037V38.265a12.772,12.772,0,0,0-2-1.1V26.833H47v9.675a12.654,12.654,0,0,0-2-.323V26.833H43v9.353a12.421,12.421,0,0,0-2,.323V26.833H39V37.17a12.856,12.856,0,0,0-2,1.1V22.642a3.208,3.208,0,0,1,.316-1.387L39,17.777V15.467H53v2.411l2.562,3.531a3.151,3.151,0,0,1,.577,1.475l.709,5.858a6.827,6.827,0,0,0,1.032,2.87L58.909,33.2a.563.563,0,0,1,.09.307.544.544,0,0,1-.534.555Z" transform="translate(1.871 0)"/><path class="a" d="M0,0H16.971V2H0Z" transform="translate(38.723 55.292) rotate(-45)"/><path class="a" d="M48,49a3,3,0,1,0,3,3A3,3,0,0,0,48,49Zm0,4a1,1,0,1,1,1-1A1,1,0,0,1,48,53Z" transform="translate(1.511 2)"/><path class="a" d="M40,47a3,3,0,1,0-3-3A3,3,0,0,0,40,47Zm0-4a1,1,0,1,1-1,1A1,1,0,0,1,40,43Z" transform="translate(1.223 1.429)"/><path class="a" d="M50,11a3,3,0,1,0-3-3A3,3,0,0,0,50,11Zm0-4a1,1,0,1,1-1,1A1,1,0,0,1,50,7Z" transform="translate(1.871)"/></g></svg>