<svg xmlns="http://www.w3.org/2000/svg" width="75.53" height="64" viewBox="0 0 75.53 64"><defs><style>.a{fill:#004fa3;}</style></defs><g transform="translate(0 -39.08)"><g transform="translate(11.211 39.081)"><g transform="translate(0 0)"><path class="a" d="M126.181,45.672l-.793-5.664a1.076,1.076,0,0,0-1.229-.915l-6.24.956a1.077,1.077,0,1,0,.326,2.129l3.636-.557a88.4,88.4,0,0,1-15.569,15.234,63.735,63.735,0,0,1-14.751,8.364c-8.547,3.369-14.384,3.148-14.441,3.146a1.077,1.077,0,0,0-.1,2.151c.035,0,.182.008.434.008a42.287,42.287,0,0,0,14.765-3.249,65.749,65.749,0,0,0,15.3-8.634,90.528,90.528,0,0,0,16.1-15.743l.43,3.073a1.077,1.077,0,0,0,1.065.927,1.088,1.088,0,0,0,.151-.01A1.077,1.077,0,0,0,126.181,45.672Z" transform="translate(-75.993 -39.081)"/></g></g><g transform="translate(0 39.798)"><g transform="translate(0 0)"><path class="a" d="M73.544,101.3h-8.7a13.1,13.1,0,0,0,2.013-1.649,12.972,12.972,0,0,0-2.873-20.521V74.781a1.077,1.077,0,1,0-2.153,0v3.39a12.946,12.946,0,0,0-9.025.265V65.212a.253.253,0,0,1,.253-.253h8.52a.253.253,0,0,1,.253.253v2.672a1.077,1.077,0,0,0,2.153,0V65.212a2.409,2.409,0,0,0-2.406-2.406h-8.52a2.409,2.409,0,0,0-2.406,2.406V79.557A12.979,12.979,0,0,0,48.5,99.648a13.111,13.111,0,0,0,2.013,1.649h-6.8V74.981a2.409,2.409,0,0,0-2.406-2.406H32.788a2.409,2.409,0,0,0-2.406,2.406V101.3H23.443V83.838a2.409,2.409,0,0,0-2.406-2.406h-8.52a2.409,2.409,0,0,0-2.406,2.406V101.3H5.677V45.928A1.989,1.989,0,0,0,3.69,43.941h-1.7A1.989,1.989,0,0,0,0,45.928v7.644a1.077,1.077,0,0,0,2.153,0V46.094h1.37v55.37a1.989,1.989,0,0,0,1.987,1.987H73.377v1.62H2.153v-44.7a1.077,1.077,0,0,0-2.153,0v44.862a1.989,1.989,0,0,0,1.987,1.987H73.544a1.989,1.989,0,0,0,1.987-1.987v-1.954A1.989,1.989,0,0,0,73.544,101.3Zm-52.254,0H12.265V83.838a.253.253,0,0,1,.253-.253h8.52a.253.253,0,0,1,.253.253V101.3Zm11.245,0V74.981a.253.253,0,0,1,.253-.253h8.519a.253.253,0,0,1,.253.253V101.3H32.535Zm29.9-1.1a10.892,10.892,0,0,1-3.482,1.024l-.061.008c-.082.009-.165.017-.248.025-.126.011-.252.021-.379.028l-.12.005c-.155.006-.311.011-.467.011s-.312,0-.468-.011l-.147-.007c-.117-.006-.234-.015-.351-.026q-.145-.013-.29-.03l-.207-.025c-.1-.013-.2-.028-.294-.044l-.038-.007a10.811,10.811,0,0,1-3.616-1.3l-.018-.009a10.88,10.88,0,0,1-2.227-1.714A10.827,10.827,0,0,1,52.611,80.9l.079-.041a10.871,10.871,0,0,1,9.02-.437l.067.027c.134.055.267.113.4.173l.158.074a10.832,10.832,0,0,1,.139,19.483C62.46,100.186,62.446,100.19,62.434,100.2Z" transform="translate(0 -43.941)"/></g></g><g transform="translate(53.134 78.767)"><path class="a" d="M365.226,314.624v-3.835c1.322.094,1.814.7,2.267.7.567,0,.831-.718.831-1.077,0-.926-1.813-1.322-3.1-1.36v-.51c0-.227-.283-.434-.567-.434a.5.5,0,0,0-.548.434v.548c-1.795.189-3.589,1.134-3.589,3.514,0,2.418,1.889,3.1,3.589,3.7v4.439c-1.927-.151-2.437-1.473-3.06-1.473-.472,0-.869.623-.869,1.077,0,.926,1.587,2.191,3.929,2.229h0v.586a.5.5,0,0,0,.548.434c.283,0,.567-.208.567-.434v-.642a3.66,3.66,0,0,0,3.438-3.892C368.664,316.06,366.869,315.229,365.226,314.624Zm-1-.359c-1-.378-1.814-.774-1.813-1.851,0-.982.756-1.455,1.813-1.587Zm.888,6.442v-3.986a2.209,2.209,0,0,1,1.662,2.116A1.8,1.8,0,0,1,365.113,320.707Z" transform="translate(-360.182 -308.107)"/></g></g></svg>