<svg xmlns="http://www.w3.org/2000/svg" width="36" height="36" viewBox="0 0 36 36"><defs><style>.a{fill:#fff;}</style></defs><g transform="translate(0 -32)"><path class="a" d="M33.429,32H2.563A2.583,2.583,0,0,0,0,34.6V65.4A2.583,2.583,0,0,0,2.563,68H33.429A2.589,2.589,0,0,0,36,65.4V34.6A2.589,2.589,0,0,0,33.429,32ZM10.88,62.857H5.545V45.677h5.344v17.18ZM8.212,43.33a3.094,3.094,0,1,1,3.094-3.094A3.1,3.1,0,0,1,8.212,43.33ZM30.881,62.857H25.546V54.5c0-1.993-.04-4.556-2.772-4.556-2.78,0-3.206,2.17-3.206,4.412v8.5H14.231V45.677H19.35v2.346h.072a5.62,5.62,0,0,1,5.054-2.772c5.4,0,6.4,3.56,6.4,8.188Z"/></g></svg>