<svg xmlns="http://www.w3.org/2000/svg" xmlns:xlink="http://www.w3.org/1999/xlink" width="106.599" height="106.599" viewBox="0 0 106.599 106.599"><defs><style>.a{fill:url(#a);}.b{clip-path:url(#b);}</style><linearGradient id="a" x1="0.5" x2="0.5" y2="1" gradientUnits="objectBoundingBox"><stop offset="0" stop-color="#005fc5"/><stop offset="1" stop-color="#004fa3"/></linearGradient><clipPath id="b"><rect class="a" width="106.599" height="106.599"/></clipPath></defs><g class="b" transform="translate(0 0)"><path class="a" d="M45.928,92.057V64.793a1.7,1.7,0,0,0-1.7-1.7H32.887a1.7,1.7,0,0,0,0,3.4h9.639V92.057a7.371,7.371,0,1,0,3.4,0Zm-1.7,11.14A3.969,3.969,0,1,1,48.2,99.228,3.974,3.974,0,0,1,44.227,103.2Z"/><path class="a" d="M64.073,92.057V64.793a1.7,1.7,0,0,0-1.7-1.7H51.032a1.7,1.7,0,0,0,0,3.4h9.639V92.057a7.371,7.371,0,1,0,3.4,0Zm-1.7,11.14a3.969,3.969,0,1,1,3.969-3.969A3.974,3.974,0,0,1,62.372,103.2Z"/><path class="a" d="M92.991,80.516a7.383,7.383,0,0,0-7.171,5.67h-3.6V64.793a1.7,1.7,0,0,0-1.7-1.7H69.176a1.7,1.7,0,0,0,0,3.4h9.639V87.887a1.7,1.7,0,0,0,1.7,1.7h5.3a7.371,7.371,0,1,0,7.171-9.072Zm0,11.34a3.969,3.969,0,1,1,3.969-3.969A3.974,3.974,0,0,1,92.991,91.857Z"/><path class="a" d="M102.548,36.642a18.464,18.464,0,0,0-8.871-6.031,32.2,32.2,0,0,0-59.62-15.236A14.705,14.705,0,0,0,15.284,26.291a20.431,20.431,0,0,0,5.145,40.2h3.953V86.186h-3.6a7.371,7.371,0,1,0,0,3.4h5.3a1.7,1.7,0,0,0,1.7-1.7V64.793a1.7,1.7,0,0,0-1.7-1.7H20.429A17.028,17.028,0,0,1,17.1,29.366a1.7,1.7,0,0,0,1.356-1.448,11.3,11.3,0,0,1,15.677-8.89,1.7,1.7,0,0,0,2.164-.738A28.8,28.8,0,0,1,90.312,31.937a1.7,1.7,0,0,0,1.318,1.642,14.95,14.95,0,0,1-3.384,29.513H87.32a1.7,1.7,0,0,0,0,3.4h.925a18.351,18.351,0,0,0,14.3-29.852ZM13.608,91.857a3.969,3.969,0,1,1,3.969-3.969A3.974,3.974,0,0,1,13.608,91.857Z"/><path class="a" d="M82.941,33.7h.016a1.7,1.7,0,0,0,1.686-1.716,22.889,22.889,0,0,0-1.572-8.149A1.7,1.7,0,1,0,79.9,25.076a19.5,19.5,0,0,1,1.339,6.943,1.7,1.7,0,0,0,1.7,1.686Z"/><path class="a" d="M76.724,19.677a1.7,1.7,0,1,0,2.623-2.167,23.074,23.074,0,0,0-17.83-8.438,1.7,1.7,0,0,0,0,3.4,19.683,19.683,0,0,1,15.208,7.2Z"/></g></svg>