<svg xmlns="http://www.w3.org/2000/svg" xmlns:xlink="http://www.w3.org/1999/xlink" width="106.599" height="106.599" viewBox="0 0 106.599 106.599"><defs><style>.a{fill:url(#a);}.b{clip-path:url(#b);}</style><linearGradient id="a" x1="0.5" x2="0.5" y2="1" gradientUnits="objectBoundingBox"><stop offset="0" stop-color="#005fc5"/><stop offset="1" stop-color="#004fa3"/></linearGradient><clipPath id="b"><rect class="a" width="106.599" height="106.599"/></clipPath></defs><g class="b" transform="translate(0 0)"><g transform="translate(0 3.566)"><path class="a" d="M53.3,49.759a7.107,7.107,0,1,0,7.107,7.107A7.114,7.114,0,0,0,53.3,49.759Zm0,10.66a3.553,3.553,0,1,1,3.553-3.553A3.557,3.557,0,0,1,53.3,60.419Z" transform="translate(0 -3.566)"/><path class="a" d="M53.3,40.875a15.976,15.976,0,0,0-8.109,29.75A1.776,1.776,0,1,0,47,67.568a12.437,12.437,0,1,1,12.6,0,1.775,1.775,0,0,0,.906,3.3,1.757,1.757,0,0,0,.9-.249A15.975,15.975,0,0,0,53.3,40.875Z" transform="translate(0 -3.566)"/><path class="a" d="M53.3,3.566A53.3,53.3,0,0,0,26.25,102.786a1.776,1.776,0,1,0,1.805-3.059,49.747,49.747,0,1,1,50.487,0,1.777,1.777,0,1,0,1.807,3.061A53.3,53.3,0,0,0,53.3,3.566Z" transform="translate(0 -3.566)"/><path class="a" d="M94.162,56.865A40.863,40.863,0,1,0,32.568,92.059a1.761,1.761,0,0,0,.9.249,1.776,1.776,0,0,0,.906-3.3,37.311,37.311,0,1,1,37.846,0,1.776,1.776,0,1,0,1.809,3.058A41.084,41.084,0,0,0,94.162,56.865Z" transform="translate(0 -3.566)"/><path class="a" d="M81.726,56.865A28.426,28.426,0,1,0,38.887,81.328,1.776,1.776,0,1,0,40.7,78.27a24.874,24.874,0,1,1,25.205,0,1.775,1.775,0,1,0,1.809,3.056A28.566,28.566,0,0,0,81.726,56.865Z" transform="translate(0 -3.566)"/></g></g></svg>