<svg xmlns="http://www.w3.org/2000/svg" width="71.68" height="64" viewBox="0 0 71.68 64"><defs><style>.a{fill:#004fa3;}</style></defs><g transform="translate(0 -43.261)"><g transform="translate(63.097 49.565)"><path class="a" d="M453.078,85.61a1.333,1.333,0,0,0-1.981,0,1.588,1.588,0,0,0,0,2.127,1.334,1.334,0,0,0,1.981,0,1.588,1.588,0,0,0,0-2.127Z" transform="translate(-450.688 -85.169)"/></g><g transform="translate(30.94 84.993)"><g transform="translate(0 0)"><path class="a" d="M223.389,321.136a1.333,1.333,0,0,0-1.981,0,1.588,1.588,0,0,0,0,2.127,1.334,1.334,0,0,0,1.981,0,1.588,1.588,0,0,0,0-2.127Z" transform="translate(-220.999 -320.695)"/></g></g><g transform="translate(0 43.261)"><g transform="translate(0 0)"><path class="a" d="M68.878,55a1.349,1.349,0,0,0-1.909-.564,1.566,1.566,0,0,0-.525,2.051A21.348,21.348,0,0,1,63.391,80.7l-1.062,1.141a5.694,5.694,0,0,0-1.2-1.983L46.748,64.406a9.722,9.722,0,0,0,2.573-1.981L52.08,59.46a1.585,1.585,0,0,0,0-2.127,1.333,1.333,0,0,0-1.98,0L47.341,60.3a6.588,6.588,0,0,1-4.853,2.16H36.973a1.354,1.354,0,0,0-.99.441L31.76,67.434a3.064,3.064,0,0,1-4.548,0,3.644,3.644,0,0,1,0-4.886l9.64-10.357a17.875,17.875,0,0,1,22.365-3.385,1.351,1.351,0,0,0,1.9-.586,1.565,1.565,0,0,0-.545-2.045A20.449,20.449,0,0,0,47.26,43.48,20.7,20.7,0,0,0,35.85,49.074a20.494,20.494,0,0,0-29.534.974,24.408,24.408,0,0,0,0,32.769l.528.567a1.415,1.415,0,0,0,.3.245A5.836,5.836,0,0,0,8.671,87.2,5.08,5.08,0,0,0,12.4,88.853c.07,0,.14,0,.211-.005,0,.076-.005.152-.005.229a5.851,5.851,0,0,0,1.545,4.008,5.079,5.079,0,0,0,3.731,1.658c.07,0,.14,0,.211-.005,0,.076-.005.152-.005.229a5.85,5.85,0,0,0,1.545,4.008,5.08,5.08,0,0,0,3.731,1.658c.071,0,.142,0,.213-.005a5.891,5.891,0,0,0,1.538,4.237,5.022,5.022,0,0,0,7.462,0l1.957-2.1,2.643,2.839a5.022,5.022,0,0,0,7.462,0,5.9,5.9,0,0,0,1.536-4.293c.088,0,.176.007.264.007a5.08,5.08,0,0,0,3.731-1.658,5.89,5.89,0,0,0,1.538-4.235c.071,0,.142.006.213.006a5.065,5.065,0,0,0,3.731-1.66,5.89,5.89,0,0,0,1.538-4.235c.071,0,.142.006.213.006a5.065,5.065,0,0,0,3.731-1.66,5.684,5.684,0,0,0,1.144-1.842,1.4,1.4,0,0,0,.378-.288l2.715-2.917A24.532,24.532,0,0,0,68.878,55ZM12.4,85.847a2.377,2.377,0,0,1-1.751-.779,2.8,2.8,0,0,1,0-3.762l2.413-2.592a2.357,2.357,0,0,1,3.5,0,2.805,2.805,0,0,1,0,3.762l-2.413,2.592A2.377,2.377,0,0,1,12.4,85.847Zm3.731,5.111a2.8,2.8,0,0,1,0-3.762L18.546,84.6h0a2.356,2.356,0,0,1,3.5,0,2.805,2.805,0,0,1,0,3.762l-2.413,2.592A2.359,2.359,0,0,1,16.133,90.957Zm5.481,5.889a2.8,2.8,0,0,1,0-3.762l2.413-2.592h0a2.356,2.356,0,0,1,3.5,0,2.805,2.805,0,0,1,0,3.762l-2.413,2.592A2.359,2.359,0,0,1,21.615,96.847Zm11.4,3.3L30.6,102.737a2.356,2.356,0,0,1-3.5,0,2.805,2.805,0,0,1,0-3.762l2.413-2.592h0a2.356,2.356,0,0,1,3.5,0,2.8,2.8,0,0,1,0,3.762ZM59.154,85.751a2.356,2.356,0,0,1-3.5,0L49.824,79.49h0L44.343,73.6a1.333,1.333,0,0,0-1.98,0,1.585,1.585,0,0,0,0,2.127l11.31,12.151a2.805,2.805,0,0,1,0,3.762,2.356,2.356,0,0,1-3.5,0L38.861,79.489a1.333,1.333,0,0,0-1.98,0,1.585,1.585,0,0,0,0,2.128l5.48,5.888h0l5.828,6.261a2.806,2.806,0,0,1,0,3.762,2.359,2.359,0,0,1-3.5,0l-5.828-6.262a1.406,1.406,0,0,0-.358-.278L36.841,89.2a1.333,1.333,0,0,0-1.98,0,1.585,1.585,0,0,0,0,2.128l7.8,8.378a2.805,2.805,0,0,1,0,3.762,2.356,2.356,0,0,1-3.5,0l-2.967-3.188a6.043,6.043,0,0,0,.346-2.022,5.851,5.851,0,0,0-1.545-4.008,5.065,5.065,0,0,0-3.731-1.66c-.071,0-.142,0-.213.006a5.89,5.89,0,0,0-1.538-4.235,5.065,5.065,0,0,0-3.731-1.66c-.071,0-.142,0-.213.006a5.89,5.89,0,0,0-1.538-4.235,5.065,5.065,0,0,0-3.731-1.66c-.071,0-.142,0-.213.006a5.89,5.89,0,0,0-1.538-4.235,5.028,5.028,0,0,0-7.462,0L8.672,79.178a5.628,5.628,0,0,0-.777,1.064,21.252,21.252,0,0,1,.4-28.067,17.83,17.83,0,0,1,25.54-1l-8.6,9.244a6.809,6.809,0,0,0,0,9.141,5.733,5.733,0,0,0,8.508,0l3.813-4.1h4.935a9.136,9.136,0,0,0,1.209-.083L59.155,81.989A2.807,2.807,0,0,1,59.154,85.751Z" transform="translate(0 -43.261)"/></g></g></g></svg>