<svg xmlns="http://www.w3.org/2000/svg" xmlns:xlink="http://www.w3.org/1999/xlink" width="64" height="64" viewBox="0 0 64 64">
  <defs>
    <clipPath id="clip-path">
      <rect id="Rectangle_191" data-name="Rectangle 191" width="64" height="64" transform="translate(193 70)" fill="#004fa3"/>
    </clipPath>
  </defs>
  <g id="Mask_Group_39" data-name="Mask Group 39" transform="translate(-193 -70)" clip-path="url(#clip-path)">
    <g id="database" transform="translate(191.968 68.968)">
      <path id="Path_12877" data-name="Path 12877" d="M56.774,42.353V39.226a3.1,3.1,0,0,0-3.1-3.1H34.065V32H55.742a9.29,9.29,0,0,0,0-18.581c-.054,0-.105.007-.159.008a14.443,14.443,0,0,0-26.54-5.614,9.132,9.132,0,0,0-5.3-.349l.449-.787L20.163,2.644,17.72,4.037c-.234-.107-.47-.206-.706-.3l-.741-2.71H10.567l-.741,2.71q-.355.133-.706.3L6.677,2.644,2.644,6.678,4.038,9.119c-.107.233-.206.47-.3.707l-2.711.741v5.7l2.71.741c.089.237.188.474.3.707L2.643,20.161,6.677,24.2l.625-.356A9.3,9.3,0,0,0,16.516,32H32v4.129H12.387a3.1,3.1,0,0,0-3.1,3.1v3.127c-4.774.268-8.258,2.383-8.258,5.131V59.871c0,2.943,3.994,5.161,9.29,5.161s9.29-2.218,9.29-5.161V47.484c0-2.748-3.484-4.863-8.258-5.131V39.226a1.033,1.033,0,0,1,1.032-1.032H32v4.159c-4.774.268-8.258,2.383-8.258,5.131V59.871c0,2.943,3.994,5.161,9.29,5.161s9.29-2.218,9.29-5.161V47.484c0-2.748-3.484-4.863-8.258-5.131V38.194H53.677a1.033,1.033,0,0,1,1.032,1.032v3.127c-4.774.268-8.258,2.383-8.258,5.131V59.871c0,2.943,3.994,5.161,9.29,5.161s9.29-2.218,9.29-5.161V47.484c0-2.748-3.484-4.863-8.258-5.131ZM5.218,19.815l1.166-2.043-.266-.5a8.184,8.184,0,0,1-.59-1.413l-.166-.542L3.1,14.7V12.142l2.264-.619.166-.542a8.213,8.213,0,0,1,.591-1.412l.266-.5L5.218,7.025,7.023,5.218,9.066,6.383l.5-.264a8.264,8.264,0,0,1,1.415-.59l.541-.167.62-2.265H14.7l.62,2.264.541.167a8.264,8.264,0,0,1,1.415.59l.5.264,2.043-1.165,1.805,1.806L20.586,8.836a9.382,9.382,0,0,0-1.762,1.571,6.189,6.189,0,0,0-11.6,3.012A6.156,6.156,0,0,0,8.8,17.536,9.228,9.228,0,0,0,7.322,21.45l-.3.17Zm4.942-3.863a4.123,4.123,0,1,1,7.273-3.435,9.323,9.323,0,0,0-.39.942c-.177-.01-.351-.04-.527-.04A9.243,9.243,0,0,0,10.161,15.953ZM9.29,22.71a7.234,7.234,0,0,1,7.226-7.226c.02,0,.04,0,.06,0a9.4,9.4,0,0,0-.06,1.028,9.3,9.3,0,0,0,9.29,9.29V23.742a7.226,7.226,0,0,1,0-14.452,7.14,7.14,0,0,1,3.206.759l.894.444.474-.878a12.383,12.383,0,0,1,23.159,4.079,9.3,9.3,0,0,0-7.087,9.016h2.065a7.226,7.226,0,1,1,7.226,7.226H16.516A7.234,7.234,0,0,1,9.29,22.71Zm1.032,40.258c-4.136,0-7.226-1.635-7.226-3.1V57a13.138,13.138,0,0,0,7.226,1.843A13.138,13.138,0,0,0,17.548,57v2.875C17.548,61.333,14.459,62.968,10.323,62.968Zm0-6.194c-4.136,0-7.226-1.635-7.226-3.1V50.8a13.138,13.138,0,0,0,7.226,1.843A13.138,13.138,0,0,0,17.548,50.8v2.875C17.548,55.139,14.459,56.774,10.323,56.774Zm7.226-9.29c0,1.462-3.09,3.1-7.226,3.1S3.1,48.946,3.1,47.484s3.09-3.1,7.226-3.1S17.548,46.022,17.548,47.484ZM33.032,62.968c-4.136,0-7.226-1.635-7.226-3.1V57a13.138,13.138,0,0,0,7.226,1.843A13.138,13.138,0,0,0,40.258,57v2.875C40.258,61.333,37.169,62.968,33.032,62.968Zm0-6.194c-4.136,0-7.226-1.635-7.226-3.1V50.8a13.138,13.138,0,0,0,7.226,1.843A13.138,13.138,0,0,0,40.258,50.8v2.875C40.258,55.139,37.169,56.774,33.032,56.774Zm7.226-9.29c0,1.462-3.09,3.1-7.226,3.1s-7.226-1.635-7.226-3.1,3.09-3.1,7.226-3.1S40.258,46.022,40.258,47.484ZM55.742,62.968c-4.136,0-7.226-1.635-7.226-3.1V57a13.138,13.138,0,0,0,7.226,1.843A13.138,13.138,0,0,0,62.968,57v2.875C62.968,61.333,59.878,62.968,55.742,62.968Zm0-6.194c-4.136,0-7.226-1.635-7.226-3.1V50.8a13.138,13.138,0,0,0,7.226,1.843A13.138,13.138,0,0,0,62.968,50.8v2.875C62.968,55.139,59.878,56.774,55.742,56.774Zm0-6.194c-4.136,0-7.226-1.635-7.226-3.1s3.09-3.1,7.226-3.1,7.226,1.635,7.226,3.1S59.878,50.581,55.742,50.581Z" fill="#004fa3"/>
      <path id="Path_12878" data-name="Path 12878" d="M50.581,46.452h2.065v2.065H50.581Z" fill="#004fa3"/>
      <path id="Path_12879" data-name="Path 12879" d="M54.71,46.452h2.065v2.065H54.71Z" fill="#004fa3"/>
      <path id="Path_12880" data-name="Path 12880" d="M58.839,46.452H60.9v2.065H58.839Z" fill="#004fa3"/>
      <path id="Path_12881" data-name="Path 12881" d="M27.871,46.452h2.065v2.065H27.871Z" fill="#004fa3"/>
      <path id="Path_12882" data-name="Path 12882" d="M32,46.452h2.065v2.065H32Z" fill="#004fa3"/>
      <path id="Path_12883" data-name="Path 12883" d="M36.129,46.452h2.065v2.065H36.129Z" fill="#004fa3"/>
      <path id="Path_12884" data-name="Path 12884" d="M5.161,46.452H7.226v2.065H5.161Z" fill="#004fa3"/>
      <path id="Path_12885" data-name="Path 12885" d="M9.29,46.452h2.065v2.065H9.29Z" fill="#004fa3"/>
      <path id="Path_12886" data-name="Path 12886" d="M13.419,46.452h2.065v2.065H13.419Z" fill="#004fa3"/>
      <path id="Path_12887" data-name="Path 12887" d="M60.9,22.71H58.839a3.1,3.1,0,0,1-3.1,3.1H45.419v2.065H55.742A5.167,5.167,0,0,0,60.9,22.71Z" fill="#004fa3"/>
      <path id="Path_12888" data-name="Path 12888" d="M41.29,25.806h2.065v2.065H41.29Z" fill="#004fa3"/>
      <path id="Path_12889" data-name="Path 12889" d="M37.161,25.806h2.065v2.065H37.161Z" fill="#004fa3"/>
      <path id="Path_12890" data-name="Path 12890" d="M41.29,5.161a10.27,10.27,0,0,0-9.249,5.733l1.849.92a8.215,8.215,0,0,1,7.4-4.588Z" fill="#004fa3"/>
      <path id="Path_12891" data-name="Path 12891" d="M20.645,16.516H22.71a3.1,3.1,0,0,1,3.1-3.1V11.355A5.167,5.167,0,0,0,20.645,16.516Z" fill="#004fa3"/>
    </g>
  </g>
</svg>
