<svg xmlns="http://www.w3.org/2000/svg" xmlns:xlink="http://www.w3.org/1999/xlink" width="64" height="64" viewBox="0 0 64 64">
  <defs>
    <clipPath id="clip-path">
      <rect id="Rectangle_191" data-name="Rectangle 191" width="64" height="64" transform="translate(193 70)" fill="#004fa3"/>
    </clipPath>
  </defs>
  <g id="Mask_Group_33" data-name="Mask Group 33" transform="translate(-193 -70)" clip-path="url(#clip-path)">
    <g id="compliance" transform="translate(193 73.109)">
      <path id="Path_12850" data-name="Path 12850" d="M57.251,0H15.866A6.488,6.488,0,0,0,9.353,6.441L9.086,42.883H1.01A1.051,1.051,0,0,0,0,43.961v5.015a8.787,8.787,0,0,0,8.291,8.745v.06h34.85v-.068c.259.011.416.068.594.068h.025a8.761,8.761,0,0,0,8.709-8.806V17.1H62.99A1.062,1.062,0,0,0,64,16.011v-9.2A6.8,6.8,0,0,0,57.251,0ZM8.745,55.708H8.738a6.716,6.716,0,0,1-6.665-6.733v-4.02H34.98v4a8.772,8.772,0,0,0,2.561,6.225,3.722,3.722,0,0,1,.546.526ZM50.4,48.974a6.693,6.693,0,0,1-6.638,6.734h-.021a6.734,6.734,0,0,1-6.685-6.75v-5a1.074,1.074,0,0,0-1.036-1.078H11.159l.267-36.434a4.415,4.415,0,0,1,4.441-4.375H52.358A7.072,7.072,0,0,0,50.4,6.837ZM61.927,6.827v8.2H52.47V6.835a4.8,4.8,0,0,1,4.751-4.762h.029A4.725,4.725,0,0,1,61.927,6.82Zm0,0" fill="#004fa3"/>
      <path id="Path_12851" data-name="Path 12851" d="M24.337,25.511l5.344,3.653a1.021,1.021,0,0,0,1.158,0l5.327-3.652a8.05,8.05,0,0,0,3.218-6.141V11.98a1.013,1.013,0,0,0-.553-.931l-8.136-4a1.018,1.018,0,0,0-.906,0l-8.121,3.991a1.011,1.011,0,0,0-.552.931v7.4a8.05,8.05,0,0,0,3.22,6.14Zm-1.147-12.9,7.061-3.484,7.061,3.493v6.746A5.973,5.973,0,0,1,35,23.8l-4.759,3.255L25.5,23.8a5.969,5.969,0,0,1-2.309-4.428Zm0,0" fill="#004fa3"/>
      <path id="Path_12852" data-name="Path 12852" d="M28.5,20.936a1.035,1.035,0,0,0,.734.311h0a1.038,1.038,0,0,0,.733-.307l4.123-4.124a1.037,1.037,0,0,0-1.466-1.467l-3.387,3.386-1.354-1.367a1.037,1.037,0,1,0-1.473,1.46Zm0,0" fill="#004fa3"/>
      <path id="Path_12853" data-name="Path 12853" d="M43.142,32.13H18.267a1.036,1.036,0,0,0,0,2.073H43.142a1.036,1.036,0,0,0,0-2.073Zm0,0" fill="#004fa3"/>
      <path id="Path_12854" data-name="Path 12854" d="M43.142,36.923H18.267a1.036,1.036,0,0,0,0,2.073H43.142a1.036,1.036,0,0,0,0-2.073Zm0,0" fill="#004fa3"/>
    </g>
  </g>
</svg>
