<svg xmlns="http://www.w3.org/2000/svg" xmlns:xlink="http://www.w3.org/1999/xlink" width="64" height="64" viewBox="0 0 64 64">
  <defs>
    <clipPath id="clip-path">
      <rect id="Rectangle_191" data-name="Rectangle 191" width="64" height="64" transform="translate(193 70)" fill="#004fa3"/>
    </clipPath>
  </defs>
  <g id="Mask_Group_32" data-name="Mask Group 32" transform="translate(-193 -70)" clip-path="url(#clip-path)">
    <g id="private-network" transform="translate(193 70)">
      <g id="Group_3781" data-name="Group 3781">
        <g id="Group_3780" data-name="Group 3780">
          <path id="Path_12840" data-name="Path 12840" d="M59.434,15.526a.954.954,0,1,0-1.634.983,30.08,30.08,0,0,1,.3,30.458.954.954,0,1,0,1.654.95A31.988,31.988,0,0,0,59.434,15.526Z" fill="#004fa3"/>
        </g>
      </g>
      <g id="Group_3783" data-name="Group 3783">
        <g id="Group_3782" data-name="Group 3782">
          <path id="Path_12841" data-name="Path 12841" d="M47.523,4.014a32.143,32.143,0,0,0-31.451.223.954.954,0,1,0,.95,1.654A30.224,30.224,0,0,1,46.6,5.681a.954.954,0,0,0,.926-1.667Z" fill="#004fa3"/>
        </g>
      </g>
      <g id="Group_3785" data-name="Group 3785">
        <g id="Group_3784" data-name="Group 3784">
          <path id="Path_12842" data-name="Path 12842" d="M5.733,15.407a.954.954,0,0,0-1.306.336,32.057,32.057,0,0,0-.746,31.173.954.954,0,0,0,1.687-.889,30.266,30.266,0,0,1,.7-29.313A.954.954,0,0,0,5.733,15.407Z" fill="#004fa3"/>
        </g>
      </g>
      <g id="Group_3787" data-name="Group 3787">
        <g id="Group_3786" data-name="Group 3786">
          <path id="Path_12843" data-name="Path 12843" d="M47.893,58.684a.953.953,0,0,0-1.3-.371,30.186,30.186,0,0,1-29.8-.343.954.954,0,1,0-.965,1.645,32.1,32.1,0,0,0,31.695.365A.953.953,0,0,0,47.893,58.684Z" fill="#004fa3"/>
        </g>
      </g>
      <g id="Group_3789" data-name="Group 3789">
        <g id="Group_3788" data-name="Group 3788">
          <path id="Path_12844" data-name="Path 12844" d="M58.071,5.248a6.137,6.137,0,1,0,0,8.678A6.144,6.144,0,0,0,58.071,5.248Zm-1.349,7.33h0a4.227,4.227,0,1,1,0-5.981A4.2,4.2,0,0,1,56.722,12.578Z" fill="#004fa3"/>
        </g>
      </g>
      <g id="Group_3791" data-name="Group 3791">
        <g id="Group_3790" data-name="Group 3790">
          <path id="Path_12845" data-name="Path 12845" d="M14.048,49.271a6.134,6.134,0,1,0,0,8.678h0A6.143,6.143,0,0,0,14.048,49.271ZM12.7,56.6a4.227,4.227,0,1,1,0-5.981A4.234,4.234,0,0,1,12.7,56.6Z" fill="#004fa3"/>
        </g>
      </g>
      <g id="Group_3793" data-name="Group 3793">
        <g id="Group_3792" data-name="Group 3792">
          <path id="Path_12846" data-name="Path 12846" d="M58.071,49.271a6.136,6.136,0,1,0-8.678,8.678h0a6.137,6.137,0,0,0,8.678-8.678ZM56.722,56.6a4.234,4.234,0,0,1-5.981,0h0a4.229,4.229,0,1,1,5.981,0Z" fill="#004fa3"/>
        </g>
      </g>
      <g id="Group_3795" data-name="Group 3795">
        <g id="Group_3794" data-name="Group 3794">
          <path id="Path_12847" data-name="Path 12847" d="M14.048,5.248a6.137,6.137,0,1,0,0,8.678A6.144,6.144,0,0,0,14.048,5.248ZM12.7,12.578a4.229,4.229,0,0,1-5.981,0h0a4.229,4.229,0,1,1,5.981,0Z" fill="#004fa3"/>
        </g>
      </g>
      <g id="Group_3797" data-name="Group 3797">
        <g id="Group_3796" data-name="Group 3796">
          <path id="Path_12848" data-name="Path 12848" d="M31.847,31.83A3.653,3.653,0,0,0,28.2,35.479a3.618,3.618,0,0,0,1.071,3v2.367a.954.954,0,0,0,.954.954h3.115a.954.954,0,0,0,.954-.954v-2.36A3.533,3.533,0,0,0,35.5,35.479,3.653,3.653,0,0,0,31.847,31.83Zm1.1,5.242a.954.954,0,0,0-.569.872v1.948H31.176V37.945a.954.954,0,0,0-.568-.872c-.333-.147-.5-.434-.5-1.593a1.742,1.742,0,0,1,3.484,0C33.589,36.791,33.158,36.981,32.952,37.072Z" fill="#004fa3"/>
        </g>
      </g>
      <g id="Group_3799" data-name="Group 3799">
        <g id="Group_3798" data-name="Group 3798">
          <path id="Path_12849" data-name="Path 12849" d="M38.824,27.656h-.937v-7.01a4.908,4.908,0,0,0-4.9-4.9H30.709a4.908,4.908,0,0,0-4.9,4.9v7.01H24.87A2.849,2.849,0,0,0,22.024,30.5V43.934A2.849,2.849,0,0,0,24.87,46.78H38.824a2.849,2.849,0,0,0,2.846-2.846V30.5A2.849,2.849,0,0,0,38.824,27.656Zm-11.11-7.01a3,3,0,0,1,3-3h2.276a3,3,0,0,1,3,3v7.01H27.714v-7.01ZM39.762,43.934a.94.94,0,0,1-.938.938H24.87a.94.94,0,0,1-.938-.938V30.5a.94.94,0,0,1,.938-.938H38.824a.94.94,0,0,1,.938.938V43.934Z" fill="#004fa3"/>
        </g>
      </g>
    </g>
  </g>
</svg>
