<svg xmlns="http://www.w3.org/2000/svg" xmlns:xlink="http://www.w3.org/1999/xlink" width="64" height="64" viewBox="0 0 64 64">
  <defs>
    <clipPath id="clip-path">
      <rect id="Rectangle_191" data-name="Rectangle 191" width="64" height="64" transform="translate(193 70)" fill="#004fa3"/>
    </clipPath>
  </defs>
  <g id="Mask_Group_46" data-name="Mask Group 46" transform="translate(-193 -70)" clip-path="url(#clip-path)">
    <path id="price-tag" d="M63.155.313a1.066,1.066,0,0,0-1.508,0L57.692,4.267H32.856L1.634,35.746a3.765,3.765,0,0,0,0,5.323L23.465,62.9a3.77,3.77,0,0,0,5.333-.011L59.2,31.666V5.775l3.954-3.954A1.066,1.066,0,0,0,63.155.313ZM57.067,30.8,27.28,61.392a1.633,1.633,0,0,1-2.306,0L3.142,39.561a1.634,1.634,0,0,1,0-2.309L33.746,6.4H55.559L50.4,11.556a5.349,5.349,0,1,0,1.508,1.508l5.155-5.155ZM50.667,16a3.2,3.2,0,1,1-3.2-3.2,3.163,3.163,0,0,1,1.371.321l-2.125,2.125a1.067,1.067,0,1,0,1.508,1.508l2.125-2.125A3.148,3.148,0,0,1,50.667,16Z" transform="translate(193 70)" fill="#004fa3"/>
  </g>
</svg>
