<svg xmlns="http://www.w3.org/2000/svg" xmlns:xlink="http://www.w3.org/1999/xlink" width="64" height="64" viewBox="0 0 64 64">
  <defs>
    <clipPath id="clip-path">
      <rect id="Rectangle_191" data-name="Rectangle 191" width="64" height="64" transform="translate(193 70)" fill="#004fa3"/>
    </clipPath>
  </defs>
  <g id="Mask_Group_38" data-name="Mask Group 38" transform="translate(-193 -70)" clip-path="url(#clip-path)">
    <g id="update" transform="translate(193 70)">
      <g id="Group_3816" data-name="Group 3816">
        <path id="Path_12875" data-name="Path 12875" d="M55.467,53.844H51.03a1.61,1.61,0,0,0,0,3.22h4.437a6.686,6.686,0,0,0,6.675-6.675V13.625A6.686,6.686,0,0,0,55.467,6.95H25.037l4.214-4.214A1.6,1.6,0,1,0,26.987.471l-6.95,6.95a1.6,1.6,0,0,0,0,2.264l6.95,6.95a1.606,1.606,0,0,0,2.277-2.264L25.05,10.156H55.48a3.474,3.474,0,0,1,3.468,3.468V50.375A3.494,3.494,0,0,1,55.467,53.844Z" fill="#004fa3"/>
        <path id="Path_12876" data-name="Path 12876" d="M34.735,63.529a1.611,1.611,0,0,0,2.277,0l6.95-6.95a1.6,1.6,0,0,0,0-2.264l-6.95-6.95a1.6,1.6,0,0,0-2.264,2.264l4.214,4.214H8.533a3.474,3.474,0,0,1-3.468-3.468V13.625a3.474,3.474,0,0,1,3.468-3.468H12.97a1.61,1.61,0,1,0,0-3.22H8.533a6.686,6.686,0,0,0-6.675,6.675V50.362a6.686,6.686,0,0,0,6.675,6.675H38.963l-4.214,4.214A1.624,1.624,0,0,0,34.735,63.529Z" fill="#004fa3"/>
      </g>
    </g>
  </g>
</svg>
