<svg xmlns="http://www.w3.org/2000/svg" xmlns:xlink="http://www.w3.org/1999/xlink" width="64" height="64" viewBox="0 0 64 64">
  <defs>
    <clipPath id="clip-path">
      <rect id="Rectangle_191" data-name="Rectangle 191" width="64" height="64" transform="translate(193 70)" fill="#004fa3"/>
    </clipPath>
  </defs>
  <g id="Mask_Group_45" data-name="Mask Group 45" transform="translate(-193 -70)" clip-path="url(#clip-path)">
    <g id="scope" transform="translate(193 70)">
      <g id="Group_3822" data-name="Group 3822">
        <g id="Group_3821" data-name="Group 3821">
          <path id="Path_12939" data-name="Path 12939" d="M44.746,30.933A12.808,12.808,0,0,0,33.067,19.254V12.8H30.933v6.454A12.808,12.808,0,0,0,19.254,30.933H12.8v2.133h6.454A12.808,12.808,0,0,0,30.933,44.746V51.2h2.133V44.746A12.808,12.808,0,0,0,44.746,33.067H51.2V30.933ZM32,42.667A10.667,10.667,0,1,1,42.667,32,10.667,10.667,0,0,1,32,42.667Z" fill="#004fa3"/>
        </g>
      </g>
      <g id="Group_3824" data-name="Group 3824">
        <g id="Group_3823" data-name="Group 3823">
          <path id="Path_12940" data-name="Path 12940" d="M37.021,51.954l-1.508-1.508L32,53.958l-3.513-3.513-1.508,1.508,4.267,4.267a1.066,1.066,0,0,0,1.508,0h0Z" fill="#004fa3"/>
        </g>
      </g>
      <g id="Group_3826" data-name="Group 3826">
        <g id="Group_3825" data-name="Group 3825">
          <path id="Path_12941" data-name="Path 12941" d="M32.754,7.779a1.066,1.066,0,0,0-1.508,0h0l-4.267,4.267,1.508,1.508L32,10.042l3.513,3.513,1.508-1.508Z" fill="#004fa3"/>
        </g>
      </g>
      <g id="Group_3828" data-name="Group 3828">
        <g id="Group_3827" data-name="Group 3827">
          <path id="Path_12942" data-name="Path 12942" d="M13.554,28.487l-1.508-1.508L7.779,31.246a1.066,1.066,0,0,0,0,1.508h0l4.267,4.267,1.508-1.508L10.042,32Z" fill="#004fa3"/>
        </g>
      </g>
      <g id="Group_3830" data-name="Group 3830">
        <g id="Group_3829" data-name="Group 3829">
          <path id="Path_12943" data-name="Path 12943" d="M56.221,31.246h0l-4.267-4.267-1.508,1.508L53.958,32l-3.513,3.513,1.508,1.508,4.267-4.267A1.066,1.066,0,0,0,56.221,31.246Z" fill="#004fa3"/>
        </g>
      </g>
      <g id="Group_3832" data-name="Group 3832">
        <g id="Group_3831" data-name="Group 3831">
          <path id="Path_12944" data-name="Path 12944" d="M32,27.733A4.267,4.267,0,1,0,36.267,32,4.267,4.267,0,0,0,32,27.733Zm0,6.4A2.133,2.133,0,1,1,34.133,32,2.133,2.133,0,0,1,32,34.133Z" fill="#004fa3"/>
        </g>
      </g>
      <g id="Group_3834" data-name="Group 3834">
        <g id="Group_3833" data-name="Group 3833">
          <path id="Path_12945" data-name="Path 12945" d="M22.083,60.181l-.708,2.013a31.868,31.868,0,0,0,4.211,1.164l.425-2.091A29.614,29.614,0,0,1,22.083,60.181Z" fill="#004fa3"/>
        </g>
      </g>
      <g id="Group_3836" data-name="Group 3836">
        <g id="Group_3835" data-name="Group 3835">
          <path id="Path_12946" data-name="Path 12946" d="M14.853,56.457,13.626,58.2a32.045,32.045,0,0,0,3.736,2.26l.977-1.9A30,30,0,0,1,14.853,56.457Z" fill="#004fa3"/>
        </g>
      </g>
      <g id="Group_3838" data-name="Group 3838">
        <g id="Group_3837" data-name="Group 3837">
          <path id="Path_12947" data-name="Path 12947" d="M8.891,50.924,7.243,52.278a32.591,32.591,0,0,0,2.99,3.179l1.452-1.564A30.452,30.452,0,0,1,8.891,50.924Z" fill="#004fa3"/>
        </g>
      </g>
      <g id="Group_3840" data-name="Group 3840">
        <g id="Group_3839" data-name="Group 3839">
          <path id="Path_12948" data-name="Path 12948" d="M4.642,44l-1.952.858a32.125,32.125,0,0,0,2.023,3.865l1.819-1.117A29.956,29.956,0,0,1,4.642,44Z" fill="#004fa3"/>
        </g>
      </g>
      <g id="Group_3842" data-name="Group 3842">
        <g id="Group_3841" data-name="Group 3841">
          <path id="Path_12949" data-name="Path 12949" d="M2.423,36.181l-2.113.3a32.1,32.1,0,0,0,.9,4.271l2.052-.582A29.992,29.992,0,0,1,2.423,36.181Z" fill="#004fa3"/>
        </g>
      </g>
      <g id="Group_3844" data-name="Group 3844">
        <g id="Group_3843" data-name="Group 3843">
          <path id="Path_12950" data-name="Path 12950" d="M61.336,19.2l-1.954.854a29.483,29.483,0,0,1,1.37,3.835l2.054-.577A31.642,31.642,0,0,0,61.336,19.2Z" fill="#004fa3"/>
        </g>
      </g>
      <g id="Group_3846" data-name="Group 3846">
        <g id="Group_3845" data-name="Group 3845">
          <path id="Path_12951" data-name="Path 12951" d="M56.8,11.771,55.144,13.12A30.285,30.285,0,0,1,57.5,16.444L59.32,15.33A32.131,32.131,0,0,0,56.8,11.771Z" fill="#004fa3"/>
        </g>
      </g>
      <g id="Group_3848" data-name="Group 3848">
        <g id="Group_3847" data-name="Group 3847">
          <path id="Path_12952" data-name="Path 12952" d="M50.424,5.833,49.195,7.576a30.419,30.419,0,0,1,3.164,2.57l1.454-1.56A32.289,32.289,0,0,0,50.424,5.833Z" fill="#004fa3"/>
        </g>
      </g>
      <g id="Group_3850" data-name="Group 3850">
        <g id="Group_3849" data-name="Group 3849">
          <path id="Path_12953" data-name="Path 12953" d="M42.685,1.828l-.713,2.011a29.738,29.738,0,0,1,3.74,1.621l.981-1.895A31.993,31.993,0,0,0,42.685,1.828Z" fill="#004fa3"/>
        </g>
      </g>
      <g id="Group_3852" data-name="Group 3852">
        <g id="Group_3851" data-name="Group 3851">
          <path id="Path_12954" data-name="Path 12954" d="M34.15.071,34.008,2.2a29.878,29.878,0,0,1,4.037.546l.429-2.09A32.012,32.012,0,0,0,34.15.071Z" fill="#004fa3"/>
        </g>
      </g>
      <g id="Group_3854" data-name="Group 3854">
        <g id="Group_3853" data-name="Group 3853">
          <path id="Path_12955" data-name="Path 12955" d="M0,32H2.133A29.9,29.9,0,0,1,32,2.133V0A32.036,32.036,0,0,0,0,32Z" fill="#004fa3"/>
        </g>
      </g>
      <g id="Group_3856" data-name="Group 3856">
        <g id="Group_3855" data-name="Group 3855">
          <path id="Path_12956" data-name="Path 12956" d="M61.867,32A29.9,29.9,0,0,1,32,61.867V64A32.036,32.036,0,0,0,64,32Z" fill="#004fa3"/>
        </g>
      </g>
    </g>
  </g>
</svg>
