<svg xmlns="http://www.w3.org/2000/svg" width="64" height="64" viewBox="0 0 64 64">
  <g id="_006-server" data-name="006-server" transform="translate(0.001 0.001)">
    <g id="Group_1586" data-name="Group 1586" transform="translate(-0.001 -0.001)">
      <g id="Group_1585" data-name="Group 1585" transform="translate(0)">
        <path id="Path_8152" data-name="Path 8152" d="M62,18V8c0-.021-.011-.039-.013-.061a.938.938,0,0,0-.053-.266c-.012-.032-.02-.063-.034-.094a.975.975,0,0,0-.188-.281l-.006-.007-4-4L57.7,3.287a.879.879,0,0,0-.376-.222,1.025,1.025,0,0,0-.262-.053C57.041,3.01,57.022,3,57,3H51a1,1,0,0,0-1,1V5.56a31.913,31.913,0,0,0-36,0V4a1,1,0,0,0-1-1H7c-.021,0-.039.011-.061.013a.973.973,0,0,0-.265.052c-.032.012-.063.02-.094.034a1.006,1.006,0,0,0-.281.189l-.007.006-4,4L2.286,7.3A.989.989,0,0,0,2.1,7.58a.952.952,0,0,0-.034.094.924.924,0,0,0-.053.265C2.009,7.961,2,7.978,2,8V18a.986.986,0,0,0,.78.956A31.637,31.637,0,0,0,0,32,31.985,31.985,0,0,0,4.038,47.541L2.292,49.287l-.006.007a.982.982,0,0,0-.188.281,1.236,1.236,0,0,0-.087.36A.6.6,0,0,0,2,50V60a1,1,0,0,0,1,1H13a1,1,0,0,0,1-1v-1.56a31.906,31.906,0,0,0,36,0V60a1,1,0,0,0,1,1H61a1,1,0,0,0,1-1V50c0-.021-.011-.039-.013-.061a.938.938,0,0,0-.053-.266c-.012-.032-.02-.063-.034-.094a.989.989,0,0,0-.188-.281l-.006-.007-1.747-1.747a31.955,31.955,0,0,0,1.262-28.584A.983.983,0,0,0,62,18ZM52,5h4V8a1,1,0,0,0,1,1h3v8H52Zm6,2V6.414L58.586,7ZM4,17V9H7A1,1,0,0,0,8,8V5h4V17ZM6,6.414V7H5.412ZM12,59H4V51H7a1,1,0,0,0,1-1V47h4ZM5.412,49,6,48.409V49ZM56,47v3a1,1,0,0,0,1,1h3v8H52V47Zm2,1.414.586.586H58Zm.485-2.343-.777-.777-.007-.006a.982.982,0,0,0-.281-.188.952.952,0,0,0-.094-.034,1,1,0,0,0-.266-.054c-.021,0-.039-.012-.061-.012H51a1,1,0,0,0-1,1v9.986a29.928,29.928,0,0,1-36,0V46a1,1,0,0,0-1-1H7c-.021,0-.038.011-.058.012a.968.968,0,0,0-.271.055c-.031.011-.062.019-.092.032a1.013,1.013,0,0,0-.281.189l-.007.006-.778.778A30.01,30.01,0,0,1,2,32,29.653,29.653,0,0,1,4.967,19H13a1,1,0,0,0,1-1V8.016a29.935,29.935,0,0,1,36,0V18a1,1,0,0,0,1,1h8.033A29.682,29.682,0,0,1,62,32a29.982,29.982,0,0,1-3.514,14.067Z" transform="translate(0.001 0.001)" fill="#004fa3"/>
        <path id="Path_8153" data-name="Path 8153" d="M141,122.017v-9.065a1,1,0,0,0-1-1H120.011a1,1,0,0,0-1,1v13.006h0a7.006,7.006,0,0,0-6.966,6.329.863.863,0,0,0-.034.168v4a7.508,7.508,0,0,0,7.5,7.5H139.75a1.028,1.028,0,0,0,.128-.025,1.122,1.122,0,0,0,.129.025,9.009,9.009,0,0,0,9-9v-4A9.01,9.01,0,0,0,141,122.017Zm-19.994,8.941v-1.007H139v1.007ZM139,127.951H121.011v-6H139Zm-17.994-14H139v6H121.011Zm19,28.007a1.132,1.132,0,0,0-.129.025,1.036,1.036,0,0,0-.128-.025H119.508a5.51,5.51,0,0,1-5.257-3.883,6.967,6.967,0,0,0,4.757,1.879H139.75a1.033,1.033,0,0,0,.128-.025.948.948,0,0,0,.129.025,8.973,8.973,0,0,0,6.713-3.025A7.01,7.01,0,0,1,140.007,141.958Zm0-4a1.125,1.125,0,0,0-.129.025.878.878,0,0,0-.128-.025H119.008a5,5,0,1,1,0-10h0v3h0a1,1,0,1,0,0,2h22a1,1,0,0,0,0-2h0v-6.92a6.993,6.993,0,0,1-1,13.916Z" transform="translate(-98.007 -97.958)" fill="#004fa3"/>
        <path id="Path_8154" data-name="Path 8154" d="M305.189,143.944h-.011a1.006,1.006,0,1,0,.011,0Z" transform="translate(-266.161 -125.951)" fill="#004fa3"/>
        <path id="Path_8155" data-name="Path 8155" d="M202.326,136.238l-2,2a1,1,0,1,0,1.414,1.414l2-2a1,1,0,1,0-1.414-1.414Z" transform="translate(-175.029 -118.952)" fill="#004fa3"/>
        <path id="Path_8156" data-name="Path 8156" d="M242.326,136.238l-2,2a1,1,0,1,0,1.414,1.414l2-2a1,1,0,0,0-1.414-1.414Z" transform="translate(-210.029 -118.952)" fill="#004fa3"/>
        <path id="Path_8157" data-name="Path 8157" d="M305.189,209.944a1,1,0,1,0,0-2h-.011a1,1,0,0,0,.011,2Z" transform="translate(-266.161 -181.951)" fill="#004fa3"/>
        <path id="Path_8158" data-name="Path 8158" d="M201.023,203.945a1,1,0,0,0,.707-.293l2-2a1,1,0,1,0-1.414-1.414l-2,2a1,1,0,0,0,.707,1.707Z" transform="translate(-175.019 -174.952)" fill="#004fa3"/>
        <path id="Path_8159" data-name="Path 8159" d="M241.023,203.945a1,1,0,0,0,.707-.293l2-2a1,1,0,0,0-1.414-1.414l-2,2a1,1,0,0,0,.707,1.707Z" transform="translate(-210.019 -174.952)" fill="#004fa3"/>
      </g>
    </g>
  </g>
</svg>
