<svg xmlns="http://www.w3.org/2000/svg" xmlns:xlink="http://www.w3.org/1999/xlink" width="100" height="100" viewBox="0 0 100 100"><defs><style>.a{fill:url(#a);}.b{clip-path:url(#b);}</style><linearGradient id="a" x1="0.5" x2="0.5" y2="1" gradientUnits="objectBoundingBox"><stop offset="0" stop-color="#005fc5"/><stop offset="1" stop-color="#004fa3"/></linearGradient><clipPath id="b"><rect class="a" width="100" height="100" rx="6" transform="translate(147 40)"/></clipPath></defs><g class="b" transform="translate(-147 -40)"><g transform="translate(147 40)"><path class="a" d="M100,36.725V24.213c0-2.2-2.506-3.841-7.661-5.015a70.269,70.269,0,0,0-12.9-1.471V5.371a1.465,1.465,0,0,0-1.465-1.465H55.166a5.37,5.37,0,0,0-10.333,0H23.377a1.465,1.465,0,0,0-1.465,1.465V17.694A72.743,72.743,0,0,0,7.661,19.2C2.506,20.372,0,22.013,0,24.213V36.725c0,1.384.992,2.546,3.011,3.51C.993,41.2,0,42.36,0,43.744V56.256c0,1.384.992,2.546,3.011,3.51C.993,60.73,0,61.891,0,63.275V75.787c0,2.2,2.506,3.84,7.661,5.015a73.361,73.361,0,0,0,14.6,1.511V94.629a1.465,1.465,0,0,0,1.465,1.465h21.1a5.37,5.37,0,0,0,10.333,0H77.973a1.465,1.465,0,0,0,1.465-1.465V82.273a70.255,70.255,0,0,0,12.9-1.471C97.494,79.627,100,77.987,100,75.787V63.275c0-1.384-.993-2.546-3.011-3.509C99.008,58.8,100,57.64,100,56.256V43.744c0-1.384-.993-2.546-3.011-3.509C99.008,39.271,100,38.108,100,36.725ZM77.973,25.678a1.465,1.465,0,0,0,1.465-1.465V20.658A69.9,69.9,0,0,1,90.983,21.9c4.647.967,5.8,2.021,6.044,2.312-.24.291-1.4,1.345-6.044,2.312a75.554,75.554,0,0,1-14.713,1.3,75.553,75.553,0,0,1-14.713-1.3c-4.647-.967-5.8-2.021-6.044-2.312.24-.291,1.4-1.345,6.044-2.312a75.553,75.553,0,0,1,14.713-1.3h.238v3.606A1.465,1.465,0,0,0,77.973,25.678ZM50,2.93a2.441,2.441,0,1,1-2.441,2.441A2.444,2.444,0,0,1,50,2.93ZM2.93,36.666V27.684a22.343,22.343,0,0,0,4.731,1.544A75.838,75.838,0,0,0,23.73,30.75c2.475,0,4.91-.091,7.237-.27a1.465,1.465,0,0,0-.225-2.921c-2.252.173-4.611.261-7.012.261a75.553,75.553,0,0,1-14.713-1.3c-4.647-.967-5.8-2.021-6.044-2.312.24-.291,1.4-1.345,6.044-2.312a72.437,72.437,0,0,1,12.895-1.278v3.589a1.465,1.465,0,0,0,2.93,0v-3.6a73.661,73.661,0,0,1,13.6,1.289c4.679.974,5.82,2.036,6.049,2.318-.361.481-2.334,1.739-8.015,2.67a1.465,1.465,0,0,0,.473,2.891,28.534,28.534,0,0,0,7.58-2.082v8.969c-.1.154-.912,1.16-5.071,2.144l-.054.013c-.3.071-.623.142-.963.213a75.554,75.554,0,0,1-14.713,1.3,75.538,75.538,0,0,1-14.713-1.3c-.339-.071-.659-.142-.962-.213L8,38.809C3.841,37.826,3.031,36.82,2.93,36.666Zm4.737,5.074A75.841,75.841,0,0,0,23.73,43.262a75.854,75.854,0,0,0,16.064-1.521c3.533.876,4.479,1.744,4.694,2-.24.291-1.4,1.345-6.045,2.312a75.555,75.555,0,0,1-14.713,1.3,75.54,75.54,0,0,1-14.713-1.3c-4.647-.967-5.8-2.021-6.045-2.312C3.187,43.484,4.134,42.617,7.667,41.741Zm0,19.531A75.84,75.84,0,0,0,23.73,62.793a75.853,75.853,0,0,0,16.064-1.521c3.533.876,4.479,1.744,4.694,2-.24.291-1.4,1.345-6.045,2.312a75.555,75.555,0,0,1-14.713,1.3,75.54,75.54,0,0,1-14.713-1.3c-4.647-.967-5.8-2.021-6.045-2.312C3.187,63.015,4.134,62.148,7.667,61.272ZM9.018,78.1c-5.05-1.051-5.979-2.2-6.088-2.37V66.746A22.354,22.354,0,0,0,7.661,68.29a75.826,75.826,0,0,0,16.07,1.522A75.826,75.826,0,0,0,39.8,68.29a22.358,22.358,0,0,0,4.731-1.544v8.982c-.109.166-1.038,1.319-6.088,2.37a75.553,75.553,0,0,1-14.713,1.3A75.538,75.538,0,0,1,9.018,78.1ZM50,97.07a2.441,2.441,0,1,1,2.441-2.441A2.444,2.444,0,0,1,50,97.07ZM97.07,75.729c-.109.166-1.038,1.319-6.088,2.37a75.553,75.553,0,0,1-14.713,1.3c-1.483,0-2.965-.034-4.4-.1a1.465,1.465,0,1,0-.136,2.927c1.483.069,3.01.1,4.539.1h.238V93.164H55.166a5.37,5.37,0,0,0-10.333,0H25.2V82.312A73.359,73.359,0,0,0,39.8,80.8c5.155-1.174,7.661-2.815,7.661-5.015V63.275c0-1.384-.993-2.546-3.011-3.509,2.019-.964,3.011-2.127,3.011-3.51a1.465,1.465,0,0,0-2.929-.06c-.1.147-.895,1.156-5.061,2.143l-.069.016c-.3.071-.621.142-.96.213a75.554,75.554,0,0,1-14.713,1.3,75.539,75.539,0,0,1-14.713-1.3c-.338-.07-.656-.141-.959-.212-.024-.007-.049-.012-.073-.018C3.84,57.355,3.031,56.351,2.93,56.2V47.215a22.354,22.354,0,0,0,4.731,1.544,75.827,75.827,0,0,0,16.07,1.522A75.827,75.827,0,0,0,39.8,48.759a22.358,22.358,0,0,0,4.731-1.544V50a1.465,1.465,0,0,0,2.93,0V43.744c0-1.384-.993-2.546-3.011-3.509,2.019-.964,3.011-2.127,3.011-3.51V24.213c0-2.2-2.506-3.841-7.661-5.015a73.962,73.962,0,0,0-14.958-1.516V6.836H44.834a5.37,5.37,0,0,0,10.333,0H76.508V17.677H76.27A75.837,75.837,0,0,0,60.2,19.2c-5.155,1.174-7.661,2.815-7.661,5.015V36.725c0,1.384.992,2.546,3.011,3.51-2.018.964-3.011,2.125-3.011,3.509V56.256c0,1.384.992,2.546,3.011,3.51-2.018.964-3.011,2.125-3.011,3.509V75.787c0,2.9,4.45,4.9,13.227,5.949a1.482,1.482,0,0,0,.176.011,1.465,1.465,0,0,0,.172-2.92c-7.332-.876-10.309-2.442-10.645-3.092V66.746A22.355,22.355,0,0,0,60.2,68.29a75.827,75.827,0,0,0,16.07,1.522,75.827,75.827,0,0,0,16.07-1.522,22.359,22.359,0,0,0,4.731-1.544v8.983Zm-.044-12.454c-.24.291-1.4,1.345-6.045,2.312a75.555,75.555,0,0,1-14.713,1.3,75.54,75.54,0,0,1-14.713-1.3c-4.647-.967-5.8-2.021-6.045-2.312.214-.26,1.16-1.127,4.694-2A75.84,75.84,0,0,0,76.27,62.793a75.853,75.853,0,0,0,16.064-1.521C95.866,62.148,96.813,63.015,97.027,63.275Zm.044-7.077c-.1.154-.911,1.157-5.058,2.141-.024.005-.047.01-.071.017-.3.071-.621.142-.959.212a75.554,75.554,0,0,1-14.713,1.3,75.539,75.539,0,0,1-14.713-1.3c-.338-.07-.656-.141-.958-.212-.025-.007-.051-.013-.076-.018-4.144-.983-4.953-1.986-5.054-2.14V47.215A22.354,22.354,0,0,0,60.2,48.759a75.827,75.827,0,0,0,16.07,1.522,75.827,75.827,0,0,0,16.07-1.522,22.358,22.358,0,0,0,4.731-1.544Zm-.044-12.454c-.24.291-1.4,1.345-6.045,2.312a75.556,75.556,0,0,1-14.713,1.3,75.54,75.54,0,0,1-14.713-1.3c-4.647-.967-5.8-2.021-6.045-2.312.214-.26,1.16-1.127,4.694-2A75.841,75.841,0,0,0,76.27,43.262,75.853,75.853,0,0,0,92.333,41.74C95.866,42.617,96.813,43.484,97.027,43.744Zm.044-7.078c-.1.154-.912,1.16-5.069,2.144l-.057.014c-.3.071-.623.142-.962.213a75.554,75.554,0,0,1-14.713,1.3,75.539,75.539,0,0,1-14.713-1.3c-.339-.071-.658-.142-.961-.213l-.062-.015c-4.154-.984-4.964-1.989-5.065-2.143V27.684A22.343,22.343,0,0,0,60.2,29.228,75.838,75.838,0,0,0,76.27,30.75a75.837,75.837,0,0,0,16.07-1.522,22.358,22.358,0,0,0,4.731-1.544Z"/><circle class="a" cx="1.465" cy="1.465" r="1.465" transform="translate(7.936 34.873)"/><circle class="a" cx="1.465" cy="1.465" r="1.465" transform="translate(7.949 30.674)"/><circle class="a" cx="1.465" cy="1.465" r="1.465" transform="translate(7.936 54.404)"/><circle class="a" cx="1.465" cy="1.465" r="1.465" transform="translate(7.949 50.205)"/><circle class="a" cx="1.465" cy="1.465" r="1.465" transform="translate(7.936 73.936)"/><circle class="a" cx="1.465" cy="1.465" r="1.465" transform="translate(7.949 69.736)"/><circle class="a" cx="1.465" cy="1.465" r="1.465" transform="translate(61.061 34.873)"/><circle class="a" cx="1.465" cy="1.465" r="1.465" transform="translate(61.074 30.674)"/><circle class="a" cx="1.465" cy="1.465" r="1.465" transform="translate(61.061 54.404)"/><circle class="a" cx="1.465" cy="1.465" r="1.465" transform="translate(61.074 50.205)"/><circle class="a" cx="1.465" cy="1.465" r="1.465" transform="translate(61.061 73.936)"/><circle class="a" cx="1.465" cy="1.465" r="1.465" transform="translate(61.074 69.736)"/></g></g></svg>