<svg xmlns="http://www.w3.org/2000/svg" xmlns:xlink="http://www.w3.org/1999/xlink" width="100" height="100" viewBox="0 0 100 100"><defs><style>.a{fill:url(#a);}.b{clip-path:url(#b);}</style><linearGradient id="a" x1="0.5" x2="0.5" y2="1" gradientUnits="objectBoundingBox"><stop offset="0" stop-color="#005fc5"/><stop offset="1" stop-color="#004fa3"/></linearGradient><clipPath id="b"><rect class="a" width="100" height="100" rx="6" transform="translate(93 40)"/></clipPath></defs><g class="b" transform="translate(-93 -40)"><g transform="translate(93.002 40.001)"><path class="a" d="M88.332,25V8.335a1.667,1.667,0,0,0-1.667-1.667H80V10h5V25Zm0,0"/><path class="a" d="M11.669,50V91.663a1.667,1.667,0,0,0,1.667,1.667H80a1.667,1.667,0,0,0,1.667-1.667V80H78.332V90H15V50Zm0,0"/><path class="a" d="M65.69.168c-.052-.024-.1-.037-.155-.055A1.657,1.657,0,0,0,65.1.027.636.636,0,0,0,65,0H13.336a1.667,1.667,0,0,0-1.667,1.667V5H15V3.335H63.333V16.667A1.667,1.667,0,0,0,65,18.334H78.332v8.333h3.333v-10c0-.035-.018-.067-.02-.1a1.624,1.624,0,0,0-.086-.431c-.019-.054-.032-.1-.055-.155a1.656,1.656,0,0,0-.333-.488l-15-15A1.669,1.669,0,0,0,65.69.168ZM75.976,15H66.666V5.691Zm0,0"/><path class="a" d="M38.335,70V83.33A1.667,1.667,0,0,0,40,85H61.667V81.664h-20v-10H50V68.331H40A1.667,1.667,0,0,0,38.335,70Zm0,0"/><path class="a" d="M45,75H55v3.333H45Zm0,0"/><path class="a" d="M88.332,28.333A11.681,11.681,0,0,0,76.666,40v.167l-8.5,8.972-5.321-5.321a1.666,1.666,0,0,0-2.357,0l-15,15a1.667,1.667,0,0,0,0,2.357L68.821,84.505a1.667,1.667,0,0,0,2.357,0l5-5L85,70.688V96.663H20V100H86.665a1.667,1.667,0,0,0,1.667-1.667v-40H85v7.643l-5.809-5.809,8.976-8.5h.167a11.666,11.666,0,0,0,0-23.332ZM70,80.974,49.024,60l2.643-2.643L72.643,78.331ZM82.642,68.331,75,75.974,54.024,55l7.643-7.643,4.206,4.206-3.75,3.956a1.667,1.667,0,0,0,.032,2.333l8.333,8.333a1.666,1.666,0,0,0,2.323.032l3.958-3.75Zm5.69-20H87.5a1.67,1.67,0,0,0-1.147.457L71.7,62.665l-6.032-6.032L79.549,41.979A1.666,1.666,0,0,0,80,40.833V40a8.333,8.333,0,1,1,8.333,8.333Zm0,0"/><path class="a" d="M31.668,48.332H48.334v3.333H31.668Zm0,0"/><path class="a" d="M21.669,55h20v3.333h-20Zm0,0"/><path class="a" d="M36.668,41.666h20V45h-20Zm0,0"/><path class="a" d="M21.669,61.665h10V65h-10Zm0,0"/><path class="a" d="M21.669,68.331H35v3.333H21.669Zm0,0"/><path class="a" d="M21.669,75H35v3.333H21.669Zm0,0"/><path class="a" d="M21.669,81.664H35V85H21.669Zm0,0"/><path class="a" d="M21.669,48.332h6.666v3.333H21.669Zm0,0"/><path class="a" d="M35,61.665h6.666V65H35Zm0,0"/><path class="a" d="M41.668,33.333H58.333v3.333H41.668Zm0,0"/><path class="a" d="M20,46.666a20,20,0,0,0,19.964-19.3,4.406,4.406,0,0,0,3.231,1.01,4.52,4.52,0,0,0,6.94,0,4.521,4.521,0,0,0,4.906-4.906,4.52,4.52,0,0,0,0-6.94,4.521,4.521,0,0,0-4.906-4.906,4.52,4.52,0,0,0-6.94,0,4.521,4.521,0,0,0-4.906,4.906,4.327,4.327,0,0,0-.666.687A20,20,0,1,0,20,46.666ZM40.777,18.9a1.665,1.665,0,0,0,.947-2.284,1.166,1.166,0,0,1,1.558-1.558,1.665,1.665,0,0,0,2.284-.947,1.167,1.167,0,0,1,2.2,0,1.666,1.666,0,0,0,2.285.947,1.166,1.166,0,0,1,1.558,1.558,1.665,1.665,0,0,0,.947,2.284,1.167,1.167,0,0,1,0,2.2,1.666,1.666,0,0,0-.947,2.285,1.121,1.121,0,0,1-.229,1.333,1.135,1.135,0,0,1-1.334.23,1.666,1.666,0,0,0-2.284.946,1.167,1.167,0,0,1-2.2,0,1.662,1.662,0,0,0-.933-.981,1.7,1.7,0,0,0-.638-.127,1.632,1.632,0,0,0-.714.167A1.166,1.166,0,0,1,41.72,23.4a1.667,1.667,0,0,0-.947-2.285,1.166,1.166,0,0,1,0-2.2ZM20,10A16.666,16.666,0,1,1,3.336,26.667,16.666,16.666,0,0,1,20,10Zm0,0"/><path class="a" d="M12.158,36.178a1.667,1.667,0,0,0,2.357,0L31.18,19.512l-2.357-2.357L13.336,32.643,9.514,28.822,7.158,31.178Zm0,0"/></g></g></svg>