<svg xmlns="http://www.w3.org/2000/svg" xmlns:xlink="http://www.w3.org/1999/xlink" width="64" height="64" viewBox="0 0 64 64">
  <defs>
    <clipPath id="clip-path">
      <rect id="Rectangle_191" data-name="Rectangle 191" width="64" height="64" transform="translate(193 70)" fill="#004fa3"/>
    </clipPath>
  </defs>
  <g id="Mask_Group_26" data-name="Mask Group 26" transform="translate(-193 -70)" clip-path="url(#clip-path)">
    <g id="security" transform="translate(193 70)">
      <g id="Group_3779" data-name="Group 3779">
        <g id="Group_3778" data-name="Group 3778">
          <path id="Path_12811" data-name="Path 12811" d="M58.3,11.051A106.46,106.46,0,0,1,32.685.187a1.346,1.346,0,0,0-1.369,0A103.545,103.545,0,0,1,5.7,11.051a1.346,1.346,0,0,0-.99,1.3V26.106A39.573,39.573,0,0,0,16.727,55.019C22.629,60.8,29.5,64,32,64s9.371-3.2,15.273-8.981A39.573,39.573,0,0,0,59.29,26.106V12.35A1.346,1.346,0,0,0,58.3,11.051ZM56.6,26.105A36.934,36.934,0,0,1,45.389,53.1c-5.8,5.687-12.009,8.212-13.388,8.212S24.415,58.782,18.611,53.1A36.934,36.934,0,0,1,7.4,26.105V13.372A106.026,106.026,0,0,0,32,2.906,109.381,109.381,0,0,0,56.6,13.371Z" fill="#004fa3"/>
          <path id="Path_12812" data-name="Path 12812" d="M20.067,13.221a1.346,1.346,0,0,0-1.746-.759c-2.4.948-4.873,1.82-7.337,2.593a1.346,1.346,0,0,0-.943,1.284v5.2a1.346,1.346,0,1,0,2.692,0V17.323c2.21-.715,4.417-1.506,6.575-2.356A1.346,1.346,0,0,0,20.067,13.221Z" fill="#004fa3"/>
          <path id="Path_12813" data-name="Path 12813" d="M22.625,13.476a1.347,1.347,0,0,0,.54-.113l.025-.011A1.346,1.346,0,1,0,22.1,10.889l-.022.009a1.346,1.346,0,0,0,.544,2.578Z" fill="#004fa3"/>
          <path id="Path_12814" data-name="Path 12814" d="M48.04,43.41a1.347,1.347,0,0,0-1.863.391,32.767,32.767,0,0,1-3.869,4.832,34.387,34.387,0,0,1-3.862,3.436,1.346,1.346,0,1,0,1.633,2.141A37.107,37.107,0,0,0,44.243,50.5a35.426,35.426,0,0,0,4.187-5.231A1.346,1.346,0,0,0,48.04,43.41Z" fill="#004fa3"/>
          <path id="Path_12815" data-name="Path 12815" d="M35.32,54.18l-.077.046a1.346,1.346,0,1,0,1.349,2.33l.089-.052A1.346,1.346,0,1,0,35.32,54.18Z" fill="#004fa3"/>
          <path id="Path_12816" data-name="Path 12816" d="M22.824,29.252a4.378,4.378,0,1,0-6.191,6.191l7.949,7.949a4.379,4.379,0,0,0,6.191,0l16.6-16.6a4.378,4.378,0,0,0-6.191-6.191l-13.5,13.5Zm20.257-6.742a1.685,1.685,0,1,1,2.383,2.383L28.869,41.489a1.686,1.686,0,0,1-2.384,0L18.536,33.54a1.685,1.685,0,0,1,2.383-2.383l5.806,5.806a1.346,1.346,0,0,0,1.9,0Z" fill="#004fa3"/>
        </g>
      </g>
    </g>
  </g>
</svg>
