<svg xmlns="http://www.w3.org/2000/svg" xmlns:xlink="http://www.w3.org/1999/xlink" width="64" height="64" viewBox="0 0 64 64">
  <defs>
    <clipPath id="clip-path">
      <rect id="Rectangle_191" data-name="Rectangle 191" width="64" height="64" transform="translate(193 70)" fill="#004fa3"/>
    </clipPath>
  </defs>
  <g id="Mask_Group_36" data-name="Mask Group 36" transform="translate(-193 -70)" clip-path="url(#clip-path)">
    <g id="harddisk" transform="translate(198.333 70)">
      <path id="Path_12858" data-name="Path 12858" d="M50.133,64a3.2,3.2,0,0,0,3.2-3.2V3.2a3.2,3.2,0,0,0-3.2-3.2H3.2A3.2,3.2,0,0,0,0,3.2V60.8A3.2,3.2,0,0,0,3.2,64Zm-48-3.2V3.2A1.067,1.067,0,0,1,3.2,2.133H50.133A1.067,1.067,0,0,1,51.2,3.2V60.8a1.067,1.067,0,0,1-1.067,1.067H3.2A1.067,1.067,0,0,1,2.133,60.8Zm0,0" fill="#004fa3"/>
      <path id="Path_12859" data-name="Path 12859" d="M13.967,45.109l-1.666.881a1.066,1.066,0,0,0-.568.943v5.333A1.067,1.067,0,0,0,12.8,53.333h7.467a1.067,1.067,0,0,0,.868-.447l2.852-3.994a22.707,22.707,0,0,0,2.68.174,22.419,22.419,0,1,0-12.7-3.957Zm5.75,6.091H13.867V47.573l13.572-7.185ZM26.667,6.4a20.267,20.267,0,1,1,0,40.533c-.415,0-.831-.021-1.247-.046L31.8,37.953a1.066,1.066,0,0,0-1.367-1.562l-14.31,7.573A20.267,20.267,0,0,1,26.667,6.4Zm0,0" fill="#004fa3"/>
      <path id="Path_12860" data-name="Path 12860" d="M7.467,10.667a3.2,3.2,0,1,0-3.2-3.2A3.2,3.2,0,0,0,7.467,10.667Zm0-4.267A1.067,1.067,0,1,1,6.4,7.467,1.067,1.067,0,0,1,7.467,6.4Zm0,0" fill="#004fa3"/>
      <path id="Path_12861" data-name="Path 12861" d="M45.867,53.333a3.2,3.2,0,1,0,3.2,3.2A3.2,3.2,0,0,0,45.867,53.333Zm0,4.267a1.067,1.067,0,1,1,1.067-1.067A1.067,1.067,0,0,1,45.867,57.6Zm0,0" fill="#004fa3"/>
      <path id="Path_12862" data-name="Path 12862" d="M7.467,59.733a3.2,3.2,0,1,0-3.2-3.2A3.2,3.2,0,0,0,7.467,59.733Zm0-4.267A1.067,1.067,0,1,1,6.4,56.533,1.067,1.067,0,0,1,7.467,55.467Zm0,0" fill="#004fa3"/>
      <path id="Path_12863" data-name="Path 12863" d="M45.867,10.667a3.2,3.2,0,1,0-3.2-3.2A3.2,3.2,0,0,0,45.867,10.667Zm0-4.267A1.067,1.067,0,1,1,44.8,7.467,1.067,1.067,0,0,1,45.867,6.4Zm0,0" fill="#004fa3"/>
      <path id="Path_12864" data-name="Path 12864" d="M12.8,55.467H40.533V57.6H12.8Zm0,0" fill="#004fa3"/>
      <path id="Path_12865" data-name="Path 12865" d="M19.2,26.667A7.467,7.467,0,1,0,26.667,19.2,7.466,7.466,0,0,0,19.2,26.667Zm12.8,0a5.333,5.333,0,1,1-5.333-5.333A5.334,5.334,0,0,1,32,26.667Zm0,0" fill="#004fa3"/>
      <path id="Path_12866" data-name="Path 12866" d="M23.467,26.667a3.2,3.2,0,1,0,3.2-3.2A3.2,3.2,0,0,0,23.467,26.667Zm4.267,0A1.067,1.067,0,1,1,26.667,25.6,1.067,1.067,0,0,1,27.733,26.667Zm0,0" fill="#004fa3"/>
      <path id="Path_12867" data-name="Path 12867" d="M26.667,13.867V11.733A14.949,14.949,0,0,0,11.733,26.667h2.133A12.814,12.814,0,0,1,26.667,13.867Zm0,0" fill="#004fa3"/>
    </g>
  </g>
</svg>
