<svg xmlns="http://www.w3.org/2000/svg" xmlns:xlink="http://www.w3.org/1999/xlink" width="100" height="100" viewBox="0 0 100 100"><defs><style>.a{fill:url(#a);}.b{clip-path:url(#b);}</style><linearGradient id="a" x1="0.5" x2="0.5" y2="1" gradientUnits="objectBoundingBox"><stop offset="0" stop-color="#005fc5"/><stop offset="1" stop-color="#004fa3"/></linearGradient><clipPath id="b"><rect class="a" width="100" height="100" rx="6" transform="translate(147 40)"/></clipPath></defs><g class="b" transform="translate(-147 -40)"><g transform="translate(145.387 38.387)"><path class="a" d="M85.226,51.161V38.774H72.839V26.387H60.047a29.4,29.4,0,1,0-39.854,31.97V72.839H32.581V85.226H44.968V97.613H97.613V51.161ZM4.789,32.581H17.165A37.889,37.889,0,0,0,19.81,44.968H8.742A26.114,26.114,0,0,1,4.789,32.581ZM31.032,5.331A41.373,41.373,0,0,1,37.339,14H24.726A41.374,41.374,0,0,1,31.032,5.331ZM38.858,17.1A34.877,34.877,0,0,1,41.8,29.484H20.263A34.91,34.91,0,0,1,23.207,17.1ZM57.276,29.484H44.9A37.889,37.889,0,0,0,42.255,17.1H53.323A26.114,26.114,0,0,1,57.276,29.484Zm-40.113,0H4.789A26.116,26.116,0,0,1,8.743,17.1H19.811A37.849,37.849,0,0,0,17.163,29.484Zm3.1,3.1H41.8a34.91,34.91,0,0,1-2.943,12.387H23.207A34.91,34.91,0,0,1,20.263,32.581ZM37.339,48.065a41.373,41.373,0,0,1-6.307,8.669,41.417,41.417,0,0,1-6.307-8.669Zm3.544,0H51.065a26.288,26.288,0,0,1-16.1,8.964,43.786,43.786,0,0,0,5.921-8.964Zm12.44-3.1H42.255A37.85,37.85,0,0,0,44.9,32.581H57.276A26.114,26.114,0,0,1,53.323,44.968ZM51.065,14H40.883a43.786,43.786,0,0,0-5.921-8.964A26.276,26.276,0,0,1,51.065,14ZM27.1,5.036A43.853,43.853,0,0,0,21.181,14H11A26.276,26.276,0,0,1,27.1,5.036ZM11,48.065H21.181A43.853,43.853,0,0,0,27.1,57.028,26.284,26.284,0,0,1,11,48.065ZM23.29,59.383A29.318,29.318,0,0,0,60.452,31.032c0-.523-.051-1.033-.079-1.548h9.369V69.742H23.29ZM35.677,72.839H72.839V41.871h9.29V82.129H35.677ZM94.516,94.516H48.065v-9.29H85.226V54.258h9.29Z" transform="translate(2 2)"/><path class="a" d="M24.194,24.194h3.226v3.226H24.194Z"/><path class="a" d="M30.645,24.194h3.226v3.226H30.645Z"/><path class="a" d="M37.1,24.194h3.226v3.226H37.1Z"/><path class="a" d="M24.194,37.1h3.226v3.226H24.194Z"/><path class="a" d="M30.645,37.1h3.226v3.226H30.645Z"/><path class="a" d="M37.1,37.1h3.226v3.226H37.1Z"/><path class="a" d="M27.419,66.129h3.226v3.226H27.419Z"/><path class="a" d="M33.871,66.129H37.1v3.226H33.871Z"/><path class="a" d="M40.323,66.129h3.226v3.226H40.323Z"/><path class="a" d="M79.032,46.774h3.226V50H79.032Z"/><path class="a" d="M79.032,53.226h3.226v3.226H79.032Z"/><path class="a" d="M79.032,59.677h3.226V62.9H79.032Z"/><path class="a" d="M53.226,91.935h3.226v3.226H53.226Z"/><path class="a" d="M59.677,91.935H62.9v3.226H59.677Z"/><path class="a" d="M66.129,91.935h3.226v3.226H66.129Z"/></g></g></svg>