<svg xmlns="http://www.w3.org/2000/svg" xmlns:xlink="http://www.w3.org/1999/xlink" width="64" height="64" viewBox="0 0 64 64">
  <defs>
    <clipPath id="clip-path">
      <rect id="Rectangle_191" data-name="Rectangle 191" width="64" height="64" transform="translate(193 70)" fill="#004fa3"/>
    </clipPath>
  </defs>
  <g id="Mask_Group_42" data-name="Mask Group 42" transform="translate(-193 -70)" clip-path="url(#clip-path)">
    <g id="localize" transform="translate(190.714 67.571)">
      <path id="Path_12934" data-name="Path 12934" d="M34.286,45A19.286,19.286,0,1,1,53.572,25.714,19.286,19.286,0,0,1,34.286,45Zm0-36.429A17.143,17.143,0,1,0,51.429,25.714,17.143,17.143,0,0,0,34.286,8.571Z" fill="#004fa3"/>
      <path id="Path_12935" data-name="Path 12935" d="M34.286,66.429a1.071,1.071,0,0,1-.7-.265,92.6,92.6,0,0,1-11.4-12.457C14.572,43.724,10.714,34.4,10.714,26a23.572,23.572,0,0,1,47.143,0c0,8.4-3.857,17.724-11.464,27.707a92.6,92.6,0,0,1-11.4,12.457,1.071,1.071,0,0,1-.705.265Zm0-62.143A21.6,21.6,0,0,0,12.857,26c0,17.027,17.65,34.386,21.429,37.906C38.065,60.384,55.715,43.014,55.715,26A21.6,21.6,0,0,0,34.286,4.286Z" fill="#004fa3"/>
      <path id="Path_12936" data-name="Path 12936" d="M41.572,36.346a1.071,1.071,0,0,1-.5-.122l-6.788-3.568L27.5,36.224a1.071,1.071,0,0,1-1.554-1.13l1.3-7.556L21.75,22.187a1.071,1.071,0,0,1,.6-1.83l7.587-1.1,3.389-6.872a1.114,1.114,0,0,1,1.92,0l3.393,6.874,7.591,1.1a1.071,1.071,0,0,1,.594,1.828l-5.49,5.351,1.3,7.556a1.071,1.071,0,0,1-1.055,1.253Zm-7.286-5.972a1.065,1.065,0,0,1,.5.123l5.364,2.824-1.024-5.971a1.071,1.071,0,0,1,.308-.948l4.338-4.229L37.774,21.3a1.071,1.071,0,0,1-.807-.586l-2.682-5.439-2.679,5.433a1.071,1.071,0,0,1-.807.586l-5.995.871L29.143,26.4a1.071,1.071,0,0,1,.308.948l-1.026,5.976L33.788,30.5a1.065,1.065,0,0,1,.5-.129Z" fill="#004fa3"/>
    </g>
  </g>
</svg>
