<svg xmlns="http://www.w3.org/2000/svg" xmlns:xlink="http://www.w3.org/1999/xlink" width="64" height="64" viewBox="0 0 64 64">
  <defs>
    <clipPath id="clip-path">
      <rect id="Rectangle_191" data-name="Rectangle 191" width="64" height="64" transform="translate(193 70)" fill="#004fa3"/>
    </clipPath>
  </defs>
  <g id="Mask_Group_47" data-name="Mask Group 47" transform="translate(-193 -70)" clip-path="url(#clip-path)">
    <g id="surface1" transform="translate(193.516 70)">
      <path id="Path_12957" data-name="Path 12957" d="M58.684,0H9.617A4.267,4.267,0,0,0,5.35,4.267v25.6H7.484V4.267A2.133,2.133,0,0,1,9.617,2.133H58.684a2.133,2.133,0,0,1,2.133,2.133V46.933a2.133,2.133,0,0,1-2.133,2.133h-22.4V51.2h22.4a4.267,4.267,0,0,0,4.267-4.267V4.267A4.267,4.267,0,0,0,58.684,0Zm0,0" fill="#004fa3"/>
      <path id="Path_12958" data-name="Path 12958" d="M9.617,4.267H11.75V6.4H9.617Zm0,0" fill="#004fa3"/>
      <path id="Path_12959" data-name="Path 12959" d="M13.884,4.267h2.133V6.4H13.884Zm0,0" fill="#004fa3"/>
      <path id="Path_12960" data-name="Path 12960" d="M18.15,4.267h2.133V6.4H18.15Zm0,0" fill="#004fa3"/>
      <path id="Path_12961" data-name="Path 12961" d="M9.617,8.533H58.684v2.133H9.617Zm0,0" fill="#004fa3"/>
      <path id="Path_12962" data-name="Path 12962" d="M9.617,25.6a1.066,1.066,0,0,0,1.067,1.067h12.8A1.066,1.066,0,0,0,24.55,25.6V17.067A1.066,1.066,0,0,0,23.484,16H18.592l-1.821-1.821a1.066,1.066,0,0,0-.754-.313H10.684a1.066,1.066,0,0,0-1.067,1.067ZM11.75,16h3.825L17.4,17.821a1.066,1.066,0,0,0,.754.313h4.267v6.4H11.75Zm0,0" fill="#004fa3"/>
      <path id="Path_12963" data-name="Path 12963" d="M41.617,17.067A1.066,1.066,0,0,0,40.55,16H35.659l-1.821-1.821a1.066,1.066,0,0,0-.754-.313H27.75a1.066,1.066,0,0,0-1.067,1.067V25.6a1.066,1.066,0,0,0,1.067,1.067h12.8A1.066,1.066,0,0,0,41.617,25.6Zm-2.133,7.467H28.817V16h3.825l1.821,1.821a1.066,1.066,0,0,0,.754.313h4.267Zm0,0" fill="#004fa3"/>
      <path id="Path_12964" data-name="Path 12964" d="M58.684,17.067A1.066,1.066,0,0,0,57.617,16H52.725L50.9,14.179a1.066,1.066,0,0,0-.754-.313H44.817a1.066,1.066,0,0,0-1.067,1.067V25.6a1.066,1.066,0,0,0,1.067,1.067h12.8A1.066,1.066,0,0,0,58.684,25.6ZM56.55,24.533H45.884V16h3.825l1.821,1.821a1.066,1.066,0,0,0,.754.313H56.55Zm0,0" fill="#004fa3"/>
      <path id="Path_12965" data-name="Path 12965" d="M36.284,41.6v2.133H40.55a1.066,1.066,0,0,0,1.067-1.067V34.133a1.066,1.066,0,0,0-1.067-1.067H35.659l-1.821-1.821a1.066,1.066,0,0,0-.754-.313h-3.2v2.133h2.758l1.821,1.821a1.066,1.066,0,0,0,.754.313h4.267v6.4Zm0,0" fill="#004fa3"/>
      <path id="Path_12966" data-name="Path 12966" d="M57.617,33.067H52.725L50.9,31.246a1.066,1.066,0,0,0-.754-.313H44.817A1.066,1.066,0,0,0,43.75,32V42.667a1.066,1.066,0,0,0,1.067,1.067h12.8a1.066,1.066,0,0,0,1.067-1.067V34.133A1.066,1.066,0,0,0,57.617,33.067ZM56.55,41.6H45.884V33.067h3.825l1.821,1.821a1.066,1.066,0,0,0,.754.313H56.55Zm0,0" fill="#004fa3"/>
      <path id="Path_12967" data-name="Path 12967" d="M3.9,42.667H1.084A1.066,1.066,0,0,0,.017,43.733v6.4A1.066,1.066,0,0,0,1.084,51.2H3.9a13.806,13.806,0,0,0,.843,2.037L2.753,55.23a1.068,1.068,0,0,0,0,1.509l4.526,4.526a1.068,1.068,0,0,0,1.509,0l1.992-1.993a13.8,13.8,0,0,0,2.037.843v2.819A1.066,1.066,0,0,0,13.884,64h6.4a1.066,1.066,0,0,0,1.067-1.067V60.114a13.8,13.8,0,0,0,2.037-.843l1.992,1.993a1.068,1.068,0,0,0,1.509,0l4.526-4.526a1.068,1.068,0,0,0,0-1.509l-1.993-1.992a13.8,13.8,0,0,0,.843-2.037h2.819a1.066,1.066,0,0,0,1.067-1.067v-6.4a1.066,1.066,0,0,0-1.067-1.067H30.265a13.8,13.8,0,0,0-.843-2.037l1.993-1.992a1.068,1.068,0,0,0,0-1.509L26.889,32.6a1.068,1.068,0,0,0-1.509,0L23.388,34.6a13.8,13.8,0,0,0-2.037-.843V30.933a1.066,1.066,0,0,0-1.067-1.067h-6.4a1.066,1.066,0,0,0-1.067,1.067v2.819a13.8,13.8,0,0,0-2.037.843L8.787,32.6a1.068,1.068,0,0,0-1.509,0L2.753,37.129a1.068,1.068,0,0,0,0,1.509l1.993,1.992c-.089.173-.174.349-.255.526A13.862,13.862,0,0,0,3.9,42.667ZM5.737,44a11.636,11.636,0,0,1,1.248-3.017,1.067,1.067,0,0,0-.164-1.3l-1.8-1.8,3.018-3.018,1.8,1.8a1.067,1.067,0,0,0,1.3.164,11.662,11.662,0,0,1,3.017-1.248,1.067,1.067,0,0,0,.8-1.033V32h4.267v2.554a1.067,1.067,0,0,0,.8,1.033,11.662,11.662,0,0,1,3.016,1.248,1.067,1.067,0,0,0,1.3-.164l1.8-1.8,3.018,3.018-1.8,1.8a1.067,1.067,0,0,0-.164,1.3A11.664,11.664,0,0,1,28.431,44a1.067,1.067,0,0,0,1.033.8h2.554v4.267H29.463a1.067,1.067,0,0,0-1.033.8,11.664,11.664,0,0,1-1.248,3.016,1.067,1.067,0,0,0,.164,1.3l1.8,1.8L26.134,59l-1.8-1.8a1.067,1.067,0,0,0-1.3-.164,11.664,11.664,0,0,1-3.016,1.248,1.067,1.067,0,0,0-.8,1.033v2.554H14.95V59.313a1.067,1.067,0,0,0-.8-1.033,11.664,11.664,0,0,1-3.017-1.248,1.067,1.067,0,0,0-1.3.164L8.033,59,5.015,55.984l1.8-1.8a1.067,1.067,0,0,0,.164-1.3,11.661,11.661,0,0,1-1.248-3.016,1.067,1.067,0,0,0-1.033-.8H2.15V44.8H4.7A1.067,1.067,0,0,0,5.737,44Zm0,0" fill="#004fa3"/>
      <path id="Path_12968" data-name="Path 12968" d="M17.084,54.4a7.467,7.467,0,1,0-7.467-7.467A7.466,7.466,0,0,0,17.084,54.4Zm0-12.8a5.333,5.333,0,1,1-5.333,5.333A5.334,5.334,0,0,1,17.084,41.6Zm0,0" fill="#004fa3"/>
    </g>
  </g>
</svg>
