<svg xmlns="http://www.w3.org/2000/svg" xmlns:xlink="http://www.w3.org/1999/xlink" width="64" height="64" viewBox="0 0 64 64">
  <defs>
    <linearGradient id="linear-gradient" x1="0.5" x2="0.5" y2="1" gradientUnits="objectBoundingBox">
      <stop offset="0" stop-color="#005fc5"/>
      <stop offset="1" stop-color="#004fa3"/>
    </linearGradient>
    <clipPath id="clip-path">
      <rect id="Rectangle_522" data-name="Rectangle 522" width="64" height="64" fill="url(#linear-gradient)"/>
    </clipPath>
  </defs>
  <g id="Mask_Group_54" data-name="Mask Group 54" clip-path="url(#clip-path)">
    <g id="computer" transform="translate(1.201 0)">
      <path id="Path_13113" data-name="Path 13113" d="M91.734,31.181A1.181,1.181,0,0,0,90.553,30H41.681A1.181,1.181,0,0,0,40.5,31.181V65.887a1.181,1.181,0,0,0,1.181,1.181H90.553a1.181,1.181,0,0,0,1.181-1.181ZM42.861,64.706v-5.32h9.775a3.148,3.148,0,1,0,0-2.361H42.861V54.4H60.967l2.968,2.968a3.155,3.155,0,1,0,1.7-1.638l-3.345-3.345a1.18,1.18,0,0,0-.835-.346h-18.6V49.715H75.3a3.148,3.148,0,1,0,0-2.361H42.861V45.032h8.127a1.18,1.18,0,0,0,.835-.346L55.17,41.34a3.157,3.157,0,1,0-1.7-1.638L50.5,42.671H42.861V32.361H89.373v2.911H71.036a1.18,1.18,0,0,0-.835.346l-3.346,3.346a3.157,3.157,0,1,0,1.7,1.638l2.969-2.969H89.373V57.467H79.991a3.148,3.148,0,1,0,0,2.361h9.382v4.878Zm11.9-6.5a.787.787,0,1,1,.787.787A.788.788,0,0,1,54.766,58.206Zm12.042-.345a.787.787,0,1,1-.787.787A.788.788,0,0,1,66.807,57.86Zm10.624-9.326a.787.787,0,1,1,.787.787A.788.788,0,0,1,77.431,48.534ZM55.554,38.42a.787.787,0,1,1,.787.787A.788.788,0,0,1,55.554,38.42Zm10.917,3.464a.787.787,0,1,1-.787-.787A.788.788,0,0,1,66.471,41.884Zm11.39,16.763a.787.787,0,1,1-.787-.787A.788.788,0,0,1,77.862,58.647Z" transform="translate(-35.424 -25.278)" fill="url(#linear-gradient)"/>
      <path id="Path_13114" data-name="Path 13114" d="M65.069,49.346H53.819V46.512H64.529a4.759,4.759,0,0,0,4.754-4.754v-37A4.759,4.759,0,0,0,64.529,0H13.359A4.759,4.759,0,0,0,8.6,4.754v37a4.759,4.759,0,0,0,4.754,4.754H24.07v2.833H12.82a4.574,4.574,0,0,0-4.569,4.569v5.5a4.574,4.574,0,0,0,4.569,4.569H65.069a4.574,4.574,0,0,0,4.569-4.569v-5.5A4.574,4.574,0,0,0,65.069,49.346Zm-54.1-7.587v-37a2.4,2.4,0,0,1,2.393-2.393H64.529a2.4,2.4,0,0,1,2.393,2.393v37a2.4,2.4,0,0,1-2.393,2.393H13.359a2.4,2.4,0,0,1-2.393-2.393Zm15.465,4.754H51.458v2.833H26.431Zm40.845,12.9a2.21,2.21,0,0,1-2.208,2.208H12.82a2.21,2.21,0,0,1-2.208-2.208v-5.5a2.21,2.21,0,0,1,2.208-2.208H65.069a2.21,2.21,0,0,1,2.208,2.208v5.5Z" transform="translate(-8.251 0)" fill="url(#linear-gradient)"/>
      <path id="Path_13115" data-name="Path 13115" d="M66.484,352.484H46.18a1.181,1.181,0,0,0,0,2.361h20.3a1.181,1.181,0,1,0,0-2.361Z" transform="translate(-39.215 -297)" fill="url(#linear-gradient)"/>
      <path id="Path_13116" data-name="Path 13116" d="M330.206,352.484h-3.542a1.181,1.181,0,0,0,0,2.361h3.542a1.181,1.181,0,0,0,0-2.361Z" transform="translate(-275.549 -297)" fill="url(#linear-gradient)"/>
    </g>
  </g>
</svg>
