<svg xmlns="http://www.w3.org/2000/svg" xmlns:xlink="http://www.w3.org/1999/xlink" width="64" height="64" viewBox="0 0 64 64">
  <defs>
    <clipPath id="clip-path">
      <rect id="Rectangle_191" data-name="Rectangle 191" width="64" height="64" transform="translate(193 70)" fill="#004fa3"/>
    </clipPath>
  </defs>
  <g id="Mask_Group_30" data-name="Mask Group 30" transform="translate(-193 -70)" clip-path="url(#clip-path)">
    <g id="suitable-price" transform="translate(193 70.184)">
      <path id="Path_12832" data-name="Path 12832" d="M18.957,27.566l0,.041A6.908,6.908,0,0,0,22.9,34.2l.026.013a4.644,4.644,0,0,1,2.1,2.023l.01.019a7.218,7.218,0,0,0,6.783,3.785l.043,0a4.94,4.94,0,0,1,2.92.759,7.4,7.4,0,0,0,7.852,0,4.939,4.939,0,0,1,2.92-.759l.043,0a7.222,7.222,0,0,0,6.785-3.789l.006-.013a4.653,4.653,0,0,1,2.11-2.027l.021-.01a6.908,6.908,0,0,0,3.942-6.59l0-.038a4.42,4.42,0,0,1,.769-2.739,6.8,6.8,0,0,0,0-7.685,4.419,4.419,0,0,1-.77-2.738l0-.041a6.907,6.907,0,0,0-3.945-6.591L54.5,7.763a4.64,4.64,0,0,1-2.1-2.016l-.013-.026A7.223,7.223,0,0,0,45.6,1.935l-.044,0a4.936,4.936,0,0,1-2.919-.759h0a7.4,7.4,0,0,0-7.852,0,4.943,4.943,0,0,1-2.92.759l-.043,0a7.218,7.218,0,0,0-6.782,3.785l-.01.018a4.647,4.647,0,0,1-2.106,2.026l-.024.012a6.907,6.907,0,0,0-3.942,6.59l0,.038a4.417,4.417,0,0,1-.769,2.739,6.8,6.8,0,0,0,0,7.686,4.416,4.416,0,0,1,.769,2.739ZM20.149,18.5a6.813,6.813,0,0,0,1.187-4.226l0-.041a4.53,4.53,0,0,1,2.6-4.308l.02-.01a7.016,7.016,0,0,0,3.178-3.059l.012-.022a4.832,4.832,0,0,1,4.546-2.513l.042,0a7.3,7.3,0,0,0,4.318-1.122,5.008,5.008,0,0,1,5.312,0,7.317,7.317,0,0,0,4.318,1.123l.042,0a4.824,4.824,0,0,1,4.545,2.509l.016.03a7.015,7.015,0,0,0,3.175,3.055l.02.01a4.531,4.531,0,0,1,2.6,4.31l0,.042A6.811,6.811,0,0,0,57.269,18.5a4.4,4.4,0,0,1,0,4.979A6.819,6.819,0,0,0,56.082,27.7l0,.04a4.533,4.533,0,0,1-2.605,4.311l-.017.008a7.024,7.024,0,0,0-3.181,3.064l-.009.017a4.83,4.83,0,0,1-4.547,2.513l-.041,0a7.314,7.314,0,0,0-4.319,1.123,5.008,5.008,0,0,1-5.311,0,7.3,7.3,0,0,0-3.914-1.134q-.2,0-.4.011l-.042,0a4.826,4.826,0,0,1-4.548-2.516l-.012-.023a7.008,7.008,0,0,0-3.173-3.054l-.022-.011a4.53,4.53,0,0,1-2.6-4.31l0-.042a6.818,6.818,0,0,0-1.187-4.226,4.4,4.4,0,0,1,0-4.978Zm0,0" fill="#004fa3"/>
      <path id="Path_12833" data-name="Path 12833" d="M31.021,33.3a1.191,1.191,0,0,0,1.641-.38L46.777,10.312A1.192,1.192,0,1,0,44.756,9.05L30.641,31.662a1.191,1.191,0,0,0,.38,1.642Zm0,0" fill="#004fa3"/>
      <path id="Path_12834" data-name="Path 12834" d="M32.285,21.045c2.9,0,5.263-2.692,5.263-6s-2.361-6-5.263-6-5.262,2.691-5.262,6S29.384,21.045,32.285,21.045Zm0-9.618c1.588,0,2.879,1.623,2.879,3.617s-1.292,3.618-2.879,3.618-2.879-1.624-2.879-3.618S30.7,11.427,32.285,11.427Zm0,0" fill="#004fa3"/>
      <path id="Path_12835" data-name="Path 12835" d="M39.87,26.929c0,3.309,2.36,6,5.262,6s5.263-2.692,5.263-6-2.36-6-5.262-6S39.87,23.62,39.87,26.929Zm8.141,0c0,1.994-1.292,3.617-2.879,3.617s-2.879-1.623-2.879-3.617,1.292-3.617,2.879-3.617S48.011,24.934,48.011,26.929Zm0,0" fill="#004fa3"/>
      <path id="Path_12836" data-name="Path 12836" d="M63.845,46.716A6.019,6.019,0,0,0,55.9,44.293L46.563,48.7a7.6,7.6,0,0,0-6.481-4l-8.617-.237a9.109,9.109,0,0,1-3.916-1.011L26.672,43a15.465,15.465,0,0,0-14.325.015L12.4,41.03a1.192,1.192,0,0,0-1.158-1.224l-9.449-.26A1.191,1.191,0,0,0,.571,40.7L0,61.44a1.192,1.192,0,0,0,1.158,1.224l9.449.26h.033a1.193,1.193,0,0,0,1.191-1.159l.027-.992,2.455-1.314a4.212,4.212,0,0,1,3.143-.344l14.658,4.114c.026.008.051.013.077.019a15.693,15.693,0,0,0,3.222.332,15.9,15.9,0,0,0,6.641-1.449,1.169,1.169,0,0,0,.148-.08L63.455,48.3a1.191,1.191,0,0,0,.39-1.587Zm-61.43,13.6.505-18.352,7.067.194L9.482,60.509ZM40.981,60a13.505,13.505,0,0,1-8.262.922L18.1,56.821a6.586,6.586,0,0,0-4.912.537l-1.254.671.336-12.2a13.1,13.1,0,0,1,13.306-.71l.877.454A11.5,11.5,0,0,0,31.4,46.849l8.617.237a5.225,5.225,0,0,1,4.967,4.164L32.149,50.9a1.192,1.192,0,0,0-.065,2.383l14.164.39h.034a1.192,1.192,0,0,0,1.19-1.159,7.6,7.6,0,0,0-.115-1.546l9.572-4.524.028-.013A3.639,3.639,0,0,1,61.073,47Zm0,0" fill="#004fa3"/>
    </g>
  </g>
</svg>
