<svg xmlns="http://www.w3.org/2000/svg" width="64" height="64" viewBox="0 0 64 64">
  <g id="automatic" transform="translate(0 0.001)">
    <path id="Path_13093" data-name="Path 13093" d="M11.08,49.545a5.07,5.07,0,0,0-2.482.644A29.907,29.907,0,0,1,2.461,32.033C2.461,15.749,15.487,2.5,31.5,2.5a28.788,28.788,0,0,1,5.783.586,1.231,1.231,0,0,0,1.45-.979A1.251,1.251,0,0,0,37.77.634,31.16,31.16,0,0,0,9.226,9.382,32.1,32.1,0,0,0,0,32.033,32.438,32.438,0,0,0,6.778,51.885a5.326,5.326,0,0,0,.648,6.631,5.106,5.106,0,0,0,7.308,0,5.318,5.318,0,0,0,0-7.432,5.091,5.091,0,0,0-3.654-1.539Zm1.914,7.2a2.674,2.674,0,0,1-3.828,0,2.786,2.786,0,0,1,0-3.893,2.675,2.675,0,0,1,3.828,0,2.786,2.786,0,0,1,0,3.893Zm0,0" transform="translate(0 0)" fill="#004fa3"/>
    <path id="Path_13094" data-name="Path 13094" d="M229.4,40.22a5.331,5.331,0,0,0-.646-6.63,5.108,5.108,0,0,0-7.309,0,5.319,5.319,0,0,0,0,7.433,5.106,5.106,0,0,0,6.136.895,29.908,29.908,0,0,1,6.137,18.156c0,16.284-13.027,29.531-29.039,29.531a28.781,28.781,0,0,1-5.728-.574,1.232,1.232,0,0,0-1.448.981,1.251,1.251,0,0,0,.965,1.473,31.161,31.161,0,0,0,28.485-8.76,32.1,32.1,0,0,0,9.226-22.651A32.44,32.44,0,0,0,229.4,40.22Zm-6.215-.967a2.786,2.786,0,0,1,0-3.893,2.675,2.675,0,0,1,3.828,0,2.79,2.79,0,0,1,0,3.893,2.676,2.676,0,0,1-3.828,0Zm0,0" transform="translate(-172.184 -28.107)" fill="#004fa3"/>
    <path id="Path_13095" data-name="Path 13095" d="M91.69,118.531a1.258,1.258,0,0,0,1.258,1.258h7.866a1.258,1.258,0,0,0,1.258-1.258v-2.439a19.7,19.7,0,0,0,4.721-1.957l1.722,1.722a1.257,1.257,0,0,0,1.779,0l5.559-5.563a1.258,1.258,0,0,0,0-1.779l-1.72-1.72a19.7,19.7,0,0,0,1.957-4.721h2.429a1.258,1.258,0,0,0,1.258-1.258V92.95a1.258,1.258,0,0,0-1.258-1.258h-2.43a19.7,19.7,0,0,0-1.956-4.721l1.711-1.711a1.258,1.258,0,0,0,0-1.78l-5.564-5.56a1.258,1.258,0,0,0-1.779,0l-1.708,1.709a19.7,19.7,0,0,0-4.721-1.957V75.258A1.258,1.258,0,0,0,100.813,74H92.948a1.258,1.258,0,0,0-1.258,1.258v2.417a19.682,19.682,0,0,0-4.721,1.956L85.26,77.922a1.258,1.258,0,0,0-1.779,0l-5.563,5.56a1.258,1.258,0,0,0,0,1.779l1.711,1.711a19.7,19.7,0,0,0-1.957,4.721H75.246a1.258,1.258,0,0,0-1.258,1.257l0,7.866a1.257,1.257,0,0,0,1.258,1.258h2.429a19.7,19.7,0,0,0,1.957,4.721l-1.72,1.72a1.258,1.258,0,0,0,0,1.779l5.559,5.563a1.258,1.258,0,0,0,.889.369h0a1.258,1.258,0,0,0,.889-.369l1.721-1.722a19.716,19.716,0,0,0,4.721,1.957Zm-4.228-7.041a1.258,1.258,0,0,0-1.572.167l-1.532,1.532L80.576,109.4l1.53-1.531a1.258,1.258,0,0,0,.167-1.572,17.218,17.218,0,0,1-2.383-5.751,1.258,1.258,0,0,0-1.23-.994H76.5l0-5.35h2.158a1.258,1.258,0,0,0,1.23-.994,17.22,17.22,0,0,1,2.383-5.75,1.258,1.258,0,0,0-.167-1.572l-1.52-1.521L84.37,80.59l1.519,1.519a1.259,1.259,0,0,0,1.572.167,17.211,17.211,0,0,1,5.75-2.383,1.259,1.259,0,0,0,.994-1.23V76.516h5.35v2.148a1.257,1.257,0,0,0,.994,1.23,17.226,17.226,0,0,1,5.75,2.383,1.257,1.257,0,0,0,1.572-.167l1.519-1.519,3.784,3.781-1.52,1.52a1.258,1.258,0,0,0-.167,1.572,17.23,17.23,0,0,1,2.383,5.75,1.257,1.257,0,0,0,1.23.994h2.162v5.35H115.1a1.258,1.258,0,0,0-1.23.994,17.216,17.216,0,0,1-2.383,5.75,1.258,1.258,0,0,0,.167,1.572l1.53,1.53-3.781,3.784-1.532-1.531a1.258,1.258,0,0,0-1.572-.167,17.23,17.23,0,0,1-5.75,2.383,1.258,1.258,0,0,0-.994,1.23v2.17h-5.35V115.1a1.259,1.259,0,0,0-.994-1.23,17.22,17.22,0,0,1-5.75-2.383Zm0,0" transform="translate(-64.881 -64.895)" fill="#004fa3"/>
    <path id="Path_13096" data-name="Path 13096" d="M193.706,183.538a10.167,10.167,0,1,0-10.167,10.167A10.179,10.179,0,0,0,193.706,183.538Zm-17.874,0a7.706,7.706,0,1,1,7.706,7.706A7.715,7.715,0,0,1,175.832,183.538Zm0,0" transform="translate(-151.539 -151.539)" fill="#004fa3"/>
    <path id="Path_13097" data-name="Path 13097" d="M339.308,20.271a1.232,1.232,0,1,0-.87-.36A1.24,1.24,0,0,0,339.308,20.271Zm0,0" transform="translate(-295.792 -15.618)" fill="#004fa3"/>
    <path id="Path_13098" data-name="Path 13098" d="M155.589,474.359a1.231,1.231,0,1,0,.87.361A1.24,1.24,0,0,0,155.589,474.359Zm0,0" transform="translate(-135.052 -414.991)" fill="#004fa3"/>
  </g>
</svg>
