<svg xmlns="http://www.w3.org/2000/svg" xmlns:xlink="http://www.w3.org/1999/xlink" width="64" height="64" viewBox="0 0 64 64">
  <defs>
    <clipPath id="clip-path">
      <rect id="Rectangle_191" data-name="Rectangle 191" width="64" height="64" transform="translate(193 70)" fill="#004fa3"/>
    </clipPath>
  </defs>
  <g id="Mask_Group_40" data-name="Mask Group 40" transform="translate(-193 -70)" clip-path="url(#clip-path)">
    <g id="lan" transform="translate(193 70)">
      <path id="Path_12892" data-name="Path 12892" d="M18.133,64H1.067A1.066,1.066,0,0,1,0,62.933V41.6a1.066,1.066,0,0,1,1.067-1.067H18.133A1.066,1.066,0,0,1,19.2,41.6V62.933A1.066,1.066,0,0,1,18.133,64Zm-16-2.133H17.067v-19.2H2.133Z" fill="#004fa3"/>
      <path id="Path_12893" data-name="Path 12893" d="M6.4,46.933H5.333a1.067,1.067,0,1,1,0-2.133H6.4a1.067,1.067,0,1,1,0,2.133Z" fill="#004fa3"/>
      <path id="Path_12894" data-name="Path 12894" d="M13.867,46.933h-3.2a1.067,1.067,0,1,1,0-2.133h3.2a1.067,1.067,0,1,1,0,2.133Z" fill="#004fa3"/>
      <path id="Path_12895" data-name="Path 12895" d="M6.4,55.467H5.333a1.067,1.067,0,0,1,0-2.133H6.4a1.067,1.067,0,0,1,0,2.133Z" fill="#004fa3"/>
      <path id="Path_12896" data-name="Path 12896" d="M13.867,55.467h-3.2a1.067,1.067,0,0,1,0-2.133h3.2a1.067,1.067,0,0,1,0,2.133Z" fill="#004fa3"/>
      <path id="Path_12897" data-name="Path 12897" d="M13.867,51.2H12.8a1.067,1.067,0,1,1,0-2.133h1.067a1.067,1.067,0,0,1,0,2.133Z" fill="#004fa3"/>
      <path id="Path_12898" data-name="Path 12898" d="M8.533,51.2h-3.2a1.067,1.067,0,0,1,0-2.133h3.2a1.067,1.067,0,0,1,0,2.133Z" fill="#004fa3"/>
      <path id="Path_12899" data-name="Path 12899" d="M13.867,59.733H12.8a1.067,1.067,0,1,1,0-2.133h1.067a1.067,1.067,0,0,1,0,2.133Z" fill="#004fa3"/>
      <path id="Path_12900" data-name="Path 12900" d="M8.533,59.733h-3.2a1.067,1.067,0,0,1,0-2.133h3.2a1.067,1.067,0,0,1,0,2.133Z" fill="#004fa3"/>
      <path id="Path_12901" data-name="Path 12901" d="M40.533,23.467H23.467A1.066,1.066,0,0,1,22.4,22.4V1.067A1.066,1.066,0,0,1,23.467,0H40.533A1.066,1.066,0,0,1,41.6,1.067V22.4A1.066,1.066,0,0,1,40.533,23.467Zm-16-2.133H39.467V2.133H24.533Z" fill="#004fa3"/>
      <path id="Path_12902" data-name="Path 12902" d="M28.8,6.4H27.733a1.067,1.067,0,1,1,0-2.133H28.8a1.067,1.067,0,1,1,0,2.133Z" fill="#004fa3"/>
      <path id="Path_12903" data-name="Path 12903" d="M36.267,6.4h-3.2a1.067,1.067,0,1,1,0-2.133h3.2a1.067,1.067,0,0,1,0,2.133Z" fill="#004fa3"/>
      <path id="Path_12904" data-name="Path 12904" d="M28.8,14.933H27.733a1.067,1.067,0,1,1,0-2.133H28.8a1.067,1.067,0,1,1,0,2.133Z" fill="#004fa3"/>
      <path id="Path_12905" data-name="Path 12905" d="M36.267,14.933h-3.2a1.067,1.067,0,1,1,0-2.133h3.2a1.067,1.067,0,0,1,0,2.133Z" fill="#004fa3"/>
      <path id="Path_12906" data-name="Path 12906" d="M36.267,10.667H35.2a1.067,1.067,0,0,1,0-2.133h1.067a1.067,1.067,0,0,1,0,2.133Z" fill="#004fa3"/>
      <path id="Path_12907" data-name="Path 12907" d="M30.933,10.667h-3.2a1.067,1.067,0,1,1,0-2.133h3.2a1.067,1.067,0,0,1,0,2.133Z" fill="#004fa3"/>
      <path id="Path_12908" data-name="Path 12908" d="M36.267,19.2H35.2a1.067,1.067,0,0,1,0-2.133h1.067a1.067,1.067,0,0,1,0,2.133Z" fill="#004fa3"/>
      <path id="Path_12909" data-name="Path 12909" d="M30.933,19.2h-3.2a1.067,1.067,0,1,1,0-2.133h3.2a1.067,1.067,0,0,1,0,2.133Z" fill="#004fa3"/>
      <path id="Path_12910" data-name="Path 12910" d="M62.933,64H45.867A1.066,1.066,0,0,1,44.8,62.933V41.6a1.066,1.066,0,0,1,1.067-1.067H62.933A1.066,1.066,0,0,1,64,41.6V62.933A1.066,1.066,0,0,1,62.933,64Zm-16-2.133H61.867v-19.2H46.933Z" fill="#004fa3"/>
      <path id="Path_12911" data-name="Path 12911" d="M51.2,46.933H50.133a1.067,1.067,0,0,1,0-2.133H51.2a1.067,1.067,0,0,1,0,2.133Z" fill="#004fa3"/>
      <path id="Path_12912" data-name="Path 12912" d="M58.667,46.933h-3.2a1.067,1.067,0,1,1,0-2.133h3.2a1.067,1.067,0,1,1,0,2.133Z" fill="#004fa3"/>
      <path id="Path_12913" data-name="Path 12913" d="M51.2,55.467H50.133a1.067,1.067,0,0,1,0-2.133H51.2a1.067,1.067,0,0,1,0,2.133Z" fill="#004fa3"/>
      <path id="Path_12914" data-name="Path 12914" d="M58.667,55.467h-3.2a1.067,1.067,0,1,1,0-2.133h3.2a1.067,1.067,0,1,1,0,2.133Z" fill="#004fa3"/>
      <path id="Path_12915" data-name="Path 12915" d="M58.667,51.2H57.6a1.067,1.067,0,0,1,0-2.133h1.067a1.067,1.067,0,1,1,0,2.133Z" fill="#004fa3"/>
      <path id="Path_12916" data-name="Path 12916" d="M53.333,51.2h-3.2a1.067,1.067,0,0,1,0-2.133h3.2a1.067,1.067,0,0,1,0,2.133Z" fill="#004fa3"/>
      <path id="Path_12917" data-name="Path 12917" d="M58.667,59.733H57.6a1.067,1.067,0,0,1,0-2.133h1.067a1.067,1.067,0,1,1,0,2.133Z" fill="#004fa3"/>
      <path id="Path_12918" data-name="Path 12918" d="M53.333,59.733h-3.2a1.067,1.067,0,0,1,0-2.133h3.2a1.067,1.067,0,0,1,0,2.133Z" fill="#004fa3"/>
      <path id="Path_12919" data-name="Path 12919" d="M9.6,37.333a4.267,4.267,0,1,1,4.267-4.267A4.271,4.271,0,0,1,9.6,37.333Zm0-6.4a2.133,2.133,0,1,0,2.133,2.133A2.135,2.135,0,0,0,9.6,30.933Z" fill="#004fa3"/>
      <path id="Path_12920" data-name="Path 12920" d="M32,37.333a4.267,4.267,0,1,1,4.267-4.267A4.271,4.271,0,0,1,32,37.333Zm0-6.4a2.133,2.133,0,1,0,2.133,2.133A2.135,2.135,0,0,0,32,30.933Z" fill="#004fa3"/>
      <path id="Path_12921" data-name="Path 12921" d="M54.4,37.333a4.267,4.267,0,1,1,4.267-4.267A4.271,4.271,0,0,1,54.4,37.333Zm0-6.4a2.133,2.133,0,1,0,2.133,2.133A2.135,2.135,0,0,0,54.4,30.933Z" fill="#004fa3"/>
      <path id="Path_12922" data-name="Path 12922" d="M28.8,34.133h-16A1.067,1.067,0,1,1,12.8,32h16a1.067,1.067,0,1,1,0,2.133Z" fill="#004fa3"/>
      <path id="Path_12923" data-name="Path 12923" d="M51.2,34.133h-16A1.067,1.067,0,0,1,35.2,32h16a1.067,1.067,0,0,1,0,2.133Z" fill="#004fa3"/>
      <path id="Path_12924" data-name="Path 12924" d="M54.4,42.667A1.066,1.066,0,0,1,53.333,41.6V36.267a1.067,1.067,0,1,1,2.133,0V41.6A1.066,1.066,0,0,1,54.4,42.667Z" fill="#004fa3"/>
      <path id="Path_12925" data-name="Path 12925" d="M9.6,42.667A1.066,1.066,0,0,1,8.533,41.6V36.267a1.067,1.067,0,1,1,2.133,0V41.6A1.066,1.066,0,0,1,9.6,42.667Z" fill="#004fa3"/>
      <path id="Path_12926" data-name="Path 12926" d="M32,30.933a1.066,1.066,0,0,1-1.067-1.067V22.4a1.067,1.067,0,1,1,2.133,0v7.467A1.066,1.066,0,0,1,32,30.933Z" fill="#004fa3"/>
    </g>
  </g>
</svg>
