<svg xmlns="http://www.w3.org/2000/svg" width="31.867" height="34" viewBox="0 0 31.867 34">
  <g id="single-01" transform="translate(-3 -1)">
    <path id="Path_13100" data-name="Path 13100" d="M33.867,47.959a4.256,4.256,0,0,0-2.8-4.011A35.759,35.759,0,0,0,18.933,42,35.759,35.759,0,0,0,6.8,43.949,4.255,4.255,0,0,0,4,47.959v4.707H33.867Z" transform="translate(0 -18.667)" fill="none" stroke="#004fa3" stroke-linecap="round" stroke-linejoin="round" stroke-miterlimit="10" stroke-width="2"/>
    <path id="Path_13101" data-name="Path 13101" d="M25.467,19.067h0A7.467,7.467,0,0,1,18,11.6V9.467A7.467,7.467,0,0,1,25.467,2h0a7.467,7.467,0,0,1,7.467,7.467V11.6A7.467,7.467,0,0,1,25.467,19.067Z" transform="translate(-6.533)" fill="none" stroke="#004fa3" stroke-linecap="round" stroke-linejoin="round" stroke-miterlimit="10" stroke-width="2"/>
  </g>
</svg>
