<svg xmlns="http://www.w3.org/2000/svg" width="64" height="64" viewBox="0 0 64 64"><defs><style>.a{fill:#004fa3;}</style></defs><path class="a" d="M32.848,39.651a1.01,1.01,0,0,0-1.346-.48,16.091,16.091,0,0,1-2.556.956,1.01,1.01,0,0,0-.718.775l-1.069,5.345a1.136,1.136,0,0,1-1.111.911H23.131a1.136,1.136,0,0,1-1.111-.911L20.951,40.9a1.011,1.011,0,0,0-.719-.775,16.056,16.056,0,0,1-3.549-1.471,1.011,1.011,0,0,0-1.056.04L11.092,41.72a1.136,1.136,0,0,1-1.43-.142L7.6,39.516a1.136,1.136,0,0,1-.142-1.43l3.024-4.536a1.01,1.01,0,0,0,.04-1.056,16.051,16.051,0,0,1-1.47-3.549,1.01,1.01,0,0,0-.775-.719L2.932,27.158a1.136,1.136,0,0,1-.911-1.111V23.131a1.136,1.136,0,0,1,.911-1.111l5.345-1.069a1.011,1.011,0,0,0,.775-.719,16.056,16.056,0,0,1,1.47-3.549,1.011,1.011,0,0,0-.04-1.056L7.459,11.092A1.136,1.136,0,0,1,7.6,9.662L9.662,7.6a1.136,1.136,0,0,1,1.43-.142l4.536,3.024a1.01,1.01,0,0,0,1.056.04,16.056,16.056,0,0,1,3.549-1.47,1.01,1.01,0,0,0,.719-.775l1.069-5.345a1.136,1.136,0,0,1,1.111-.911h2.916a1.136,1.136,0,0,1,1.111.911l1.069,5.345a1.011,1.011,0,0,0,.718.775,16.056,16.056,0,0,1,3.549,1.47,1.011,1.011,0,0,0,1.057-.04l4.536-3.024a1.136,1.136,0,0,1,1.43.142l2.062,2.062a1.136,1.136,0,0,1,.142,1.43L38.7,15.627a1.01,1.01,0,0,0-.04,1.056,16.056,16.056,0,0,1,1.471,3.549,1.01,1.01,0,0,0,.775.719l5.345,1.069a1.136,1.136,0,0,1,.911,1.111v2.916a1.136,1.136,0,0,1-.911,1.111L40.9,28.227a1.01,1.01,0,0,0-.775.719,16.084,16.084,0,0,1-.985,2.617,1.01,1.01,0,1,0,1.822.874,18.124,18.124,0,0,0,.93-2.347l4.749-.95a3.163,3.163,0,0,0,2.535-3.093V23.131a3.163,3.163,0,0,0-2.535-3.093l-4.749-.95a18.082,18.082,0,0,0-1.179-2.846l2.687-4.03a3.163,3.163,0,0,0-.394-3.98L40.946,6.171a3.163,3.163,0,0,0-3.98-.394l-4.03,2.687A18.094,18.094,0,0,0,30.09,7.284l-.95-4.749A3.162,3.162,0,0,0,26.047,0H23.131a3.163,3.163,0,0,0-3.093,2.535l-.95,4.749a18.083,18.083,0,0,0-2.846,1.179l-4.03-2.686a3.163,3.163,0,0,0-3.98.394L6.171,8.233a3.163,3.163,0,0,0-.394,3.98l2.686,4.03a18.089,18.089,0,0,0-1.179,2.846l-4.749.95A3.162,3.162,0,0,0,0,23.131v2.916A3.163,3.163,0,0,0,2.535,29.14l4.749.95a18.08,18.08,0,0,0,1.179,2.846l-2.686,4.03a3.163,3.163,0,0,0,.394,3.98l2.062,2.062a3.163,3.163,0,0,0,3.98.394l4.03-2.687a18.09,18.09,0,0,0,2.846,1.179l.95,4.749a3.163,3.163,0,0,0,3.093,2.535h2.916a3.163,3.163,0,0,0,3.093-2.535l.95-4.749a18.1,18.1,0,0,0,2.279-.9A1.011,1.011,0,0,0,32.848,39.651Z"/><path class="a" d="M147.831,122.818a1.01,1.01,0,0,0,1.36-.438,11.36,11.36,0,0,0-18.042-13.311,1.01,1.01,0,1,0,1.411,1.447,9.34,9.34,0,0,1,14.833,10.942A1.011,1.011,0,0,0,147.831,122.818Z" transform="translate(-114.488 -92.614)"/><path class="a" d="M107.745,161.738a1.01,1.01,0,0,0-1.284.627,11.362,11.362,0,0,0,17.4,12.9,1.011,1.011,0,0,0-1.185-1.637,9.343,9.343,0,0,1-14.3-10.609A1.01,1.01,0,0,0,107.745,161.738Z" transform="translate(-92.614 -141.472)"/><path class="a" d="M278.981,261.092l-2.922-.584a12.22,12.22,0,0,0-.641-1.547l1.653-2.48a2.426,2.426,0,0,0-.3-3.053l-1.355-1.355a2.426,2.426,0,0,0-3.053-.3l-2.48,1.653a12.206,12.206,0,0,0-1.547-.641l-.584-2.922a2.426,2.426,0,0,0-2.372-1.945h-1.916a2.426,2.426,0,0,0-2.372,1.945l-.584,2.922a12.244,12.244,0,0,0-1.547.641l-2.48-1.653a2.426,2.426,0,0,0-3.053.3l-1.355,1.355a2.426,2.426,0,0,0-.3,3.053l1.653,2.48a12.213,12.213,0,0,0-.826,2.147,1.011,1.011,0,1,0,1.946.545,10.2,10.2,0,0,1,.934-2.255,1.011,1.011,0,0,0-.04-1.056l-1.987-2.981a.4.4,0,0,1,.05-.5l1.355-1.355a.4.4,0,0,1,.5-.05l2.981,1.987a1.01,1.01,0,0,0,1.056.04,10.2,10.2,0,0,1,2.255-.934,1.01,1.01,0,0,0,.719-.775l.7-3.512a.4.4,0,0,1,.39-.32h1.916a.4.4,0,0,1,.39.32l.7,3.512a1.011,1.011,0,0,0,.719.775,10.2,10.2,0,0,1,2.255.935,1.011,1.011,0,0,0,1.056-.04l2.981-1.987a.4.4,0,0,1,.5.05l1.355,1.355a.4.4,0,0,1,.05.5l-1.987,2.981a1.01,1.01,0,0,0-.04,1.057,10.2,10.2,0,0,1,.935,2.255,1.01,1.01,0,0,0,.775.719l3.512.7a.4.4,0,0,1,.32.39v1.916a.4.4,0,0,1-.32.39l-3.512.7a1.01,1.01,0,0,0-.775.718,10.2,10.2,0,0,1-.935,2.255,1.011,1.011,0,0,0,.04,1.056l1.987,2.981a.4.4,0,0,1-.05.5l-1.355,1.355a.4.4,0,0,1-.5.05L270.5,273.4a1.011,1.011,0,0,0-1.057-.04,10.2,10.2,0,0,1-2.255.935,1.01,1.01,0,0,0-.719.775l-.7,3.512a.4.4,0,0,1-.39.32h-1.916a.4.4,0,0,1-.39-.32l-.7-3.512a1.01,1.01,0,0,0-.718-.775,10.2,10.2,0,0,1-2.255-.935,1.011,1.011,0,0,0-1.056.04l-2.981,1.987a.4.4,0,0,1-.5-.05l-1.355-1.355a.4.4,0,0,1-.05-.5l1.987-2.981a1.01,1.01,0,0,0,.04-1.056,10.2,10.2,0,0,1-.935-2.255,1.01,1.01,0,0,0-.775-.718l-3.512-.7a.4.4,0,0,1-.32-.39v-1.916a.4.4,0,0,1,.32-.39l.215-.043a1.011,1.011,0,1,0-.4-1.982l-.215.043a2.426,2.426,0,0,0-1.944,2.372v1.916a2.426,2.426,0,0,0,1.945,2.372l2.922.584a12.24,12.24,0,0,0,.641,1.547l-1.653,2.48a2.426,2.426,0,0,0,.3,3.053l1.355,1.355a2.426,2.426,0,0,0,3.052.3l2.48-1.653a12.2,12.2,0,0,0,1.547.641l.584,2.922a2.426,2.426,0,0,0,2.372,1.945h1.916a2.426,2.426,0,0,0,2.372-1.945l.584-2.922a12.218,12.218,0,0,0,1.547-.641l2.48,1.653a2.426,2.426,0,0,0,3.053-.3l1.355-1.355a2.426,2.426,0,0,0,.3-3.052l-1.653-2.48a12.2,12.2,0,0,0,.641-1.547l2.922-.584a2.426,2.426,0,0,0,1.945-2.372v-1.916A2.425,2.425,0,0,0,278.981,261.092Z" transform="translate(-216.926 -216.927)"/><path class="a" d="M340.344,336.707a3.642,3.642,0,0,1,3.638,3.638,1.01,1.01,0,0,0,2.021,0A5.659,5.659,0,1,0,340.344,346a5.606,5.606,0,0,0,3.457-1.179,1.011,1.011,0,0,0-1.236-1.6,3.6,3.6,0,0,1-2.222.757,3.638,3.638,0,1,1,0-7.276Z" transform="translate(-292.849 -292.85)"/><path class="a" d="M159.776,153.62a6.157,6.157,0,1,0-6.157,6.157A6.164,6.164,0,0,0,159.776,153.62Zm-10.292,0a4.136,4.136,0,1,1,4.136,4.136A4.14,4.14,0,0,1,149.484,153.62Z" transform="translate(-129.03 -129.03)"/></svg>