<svg xmlns="http://www.w3.org/2000/svg" width="64" height="64" viewBox="0 0 64 64"><defs><style>.a{fill:#004fa3;}</style></defs><path class="a" d="M56.861,53.8l-1.051-.422A32,32,0,0,0,58.458,14a1,1,0,0,0-.16-.229,32.089,32.089,0,0,0-5.575-6.153,1.011,1.011,0,0,0-1.309,1.539,30.092,30.092,0,0,1,4.574,4.863,44.576,44.576,0,0,1-7.573,2.1,36.1,36.1,0,0,0-2.907-6.539,23.148,23.148,0,0,0-5.245-6.409,29.8,29.8,0,0,1,8.5,3.967,1.011,1.011,0,1,0,1.131-1.675A32,32,0,0,0,8.2,53.392L7.165,53.8a5.741,5.741,0,0,0-3.634,5.569v3.621A1.011,1.011,0,0,0,4.542,64H19.416a1,1,0,0,0,.143-.011A1,1,0,0,0,19.7,64h4.112a1.01,1.01,0,1,0,0-2.021h-3.1V58.46a4.939,4.939,0,0,1,3.034-4.822l.047-.017,4.921-1.927c.011.012.021.023.032.035l2.615,2.547a1.012,1.012,0,0,0,.705.287h.016a1.009,1.009,0,0,0,.712-.309l2.511-2.606,4.914,1.971.048.018a4.94,4.94,0,0,1,3.041,4.825v3.519H26.972a1.01,1.01,0,1,0,0,2.021H59.48a1.016,1.016,0,0,0,1.01-1.018V59.368A5.741,5.741,0,0,0,56.861,53.8ZM53.8,52.574l-1-.4V51.6a5.284,5.284,0,0,0,2.349-2.913,2.854,2.854,0,0,0,1.578-5.06v-1.8a6.818,6.818,0,0,0-5.947-6.753c.038-.685.064-1.375.077-2.067h11.1A29.837,29.837,0,0,1,53.8,52.574ZM50.155,50.3h-.922A3.242,3.242,0,0,1,46,47.061V44.387h0a10.447,10.447,0,0,0,5.444-2.1,4.545,4.545,0,0,0,1.954,1.872v2.9A3.242,3.242,0,0,1,50.155,50.3Zm.631,1.982v.56L49.66,54.009,48.6,52.979v-.7a5.287,5.287,0,0,0,.631.039h.922A5.261,5.261,0,0,0,50.786,52.281Zm-5.8-9.849h0c-.035,0-.069,0-.1.005l-.032,0c-.023,0-.046.006-.068.01l-.045.012-.052.013-.032.012V41.83a4.794,4.794,0,0,1,4.789-4.789h.483a4.794,4.794,0,0,1,4.789,4.789v.65l-.058-.016-.028-.008c-1.409-.32-1.869-2.2-1.873-2.215a1.011,1.011,0,0,0-1.8-.369C49.121,42.4,45.042,42.432,44.988,42.432Zm10.426,4.089V45.159a.834.834,0,0,1,0,1.362Zm1.758-30.8A29.926,29.926,0,0,1,61.96,30.989h-11.1a51.007,51.007,0,0,0-1.851-12.931A45.094,45.094,0,0,0,57.173,15.719ZM48.843,30.99H38.5a8.247,8.247,0,0,0-5.487-2.7V19.6a91.111,91.111,0,0,0,14.008-1.178A48.855,48.855,0,0,1,48.843,30.99ZM39.929,41.542a1.3,1.3,0,0,1-.947,1.25v-2.5A1.3,1.3,0,0,1,39.929,41.542ZM33.011,2.077c4.021.43,7.8,3.413,10.746,8.515A33.891,33.891,0,0,1,46.4,16.481a89.545,89.545,0,0,1-13.394,1.1V2.077ZM32.37,30.285a6.25,6.25,0,0,1,6.242,6.243v1.235l-.021-.015-.045-.033-.036-.024-.046-.028-.044-.023-.043-.021-.054-.021-.038-.014c-.02-.007-.041-.012-.062-.018l-.028-.008c-1.92-.437-2.528-2.939-2.533-2.961a1.011,1.011,0,0,0-1.8-.369c-2.366,3.271-7.594,3.305-7.663,3.305h0c-.035,0-.069,0-.1.005l-.031,0c-.023,0-.046.006-.069.01l-.043.011-.054.014-.048.018-.044.016-.054.026-.034.017c-.018.01-.035.021-.053.032l-.031.019c-.016.011-.032.023-.047.035l-.031.023-.027.024v-1.26a6.249,6.249,0,0,1,6.242-6.243h.6Zm-17.212.7a48.857,48.857,0,0,1,1.825-12.569A91.208,91.208,0,0,0,30.99,19.6v8.7A8.25,8.25,0,0,0,25.632,31a1.035,1.035,0,0,0-.112-.007H15.157Zm10.024,9.292V42.8a1.3,1.3,0,0,1,0-2.521Zm5.809-38.2v15.5a89.6,89.6,0,0,1-13.393-1.1,33.906,33.906,0,0,1,2.648-5.886C23.185,5.49,26.968,2.507,30.99,2.077ZM23.727,3.183a23.166,23.166,0,0,0-5.234,6.4,36.1,36.1,0,0,0-2.906,6.536,44.67,44.67,0,0,1-7.561-2.1A30.079,30.079,0,0,1,23.727,3.183ZM6.836,15.723a45.189,45.189,0,0,0,8.151,2.333A51,51,0,0,0,13.136,30.99H2.04A29.791,29.791,0,0,1,6.836,15.723Zm6.512,36.558a5.288,5.288,0,0,0,.631.039H14.9a5.258,5.258,0,0,0,.631-.039v.56l-1.126,1.168-1.058-1.03v-.7ZM14.9,50.3h-.922a3.242,3.242,0,0,1-3.238-3.238V44.389a10.442,10.442,0,0,0,5.444-2.1,4.546,4.546,0,0,0,1.954,1.873v2.9A3.242,3.242,0,0,1,14.9,50.3Zm2.6-10.057a1.01,1.01,0,0,0-1.8-.369c-1.831,2.531-5.914,2.559-5.963,2.559h0c-.035,0-.069,0-.1.005l-.031,0c-.023,0-.046.006-.069.01l-.043.011-.054.014-.032.012V41.83a4.794,4.794,0,0,1,4.789-4.789h.483A4.794,4.794,0,0,1,19.46,41.83v.651h0c-.019-.006-.039-.011-.059-.016l-.027-.007C17.965,42.137,17.5,40.256,17.5,40.242ZM2.04,33.011h11.1c.013.7.04,1.391.078,2.081A6.82,6.82,0,0,0,7.377,41.83v1.788a2.853,2.853,0,0,0,1.6,5.069A5.283,5.283,0,0,0,11.327,51.6v.569l-1.1.432A29.824,29.824,0,0,1,2.04,33.011ZM8.72,45.137v1.407a.835.835,0,0,1,0-1.407ZM18.691,58.46v3.519H5.552V59.368A3.758,3.758,0,0,1,7.84,55.7l.047-.017L11.7,54.194l2.025,1.972a1.01,1.01,0,0,0,.7.287h.016a1.009,1.009,0,0,0,.712-.309l1.913-1.985,2.365.948A7.547,7.547,0,0,0,18.691,58.46Zm9.75-8.83-5.364,2.1A6.443,6.443,0,0,0,20.611,53.4l-3.058-1.226V51.6A5.284,5.284,0,0,0,19.9,48.686a2.854,2.854,0,0,0,1.579-5.06v-1.8a6.818,6.818,0,0,0-6.245-6.785c-.038-.674-.065-1.354-.078-2.035H24.29a8.212,8.212,0,0,0-.788,3.517v2.358a3.319,3.319,0,0,0,1.939,5.976,6.352,6.352,0,0,0,3,3.737V49.63ZM20.16,46.521V45.159a.834.834,0,0,1,0,1.362ZM33.7,50.335V50.4l-1.656,1.718-1.582-1.541V49.305a6.329,6.329,0,0,0,1.043.088h1.153a6.354,6.354,0,0,0,1.042-.087Zm-1.042-2.963H31.505a4.308,4.308,0,0,1-4.3-4.3V39.5a12.723,12.723,0,0,0,7.131-2.8,5.509,5.509,0,0,0,2.627,2.571v3.8A4.308,4.308,0,0,1,32.658,47.372Zm10.759,6.036a6.448,6.448,0,0,0-2.469-1.676l-5.227-2.1V48.6a6.351,6.351,0,0,0,3-3.738A3.319,3.319,0,0,0,40.633,38.9V36.528a8.21,8.21,0,0,0-.788-3.517h9c-.013.684-.04,1.367-.079,2.044a6.819,6.819,0,0,0-6.132,6.776v1.788a2.853,2.853,0,0,0,1.6,5.069A5.283,5.283,0,0,0,46.581,51.6v.569Zm.558-8.271v1.407a.835.835,0,0,1,0-1.407Zm14.5,16.842H45.33V58.46a7.546,7.546,0,0,0-.737-3.342l2.36-.924,2.025,1.972a1.011,1.011,0,0,0,.705.287H49.7a1.009,1.009,0,0,0,.712-.309l1.913-1.985,3.8,1.525.046.017a3.759,3.759,0,0,1,2.3,3.667v2.611Z"/></svg>