<svg xmlns="http://www.w3.org/2000/svg" xmlns:xlink="http://www.w3.org/1999/xlink" width="64" height="64" viewBox="0 0 64 64"><defs><style>.a{fill:url(#a);}</style><linearGradient id="a" x1="0.5" x2="0.5" y2="1" gradientUnits="objectBoundingBox"><stop offset="0" stop-color="#005fc5"/><stop offset="1" stop-color="#004fa3"/></linearGradient></defs><g transform="translate(-21.799 -11.349)"><path class="a" d="M32,0A32,32,0,1,0,64,32,32,32,0,0,0,32,0ZM59.675,43.21l-9.1,1.57a47.753,47.753,0,0,0,1.674-11.714H61.84A29.669,29.669,0,0,1,59.675,43.21ZM2.16,33.067H11.75a47.753,47.753,0,0,0,1.674,11.714l-9.1-1.57A29.669,29.669,0,0,1,2.16,33.067ZM4.324,20.79l9.1-1.57A47.753,47.753,0,0,0,11.75,30.933H2.16A29.669,29.669,0,0,1,4.324,20.79Zm28.742-3.663A73.38,73.38,0,0,1,44.5,18.171l3.765.649a45.786,45.786,0,0,1,1.851,12.113H33.067Zm11.8-1.058a75.609,75.609,0,0,0-11.8-1.075V2.193C39.182,2.781,44.494,8.38,47.5,16.528ZM30.933,14.993a75.6,75.6,0,0,0-11.8,1.075l-2.64.457c3.01-8.151,8.322-13.752,14.437-14.336ZM19.5,18.171a73.361,73.361,0,0,1,11.434-1.044V30.933H13.883A45.786,45.786,0,0,1,15.733,18.82Zm-5.617,14.9H30.933V46.873A73.38,73.38,0,0,1,19.5,45.829l-3.765-.649a45.786,45.786,0,0,1-1.851-12.113Zm5.252,14.865a75.862,75.862,0,0,0,11.8,1.081v12.8c-6.115-.588-11.427-6.187-14.437-14.335Zm13.932,1.081a75.855,75.855,0,0,0,11.8-1.081l2.64-.457c-3.01,8.151-8.322,13.752-14.437,14.336ZM44.5,45.829a73.361,73.361,0,0,1-11.434,1.044V33.067H50.117A45.786,45.786,0,0,1,48.267,45.18Zm7.749-14.9a47.754,47.754,0,0,0-1.674-11.714l9.1,1.57A29.669,29.669,0,0,1,61.84,30.933ZM58.6,18.438l-8.723-1.505a29.414,29.414,0,0,0-8.486-13.28A30.008,30.008,0,0,1,58.6,18.439ZM22.613,3.653a29.414,29.414,0,0,0-8.486,13.28L5.4,18.438A30.009,30.009,0,0,1,22.613,3.653ZM5.4,45.561l8.723,1.505a29.414,29.414,0,0,0,8.486,13.28A30.008,30.008,0,0,1,5.4,45.561ZM41.386,60.347a29.414,29.414,0,0,0,8.486-13.28L58.6,45.561a30.009,30.009,0,0,1-17.21,14.785Zm0,0" transform="translate(21.799 11.349)"/></g></svg>