<svg xmlns="http://www.w3.org/2000/svg" xmlns:xlink="http://www.w3.org/1999/xlink" width="100" height="100" viewBox="0 0 100 100"><defs><style>.a{fill:url(#a);}.b{clip-path:url(#b);}</style><linearGradient id="a" x1="0.5" x2="0.5" y2="1" gradientUnits="objectBoundingBox"><stop offset="0" stop-color="#005fc5"/><stop offset="1" stop-color="#004fa3"/></linearGradient><clipPath id="b"><rect class="a" width="100" height="100" rx="6" transform="translate(147 40)"/></clipPath></defs><g class="b" transform="translate(-147 -40)"><g transform="translate(147 40)"><circle class="a" cx="1.593" cy="1.593" r="1.593" transform="translate(57.331 13.778)"/><circle class="a" cx="1.593" cy="1.593" r="1.593" transform="translate(57.331 17.754)"/><circle class="a" cx="1.593" cy="1.593" r="1.593" transform="translate(57.331 21.733)"/><path class="a" d="M73.145,13.905H64.286a1.465,1.465,0,1,0,0,2.93h8.858a1.465,1.465,0,1,0,0-2.93Z"/><path class="a" d="M73.145,17.883H64.286a1.465,1.465,0,1,0,0,2.93h8.858a1.465,1.465,0,0,0,0-2.93Z"/><path class="a" d="M73.145,21.879H64.286a1.465,1.465,0,1,0,0,2.93h8.858a1.465,1.465,0,0,0,0-2.93Z"/><circle class="a" cx="1.593" cy="1.593" r="1.593" transform="translate(26.272 13.778)"/><circle class="a" cx="1.593" cy="1.593" r="1.593" transform="translate(26.272 17.754)"/><circle class="a" cx="1.593" cy="1.593" r="1.593" transform="translate(26.272 21.733)"/><path class="a" d="M42.087,13.905H33.229a1.465,1.465,0,1,0,0,2.93h8.858a1.465,1.465,0,1,0,0-2.93Z"/><path class="a" d="M42.087,17.883H33.229a1.465,1.465,0,1,0,0,2.93h8.858a1.465,1.465,0,0,0,0-2.93Z"/><path class="a" d="M42.087,21.879H33.229a1.465,1.465,0,1,0,0,2.93h8.858a1.465,1.465,0,0,0,0-2.93Z"/><path class="a" d="M94.629,73.972a5.38,5.38,0,0,0-5.166,3.906H75.624V67.871h4.253a7.7,7.7,0,1,0,.006-15.406v-51A1.465,1.465,0,0,0,78.418,0H53.027a1.465,1.465,0,0,0-1.465,1.465V37.126a12.121,12.121,0,0,0-2.734-1.089V1.465A1.465,1.465,0,0,0,47.363,0H21.972a1.465,1.465,0,0,0-1.465,1.465V31.152a1.465,1.465,0,0,0,2.93,0v-.769H45.9v5.263l-.1,0A12.049,12.049,0,0,0,33.95,45.539a8.848,8.848,0,0,0-10.513,2.595V37.5a1.465,1.465,0,0,0-2.93,0V52.475c-.129-.006-.258-.01-.387-.01a7.7,7.7,0,1,0,0,15.406h4.255V77.879H10.538a5.371,5.371,0,1,0,0,2.93h15.3a1.465,1.465,0,0,0,1.465-1.465V67.871h6.288v.846a1.465,1.465,0,0,0,2.93,0v-.846H48.535V81.748a5.371,5.371,0,1,0,2.93,0V67.871H63.477V89.463a5.371,5.371,0,1,0,2.93,0V67.871h6.288V79.344a1.465,1.465,0,0,0,1.465,1.465h15.3a5.371,5.371,0,1,0,5.166-6.836ZM5.371,81.785a2.441,2.441,0,1,1,2.441-2.441A2.444,2.444,0,0,1,5.371,81.785ZM54.492,2.93H76.953V8.313H54.492Zm0,27.454H68.715a1.465,1.465,0,0,0,0-2.93H54.492V11.243H76.953V27.454H75.033a1.465,1.465,0,0,0,0,2.93h1.921V52.46a6.822,6.822,0,0,0-6.382-4.423q-.211,0-.419.012.009-.2.009-.4A8.525,8.525,0,0,0,56,41.282a12.016,12.016,0,0,0-1.509-1.92ZM23.438,2.93H45.9V8.313H23.438Zm0,24.524V11.243H45.9V27.454Zm29,59.46A2.441,2.441,0,1,1,50,84.473,2.444,2.444,0,0,1,52.441,86.914Zm14.941,7.715a2.441,2.441,0,1,1-2.441-2.441A2.444,2.444,0,0,1,67.383,94.629ZM20.121,64.941a4.773,4.773,0,1,1,2.253-8.984,1.465,1.465,0,0,0,2.141-1.5,5.913,5.913,0,0,1,9.756-5.272l0,0A5.88,5.88,0,0,1,34.8,57.5a1.465,1.465,0,0,0,2.193,1.943,8.8,8.8,0,0,0-.3-12,9.111,9.111,0,0,1,17.353-3.644,8.48,8.48,0,0,0,2.994,11,1.465,1.465,0,1,0,1.581-2.466,5.561,5.561,0,0,1-1.711-7.659l0,0A5.585,5.585,0,0,1,66.91,49.52a1.465,1.465,0,0,0,2.006,1.817,3.837,3.837,0,0,1,1.655-.369,3.88,3.88,0,0,1,3.882,3.868,3.783,3.783,0,0,1-.018.38,1.465,1.465,0,0,0,2.392,1.276,4.78,4.78,0,1,1,3.051,8.45H20.121ZM94.629,81.785a2.441,2.441,0,1,1,2.441-2.441A2.444,2.444,0,0,1,94.629,81.785Z"/><path class="a" d="M36.523,89.463v-14.5a1.465,1.465,0,0,0-2.93,0v14.5a5.371,5.371,0,1,0,2.93,0ZM35.059,97.07A2.441,2.441,0,1,1,37.5,94.629,2.444,2.444,0,0,1,35.059,97.07Z"/></g></g></svg>