<svg xmlns="http://www.w3.org/2000/svg" xmlns:xlink="http://www.w3.org/1999/xlink" width="106.599" height="106.599" viewBox="0 0 106.599 106.599"><defs><style>.a{fill:url(#a);}.b{clip-path:url(#b);}</style><linearGradient id="a" x1="0.5" x2="0.5" y2="1" gradientUnits="objectBoundingBox"><stop offset="0" stop-color="#005fc5"/><stop offset="1" stop-color="#004fa3"/></linearGradient><clipPath id="b"><rect class="a" width="106.599" height="106.599"/></clipPath></defs><g class="b" transform="translate(0 0)"><path class="a" d="M53.3,0a53.3,53.3,0,1,0,53.3,53.3A53.3,53.3,0,0,0,53.3,0ZM99.4,71.972,84.238,74.587a79.538,79.538,0,0,0,2.789-19.511H103a49.416,49.416,0,0,1-3.605,16.9ZM3.6,55.076H19.572a79.538,79.538,0,0,0,2.789,19.511L7.2,71.972A49.417,49.417,0,0,1,3.6,55.076ZM7.2,34.627l15.158-2.616a79.538,79.538,0,0,0-2.789,19.511H3.6A49.416,49.416,0,0,1,7.2,34.627Zm47.873-6.1a122.222,122.222,0,0,1,19.046,1.739l6.271,1.082a76.261,76.261,0,0,1,3.082,20.176h-28.4Zm19.652-1.763a125.935,125.935,0,0,0-19.652-1.791V3.653c10.185.979,19.033,10.3,24.047,23.876Zm-23.2-1.791a125.913,125.913,0,0,0-19.65,1.791l-4.4.761C32.49,13.949,41.337,4.619,51.523,3.645ZM32.478,30.265a122.19,122.19,0,0,1,19.044-1.739v23h-28.4a76.262,76.262,0,0,1,3.082-20.176ZM23.123,55.076h28.4v23a122.221,122.221,0,0,1-19.046-1.739l-6.271-1.082a76.261,76.261,0,0,1-3.082-20.176Zm8.748,24.759a126.359,126.359,0,0,0,19.652,1.8v21.32C41.337,101.976,32.49,92.65,27.476,79.078Zm23.2,1.8a126.347,126.347,0,0,0,19.65-1.8l4.4-.761c-5.014,13.576-13.862,22.9-24.047,23.879Zm19.044-5.3a122.191,122.191,0,0,1-19.044,1.739v-23h28.4a76.262,76.262,0,0,1-3.082,20.176ZM87.027,51.523a79.539,79.539,0,0,0-2.789-19.511L99.4,34.627A49.417,49.417,0,0,1,103,51.523ZM97.6,30.711,83.069,28.2A48.992,48.992,0,0,0,68.934,6.085,49.982,49.982,0,0,1,97.6,30.711ZM37.665,6.085A48.992,48.992,0,0,0,23.53,28.2L9,30.711A49.983,49.983,0,0,1,37.665,6.084ZM9,75.888l14.53,2.507a48.992,48.992,0,0,0,14.135,22.12A49.982,49.982,0,0,1,9,75.887Zm59.933,24.627a48.992,48.992,0,0,0,14.135-22.12L97.6,75.888a49.983,49.983,0,0,1-28.665,24.627Zm0,0"/></g></svg>