<svg xmlns="http://www.w3.org/2000/svg" xmlns:xlink="http://www.w3.org/1999/xlink" width="106.599" height="106.599" viewBox="0 0 106.599 106.599"><defs><style>.a{fill:url(#a);}.b{clip-path:url(#b);}</style><linearGradient id="a" x1="0.5" x2="0.5" y2="1" gradientUnits="objectBoundingBox"><stop offset="0" stop-color="#005fc5"/><stop offset="1" stop-color="#004fa3"/></linearGradient><clipPath id="b"><rect class="a" width="106.599" height="106.599"/></clipPath></defs><g class="b" transform="translate(0 0)"><g transform="translate(0)"><path class="a" d="M54.712,66.043a1.683,1.683,0,0,0-2.242-.8,26.8,26.8,0,0,1-4.257,1.592,1.682,1.682,0,0,0-1.2,1.291l-1.781,8.9a1.892,1.892,0,0,1-1.85,1.517H38.528a1.892,1.892,0,0,1-1.85-1.517l-1.781-8.9a1.683,1.683,0,0,0-1.2-1.291,26.743,26.743,0,0,1-5.911-2.449,1.683,1.683,0,0,0-1.76.066l-7.555,5.036a1.893,1.893,0,0,1-2.381-.236l-3.434-3.435a1.893,1.893,0,0,1-.236-2.381l5.036-7.555a1.683,1.683,0,0,0,.066-1.76,26.735,26.735,0,0,1-2.449-5.911,1.682,1.682,0,0,0-1.291-1.2l-8.9-1.781a1.892,1.892,0,0,1-1.517-1.85V38.527a1.892,1.892,0,0,1,1.517-1.85l8.9-1.781a1.683,1.683,0,0,0,1.291-1.2,26.743,26.743,0,0,1,2.449-5.911,1.683,1.683,0,0,0-.066-1.76l-5.036-7.554a1.893,1.893,0,0,1,.236-2.381l3.434-3.434a1.893,1.893,0,0,1,2.381-.236l7.555,5.036a1.683,1.683,0,0,0,1.76.066A26.743,26.743,0,0,1,33.7,15.076a1.682,1.682,0,0,0,1.2-1.291l1.781-8.9a1.892,1.892,0,0,1,1.85-1.517h4.857a1.892,1.892,0,0,1,1.85,1.517l1.781,8.9a1.683,1.683,0,0,0,1.2,1.291,26.743,26.743,0,0,1,5.911,2.449,1.683,1.683,0,0,0,1.76-.066l7.555-5.036a1.893,1.893,0,0,1,2.381.236l3.434,3.434a1.893,1.893,0,0,1,.236,2.381l-5.036,7.555a1.683,1.683,0,0,0-.066,1.76A26.743,26.743,0,0,1,66.837,33.7a1.682,1.682,0,0,0,1.291,1.2l8.9,1.781a1.892,1.892,0,0,1,1.517,1.85v4.857a1.892,1.892,0,0,1-1.517,1.85l-8.9,1.781a1.683,1.683,0,0,0-1.291,1.2A26.789,26.789,0,0,1,65.2,52.572a1.683,1.683,0,1,0,3.035,1.456,30.188,30.188,0,0,0,1.549-3.909l7.91-1.582a5.268,5.268,0,0,0,4.222-5.152V38.528a5.268,5.268,0,0,0-4.223-5.152l-7.91-1.582a30.118,30.118,0,0,0-1.964-4.741l4.475-6.712a5.268,5.268,0,0,0-.656-6.629L68.2,10.278a5.268,5.268,0,0,0-6.629-.656L54.858,14.1a30.138,30.138,0,0,0-4.741-1.964l-1.582-7.91A5.267,5.267,0,0,0,43.385,0H38.528a5.268,5.268,0,0,0-5.152,4.223l-1.582,7.91A30.119,30.119,0,0,0,27.054,14.1L20.342,9.622a5.268,5.268,0,0,0-6.629.656l-3.434,3.434a5.268,5.268,0,0,0-.656,6.629L14.1,27.054a30.13,30.13,0,0,0-1.964,4.741l-7.91,1.582A5.267,5.267,0,0,0,0,38.528v4.857a5.268,5.268,0,0,0,4.223,5.152l7.91,1.582A30.115,30.115,0,0,0,14.1,54.859L9.622,61.571a5.268,5.268,0,0,0,.656,6.629l3.434,3.434a5.268,5.268,0,0,0,6.629.656l6.712-4.475a30.13,30.13,0,0,0,4.741,1.964l1.582,7.91a5.268,5.268,0,0,0,5.151,4.223h4.857a5.268,5.268,0,0,0,5.152-4.223l1.582-7.91a30.154,30.154,0,0,0,3.8-1.495A1.683,1.683,0,0,0,54.712,66.043Z"/><path class="a" d="M55.535,50.309a1.682,1.682,0,0,0,2.266-.73A18.922,18.922,0,0,0,27.75,27.409a1.683,1.683,0,1,0,2.35,2.41A15.557,15.557,0,0,1,54.805,48.044,1.683,1.683,0,0,0,55.535,50.309Z"/><path class="a" d="M25.2,33.755A1.683,1.683,0,0,0,23.062,34.8,18.924,18.924,0,0,0,52.043,56.29a1.683,1.683,0,1,0-1.974-2.727,15.562,15.562,0,0,1-23.824-17.67A1.682,1.682,0,0,0,25.2,33.755Z"/><path class="a" d="M103.36,73.561l-4.867-.973a20.361,20.361,0,0,0-1.067-2.576l2.754-4.13a4.04,4.04,0,0,0-.5-5.084L97.419,58.54a4.041,4.041,0,0,0-5.084-.5L88.2,60.79a20.328,20.328,0,0,0-2.576-1.067l-.973-4.867A4.04,4.04,0,0,0,80.7,51.617H77.512a4.04,4.04,0,0,0-3.951,3.239l-.973,4.867a20.39,20.39,0,0,0-2.576,1.067l-4.13-2.754a4.04,4.04,0,0,0-5.084.5L58.54,60.8a4.04,4.04,0,0,0-.5,5.084l2.754,4.13a20.343,20.343,0,0,0-1.375,3.576,1.683,1.683,0,0,0,3.242.907,16.985,16.985,0,0,1,1.557-3.757,1.683,1.683,0,0,0-.066-1.76l-3.31-4.965a.665.665,0,0,1,.083-.837l2.257-2.257a.666.666,0,0,1,.837-.083l4.965,3.31a1.683,1.683,0,0,0,1.76.066,16.989,16.989,0,0,1,3.757-1.557,1.682,1.682,0,0,0,1.2-1.291l1.17-5.85a.665.665,0,0,1,.65-.533H80.7a.665.665,0,0,1,.65.533l1.17,5.85a1.683,1.683,0,0,0,1.2,1.291,16.985,16.985,0,0,1,3.757,1.557,1.683,1.683,0,0,0,1.76-.066l4.965-3.31a.665.665,0,0,1,.837.083l2.257,2.257a.666.666,0,0,1,.083.837l-3.31,4.965A1.683,1.683,0,0,0,94,70.739,16.989,16.989,0,0,1,95.558,74.5a1.682,1.682,0,0,0,1.291,1.2l5.85,1.17a.665.665,0,0,1,.533.65V80.7a.665.665,0,0,1-.533.65l-5.85,1.17a1.683,1.683,0,0,0-1.291,1.2A16.985,16.985,0,0,1,94,87.477a1.683,1.683,0,0,0,.066,1.76l3.31,4.965a.665.665,0,0,1-.083.837L95.038,97.3a.665.665,0,0,1-.837.083l-4.965-3.31A1.683,1.683,0,0,0,87.477,94a16.989,16.989,0,0,1-3.757,1.557,1.682,1.682,0,0,0-1.2,1.291l-1.17,5.85a.665.665,0,0,1-.65.533H77.511a.665.665,0,0,1-.65-.533l-1.17-5.85a1.683,1.683,0,0,0-1.2-1.291A16.985,16.985,0,0,1,70.738,94a1.683,1.683,0,0,0-1.76.066l-4.965,3.31a.665.665,0,0,1-.837-.083L60.92,95.038a.666.666,0,0,1-.083-.837l3.31-4.965a1.683,1.683,0,0,0,.066-1.76,16.989,16.989,0,0,1-1.557-3.757,1.682,1.682,0,0,0-1.291-1.2l-5.85-1.17a.665.665,0,0,1-.533-.65V77.512a.665.665,0,0,1,.533-.65l.358-.072a1.683,1.683,0,1,0-.661-3.3l-.358.072a4.041,4.041,0,0,0-3.239,3.951V80.7a4.04,4.04,0,0,0,3.239,3.951l4.867.973A20.39,20.39,0,0,0,60.79,88.2l-2.754,4.13a4.04,4.04,0,0,0,.5,5.084L60.8,99.676a4.04,4.04,0,0,0,5.084.5l4.13-2.754a20.328,20.328,0,0,0,2.576,1.067l.973,4.867a4.041,4.041,0,0,0,3.951,3.239H80.7a4.04,4.04,0,0,0,3.951-3.239l.973-4.867A20.361,20.361,0,0,0,88.2,97.425l4.13,2.754a4.04,4.04,0,0,0,5.084-.5l2.257-2.257a4.04,4.04,0,0,0,.5-5.084L97.425,88.2a20.328,20.328,0,0,0,1.067-2.576l4.867-.973A4.04,4.04,0,0,0,106.6,80.7V77.512A4.04,4.04,0,0,0,103.36,73.561Z"/><path class="a" d="M79.108,73.048a6.066,6.066,0,0,1,6.059,6.059,1.683,1.683,0,0,0,3.366,0,9.426,9.426,0,1,0-9.426,9.426,9.338,9.338,0,0,0,5.759-1.963,1.683,1.683,0,1,0-2.058-2.664,6,6,0,0,1-3.7,1.261,6.059,6.059,0,1,1,0-12.119Z"/><path class="a" d="M51.211,40.956A10.255,10.255,0,1,0,40.956,51.211,10.266,10.266,0,0,0,51.211,40.956Zm-17.143,0a6.888,6.888,0,1,1,6.888,6.888A6.9,6.9,0,0,1,34.068,40.956Z"/></g></g></svg>