<svg xmlns="http://www.w3.org/2000/svg" width="53.977" height="53.975" viewBox="0 0 53.977 53.975">
  <g id="facebook-messenger" transform="translate(-8 -8)">
    <path id="Path_268" data-name="Path 268" d="M35.049,8C19.81,8,8,19.137,8,34.18a25.586,25.586,0,0,0,8.5,19.364c.909.817.722,1.291.876,6.337a2.168,2.168,0,0,0,3.034,1.912c5.758-2.536,5.832-2.736,6.808-2.47C43.9,63.914,61.977,53.239,61.977,34.18,61.977,19.137,50.288,8,35.049,8ZM51.29,28.147,43.345,40.724A4.067,4.067,0,0,1,37.479,41.8l-6.321-4.731a1.632,1.632,0,0,0-1.959,0l-8.529,6.469a1.283,1.283,0,0,1-1.862-1.705L26.753,29.26a4.066,4.066,0,0,1,5.867-1.081l6.318,4.73a1.632,1.632,0,0,0,1.959,0l8.533-6.462a1.28,1.28,0,0,1,1.86,1.7Z" fill="#ff8830"/>
  </g>
</svg>
