<svg xmlns="http://www.w3.org/2000/svg" xmlns:xlink="http://www.w3.org/1999/xlink" width="64" height="64" viewBox="0 0 64 64">
  <defs>
    <clipPath id="clip-path">
      <rect id="Rectangle_191" data-name="Rectangle 191" width="64" height="64" transform="translate(193 70)" fill="#004fa3"/>
    </clipPath>
  </defs>
  <g id="Mask_Group_28" data-name="Mask Group 28" transform="translate(-193 -70)" clip-path="url(#clip-path)">
    <g id="XMLID_806_" transform="translate(193 70)">
      <g id="XMLID_386_">
        <path id="XMLID_389_" d="M63.877,34.956A25.23,25.23,0,0,0,44.258,12.833V9.657a4.25,4.25,0,0,0-1.026-8.374h-9a4.25,4.25,0,0,0-1.026,8.374v3.185A25.1,25.1,0,0,0,20.9,19.613a25.371,25.371,0,0,0-2.122,2.409c-.031,0-.063,0-.095,0H9.771a1.25,1.25,0,0,0,0,2.5h7.3a25.059,25.059,0,0,0-2.218,4.8H1.25a1.25,1.25,0,0,0,0,2.5h12.9a25.416,25.416,0,0,0-.62,4.8H8a1.25,1.25,0,0,0,0,2.5h5.568a25.378,25.378,0,0,0,.781,4.8H6.25a1.25,1.25,0,0,0,0,2.5h8.9A25.247,25.247,0,0,0,36.255,62.6q1.239.122,2.477.122a25.311,25.311,0,0,0,13.78-4.073,1.25,1.25,0,0,0-1.364-2.1,22.75,22.75,0,1,1,6.7-6.709,1.25,1.25,0,1,0,2.1,1.362A25.331,25.331,0,0,0,63.877,34.956ZM32.482,5.533a1.752,1.752,0,0,1,1.75-1.75h9a1.75,1.75,0,1,1,0,3.5h-9A1.752,1.752,0,0,1,32.482,5.533Zm3.224,6.879V9.783h6.052v2.625A25.47,25.47,0,0,0,35.706,12.412Z" fill="#004fa3"/>
        <path id="XMLID_391_" d="M55.722,53.188a1.25,1.25,0,1,0,.884.366A1.257,1.257,0,0,0,55.722,53.188Z" fill="#004fa3"/>
        <path id="XMLID_394_" d="M38.751,18.076A19.391,19.391,0,1,0,58.142,37.468,19.413,19.413,0,0,0,38.751,18.076Zm0,36.283A16.891,16.891,0,1,1,55.642,37.468,16.91,16.91,0,0,1,38.751,54.359Z" fill="#004fa3"/>
        <path id="XMLID_397_" d="M46.658,27.793l-6.191,6.191a3.874,3.874,0,0,0-3.432,0l-2.771-2.771A1.25,1.25,0,1,0,32.5,32.981l2.771,2.771a3.884,3.884,0,1,0,6.967,0l6.01-6.01h0l.182-.182a1.25,1.25,0,1,0-1.768-1.768ZM38.751,38.852a1.384,1.384,0,1,1,1.384-1.384A1.386,1.386,0,0,1,38.751,38.852Z" fill="#004fa3"/>
        <path id="XMLID_398_" d="M52.116,36.233H50.958a1.25,1.25,0,0,0,0,2.5h1.158a1.25,1.25,0,0,0,0-2.5Z" fill="#004fa3"/>
        <path id="XMLID_399_" d="M26.544,36.2H25.386a1.25,1.25,0,1,0,0,2.5h1.158a1.25,1.25,0,1,0,0-2.5Z" fill="#004fa3"/>
        <path id="XMLID_400_" d="M38.766,26.511a1.25,1.25,0,0,0,1.25-1.25V24.1a1.25,1.25,0,0,0-2.5,0v1.158A1.25,1.25,0,0,0,38.766,26.511Z" fill="#004fa3"/>
        <path id="XMLID_424_" d="M38.735,48.425a1.25,1.25,0,0,0-1.25,1.25v1.158a1.25,1.25,0,1,0,2.5,0V49.675A1.25,1.25,0,0,0,38.735,48.425Z" fill="#004fa3"/>
        <path id="XMLID_425_" d="M1.25,43.931a1.25,1.25,0,1,0,.884,2.134,1.25,1.25,0,0,0-.884-2.134Z" fill="#004fa3"/>
      </g>
    </g>
  </g>
</svg>
